<?xml version="1.0" encoding="utf-8"?>
<!-- Generator: Adobe Illustrator 21.1.0, SVG Export Plug-In . SVG Version: 6.00 Build 0)  -->
<svg version="1.1" id="Layer_1" xmlns="http://www.w3.org/2000/svg" xmlns:xlink="http://www.w3.org/1999/xlink" x="0px" y="0px"
	 viewBox="0 0 595.3 841.9" style="enable-background:new 0 0 595.3 841.9;" xml:space="preserve">
<style type="text/css">
	.st0{fill:none;stroke:#EB2227;stroke-width:0.5;stroke-miterlimit:10;}
</style>
<line class="st0" x1="450.6" y1="425.9" x2="461" y2="443.2"/>
<line class="st0" x1="455.1" y1="456.7" x2="461" y2="443.2"/>
<line class="st0" x1="440.3" y1="466.2" x2="455.1" y2="456.7"/>
<line class="st0" x1="445.1" y1="448.1" x2="455.1" y2="456.7"/>
<line class="st0" x1="450.6" y1="425.9" x2="450.6" y2="436.3"/>
<line class="st0" x1="445.1" y1="448.1" x2="450.6" y2="436.3"/>
<line class="st0" x1="461" y1="443.2" x2="450.6" y2="436.3"/>
<line class="st0" x1="445.1" y1="448.1" x2="461" y2="443.2"/>
<line class="st0" x1="436.1" y1="454.7" x2="445.1" y2="448.1"/>
<line class="st0" x1="440.3" y1="466.2" x2="436.1" y2="454.7"/>
<line class="st0" x1="450.6" y1="465.7" x2="440.3" y2="466.2"/>
<line class="st0" x1="435.8" y1="476.3" x2="440.3" y2="466.2"/>
<line class="st0" x1="422.7" y1="478.9" x2="435.8" y2="476.3"/>
<line class="st0" x1="414.1" y1="471.1" x2="436.1" y2="454.7"/>
<line class="st0" x1="422.7" y1="478.9" x2="414.1" y2="471.1"/>
<line class="st0" x1="435" y1="490.7" x2="435.8" y2="476.3"/>
<line class="st0" x1="420.4" y1="495.4" x2="435" y2="490.7"/>
<line class="st0" x1="422.7" y1="478.9" x2="420.4" y2="495.4"/>
<line class="st0" x1="435" y1="490.7" x2="422.7" y2="478.9"/>
<line class="st0" x1="414.1" y1="455.9" x2="420.5" y2="453"/>
<line class="st0" x1="426.1" y1="444.1" x2="420.5" y2="453"/>
<line class="st0" x1="418.8" y1="441.8" x2="414.1" y2="455.9"/>
<line class="st0" x1="420.5" y1="453" x2="436.1" y2="454.7"/>
<line class="st0" x1="426.1" y1="444.1" x2="436.1" y2="454.7"/>
<line class="st0" x1="418.8" y1="441.8" x2="426.1" y2="444.1"/>
<line class="st0" x1="414.1" y1="496.4" x2="420.4" y2="495.4"/>
<line class="st0" x1="414.1" y1="517.8" x2="419.7" y2="509.5"/>
<line class="st0" x1="423" y1="502" x2="419.7" y2="509.5"/>
<line class="st0" x1="420.4" y1="495.4" x2="423" y2="502"/>
<line class="st0" x1="414.1" y1="517.8" x2="424.7" y2="509.7"/>
<line class="st0" x1="423" y1="502" x2="424.7" y2="509.7"/>
<line class="st0" x1="435" y1="490.7" x2="424.7" y2="509.7"/>
<line class="st0" x1="435.8" y1="476.3" x2="448.7" y2="476.3"/>
<line class="st0" x1="454" y1="470.8" x2="448.7" y2="476.3"/>
<line class="st0" x1="448.7" y1="476.3" x2="442.8" y2="471.1"/>
<line class="st0" x1="435.8" y1="476.3" x2="442.8" y2="471.1"/>
<line class="st0" x1="450.6" y1="465.7" x2="454" y2="470.8"/>
<line class="st0" x1="442.8" y1="471.1" x2="450.6" y2="465.7"/>
<line class="st0" x1="422.7" y1="478.9" x2="440.3" y2="466.2"/>
<line class="st0" x1="436.1" y1="454.7" x2="455.1" y2="456.7"/>
<line class="st0" x1="414.1" y1="510.3" x2="419.7" y2="509.5"/>
<line class="st0" x1="377.5" y1="425.9" x2="367.2" y2="443.2"/>
<line class="st0" x1="373" y1="456.7" x2="367.2" y2="443.2"/>
<line class="st0" x1="387.8" y1="466.2" x2="373" y2="456.7"/>
<line class="st0" x1="383.1" y1="448.1" x2="373" y2="456.7"/>
<line class="st0" x1="377.5" y1="425.9" x2="377.5" y2="436.3"/>
<line class="st0" x1="383.1" y1="448.1" x2="377.5" y2="436.3"/>
<line class="st0" x1="367.2" y1="443.2" x2="377.5" y2="436.3"/>
<line class="st0" x1="383.1" y1="448.1" x2="367.2" y2="443.2"/>
<line class="st0" x1="392" y1="454.7" x2="383.1" y2="448.1"/>
<line class="st0" x1="387.8" y1="466.2" x2="392" y2="454.7"/>
<line class="st0" x1="377.5" y1="465.7" x2="387.8" y2="466.2"/>
<line class="st0" x1="392.3" y1="476.3" x2="387.8" y2="466.2"/>
<line class="st0" x1="405.4" y1="478.9" x2="392.3" y2="476.3"/>
<line class="st0" x1="414.1" y1="471.1" x2="392" y2="454.7"/>
<line class="st0" x1="405.4" y1="478.9" x2="414.1" y2="471.1"/>
<line class="st0" x1="393.1" y1="490.7" x2="392.3" y2="476.3"/>
<line class="st0" x1="407.8" y1="495.4" x2="393.1" y2="490.7"/>
<line class="st0" x1="405.4" y1="478.9" x2="407.8" y2="495.4"/>
<line class="st0" x1="393.1" y1="490.7" x2="405.4" y2="478.9"/>
<line class="st0" x1="414.1" y1="455.9" x2="407.7" y2="453"/>
<line class="st0" x1="402.1" y1="444.1" x2="407.7" y2="453"/>
<line class="st0" x1="409.3" y1="441.8" x2="414.1" y2="455.9"/>
<line class="st0" x1="407.7" y1="453" x2="392" y2="454.7"/>
<line class="st0" x1="402.1" y1="444.1" x2="392" y2="454.7"/>
<line class="st0" x1="409.3" y1="441.8" x2="402.1" y2="444.1"/>
<line class="st0" x1="414.1" y1="496.4" x2="407.8" y2="495.4"/>
<line class="st0" x1="414.1" y1="517.8" x2="408.5" y2="509.5"/>
<line class="st0" x1="405.1" y1="502" x2="408.5" y2="509.5"/>
<line class="st0" x1="407.8" y1="495.4" x2="405.1" y2="502"/>
<line class="st0" x1="414.1" y1="517.8" x2="403.5" y2="509.7"/>
<line class="st0" x1="405.1" y1="502" x2="403.5" y2="509.7"/>
<line class="st0" x1="393.1" y1="490.7" x2="403.5" y2="509.7"/>
<line class="st0" x1="392.3" y1="476.3" x2="379.5" y2="476.3"/>
<line class="st0" x1="374.2" y1="470.8" x2="379.5" y2="476.3"/>
<line class="st0" x1="379.5" y1="476.3" x2="385.3" y2="471.1"/>
<line class="st0" x1="392.3" y1="476.3" x2="385.3" y2="471.1"/>
<line class="st0" x1="377.5" y1="465.7" x2="374.2" y2="470.8"/>
<line class="st0" x1="385.3" y1="471.1" x2="377.5" y2="465.7"/>
<line class="st0" x1="405.4" y1="478.9" x2="387.8" y2="466.2"/>
<line class="st0" x1="392" y1="454.7" x2="373" y2="456.7"/>
<line class="st0" x1="414.1" y1="510.3" x2="408.5" y2="509.5"/>
</svg>
