<?xml version="1.0" encoding="utf-8"?>
<!-- Generator: Adobe Illustrator 21.1.0, SVG Export Plug-In . SVG Version: 6.00 Build 0)  -->
<svg version="1.1" id="Layer_1" xmlns="http://www.w3.org/2000/svg" xmlns:xlink="http://www.w3.org/1999/xlink" x="0px" y="0px"
	 viewBox="0 0 595.3 841.9" style="enable-background:new 0 0 595.3 841.9;" xml:space="preserve">
<style type="text/css">
	.st0{fill:none;stroke:#EB2227;stroke-width:0.5;stroke-miterlimit:10;}
</style>
<line class="st0" x1="296.4" y1="418.8" x2="294.1" y2="427.4"/>
<line class="st0" x1="299.4" y1="427.6" x2="296.4" y2="418.8"/>
<line class="st0" x1="294.1" y1="427.4" x2="299.4" y2="427.6"/>
<line class="st0" x1="291.8" y1="408.6" x2="301.8" y2="408.6"/>
<line class="st0" x1="304.3" y1="415.9" x2="301.8" y2="408.6"/>
<line class="st0" x1="296.4" y1="418.8" x2="304.3" y2="415.9"/>
<line class="st0" x1="306.6" y1="422.8" x2="304.3" y2="415.9"/>
<line class="st0" x1="299.4" y1="427.6" x2="306.6" y2="422.8"/>
<line class="st0" x1="308.9" y1="429.3" x2="306.6" y2="422.8"/>
<line class="st0" x1="292.1" y1="434.1" x2="301.2" y2="434.3"/>
<line class="st0" x1="299.4" y1="427.6" x2="301.2" y2="434.3"/>
<line class="st0" x1="292.1" y1="434.1" x2="294.1" y2="427.4"/>
<line class="st0" x1="301.2" y1="434.3" x2="294.1" y2="427.4"/>
<line class="st0" x1="291.8" y1="408.6" x2="296.4" y2="418.8"/>
<line class="st0" x1="301.8" y1="408.6" x2="296.4" y2="418.8"/>
<line class="st0" x1="310.5" y1="434.7" x2="303" y2="440.6"/>
<line class="st0" x1="312.6" y1="440.9" x2="310.5" y2="434.7"/>
<line class="st0" x1="308.9" y1="429.3" x2="310.5" y2="434.7"/>
<line class="st0" x1="301.2" y1="434.3" x2="310.5" y2="434.7"/>
<line class="st0" x1="303" y1="440.6" x2="301.2" y2="434.3"/>
<line class="st0" x1="312.6" y1="440.9" x2="303" y2="440.6"/>
<line class="st0" x1="308.9" y1="429.3" x2="299.4" y2="427.6"/>
<line class="st0" x1="290" y1="440.4" x2="292.1" y2="434.1"/>
<line class="st0" x1="283.4" y1="433.6" x2="292.1" y2="434.1"/>
<line class="st0" x1="290" y1="440.4" x2="283.4" y2="433.6"/>
<line class="st0" x1="281.4" y1="440.3" x2="290" y2="440.4"/>
<line class="st0" x1="283.4" y1="433.6" x2="281.4" y2="440.3"/>
<line class="st0" x1="285.4" y1="427.1" x2="283.4" y2="433.6"/>
<line class="st0" x1="287" y1="421.3" x2="285.4" y2="427.1"/>
<line class="st0" x1="291.8" y1="408.6" x2="289" y2="416.3"/>
<line class="st0" x1="287" y1="421.3" x2="289" y2="416.3"/>
<line class="st0" x1="296.4" y1="418.8" x2="289" y2="416.3"/>
<line class="st0" x1="285.4" y1="427.1" x2="294.1" y2="427.4"/>
<line class="st0" x1="292.1" y1="434.1" x2="285.4" y2="427.1"/>
<line class="st0" x1="285.4" y1="427.1" x2="296.4" y2="418.8"/>
</svg>
