<?xml version="1.0" encoding="utf-8"?>
<!-- Generator: Adobe Illustrator 22.0.1, SVG Export Plug-In . SVG Version: 6.00 Build 0)  -->
<svg version="1.0" id="Layer_1" xmlns="http://www.w3.org/2000/svg" xmlns:xlink="http://www.w3.org/1999/xlink" x="0px" y="0px"
	 viewBox="0 0 595.3 841.9" style="enable-background:new 0 0 595.3 841.9;" xml:space="preserve">
<style type="text/css">
	.st0{fill:none;stroke:#221F1F;stroke-miterlimit:10;}
</style>
<line class="st0" x1="235.3" y1="223.8" x2="236.5" y2="231.1"/>
<line class="st0" x1="235.9" y1="239.4" x2="236.5" y2="231.1"/>
<line class="st0" x1="235.9" y1="246.7" x2="235.9" y2="239.4"/>
<line class="st0" x1="235.9" y1="255.7" x2="235.9" y2="246.7"/>
<line class="st0" x1="245.6" y1="248.6" x2="242.5" y2="255.7"/>
<line class="st0" x1="235.9" y1="255.7" x2="242.5" y2="255.7"/>
<line class="st0" x1="252.3" y1="255.3" x2="245.6" y2="248.6"/>
<line class="st0" x1="253" y1="246.7" x2="252.3" y2="255.3"/>
<line class="st0" x1="245.6" y1="248.6" x2="253" y2="246.7"/>
<line class="st0" x1="260.1" y1="251.8" x2="253" y2="246.7"/>
<line class="st0" x1="252.3" y1="255.3" x2="260.1" y2="251.8"/>
<line class="st0" x1="262.8" y1="246.7" x2="260.1" y2="251.8"/>
<line class="st0" x1="254.2" y1="238.4" x2="262.8" y2="246.7"/>
<line class="st0" x1="253" y1="246.7" x2="254.2" y2="238.4"/>
<line class="st0" x1="261.5" y1="231.1" x2="254.2" y2="238.4"/>
<line class="st0" x1="263.3" y1="238.4" x2="262.8" y2="246.7"/>
<line class="st0" x1="261.5" y1="231.1" x2="263.3" y2="238.4"/>
<line class="st0" x1="254.2" y1="238.4" x2="263.3" y2="238.4"/>
<line class="st0" x1="250.8" y1="231.1" x2="256.5" y2="226.9"/>
<line class="st0" x1="261.5" y1="231.1" x2="256.5" y2="226.9"/>
<line class="st0" x1="250.8" y1="231.1" x2="254.2" y2="238.4"/>
<line class="st0" x1="244" y1="231.1" x2="250.8" y2="231.1"/>
<line class="st0" x1="244.6" y1="239.4" x2="244" y2="231.1"/>
<line class="st0" x1="235.9" y1="239.4" x2="244.6" y2="239.4"/>
<line class="st0" x1="243.6" y1="223.3" x2="244" y2="231.1"/>
<line class="st0" x1="250.8" y1="231.1" x2="249.3" y2="224.2"/>
<line class="st0" x1="243.6" y1="223.3" x2="249.3" y2="224.2"/>
<line class="st0" x1="256.5" y1="226.9" x2="249.3" y2="224.2"/>
<line class="st0" x1="243.6" y1="223.3" x2="235.3" y2="223.8"/>
<line class="st0" x1="236.5" y1="231.1" x2="244" y2="231.1"/>
<line class="st0" x1="245.6" y1="248.6" x2="244.6" y2="239.4"/>
<line class="st0" x1="235.9" y1="246.7" x2="245.6" y2="248.6"/>
<line class="st0" x1="242.5" y1="255.7" x2="252.3" y2="255.3"/>
</svg>
