<?xml version="1.0" encoding="utf-8"?>
<!-- Generator: Adobe Illustrator 22.0.1, SVG Export Plug-In . SVG Version: 6.00 Build 0)  -->
<svg version="1.0" id="Layer_1" xmlns="http://www.w3.org/2000/svg" xmlns:xlink="http://www.w3.org/1999/xlink" x="0px" y="0px"
	 viewBox="0 0 595.3 841.9" style="enable-background:new 0 0 595.3 841.9;" xml:space="preserve">
<style type="text/css">
	.st0{fill:none;stroke:#231F20;stroke-miterlimit:10;}
</style>
<line class="st0" x1="300.5" y1="401.3" x2="310.4" y2="401.1"/>
<line class="st0" x1="322.3" y1="400.7" x2="321.7" y2="408.1"/>
<line class="st0" x1="310.4" y1="401.1" x2="311.4" y2="408.2"/>
<line class="st0" x1="316.6" y1="408.2" x2="311.4" y2="408.2"/>
<line class="st0" x1="316.7" y1="401.2" x2="322.3" y2="400.7"/>
<line class="st0" x1="310.4" y1="401.1" x2="316.7" y2="401.2"/>
<line class="st0" x1="309.3" y1="413.1" x2="311.4" y2="408.2"/>
<line class="st0" x1="321.4" y1="412.7" x2="320.5" y2="420.4"/>
<line class="st0" x1="315.5" y1="412.9" x2="321.4" y2="412.7"/>
<line class="st0" x1="309.3" y1="413.1" x2="315.5" y2="412.9"/>
<line class="st0" x1="301.1" y1="412.7" x2="309.3" y2="413.1"/>
<line class="st0" x1="309.7" y1="420.1" x2="309.3" y2="413.1"/>
<line class="st0" x1="315.5" y1="420.6" x2="315.5" y2="412.9"/>
<line class="st0" x1="309.7" y1="420.1" x2="315.5" y2="420.6"/>
<line class="st0" x1="320.5" y1="420.4" x2="315.5" y2="420.6"/>
<line class="st0" x1="301.1" y1="412.7" x2="301.1" y2="407"/>
<line class="st0" x1="301.1" y1="412.7" x2="300.5" y2="421.5"/>
<line class="st0" x1="309.7" y1="420.1" x2="300.5" y2="421.5"/>
<line class="st0" x1="310.3" y1="426.3" x2="309.7" y2="420.1"/>
<line class="st0" x1="316.6" y1="426" x2="315.5" y2="432.5"/>
<line class="st0" x1="322.7" y1="426" x2="316.6" y2="426"/>
<line class="st0" x1="323.1" y1="433.1" x2="322.7" y2="426"/>
<line class="st0" x1="315.5" y1="432.5" x2="323.1" y2="433.1"/>
<line class="st0" x1="300.8" y1="432" x2="308.1" y2="432.8"/>
<line class="st0" x1="310.3" y1="426.3" x2="308.1" y2="432.8"/>
<line class="st0" x1="316.6" y1="426" x2="310.3" y2="426.3"/>
<line class="st0" x1="308.1" y1="432.8" x2="315.5" y2="432.5"/>
<line class="st0" x1="300.8" y1="432" x2="300.5" y2="426.1"/>
<line class="st0" x1="310.3" y1="426.3" x2="300.5" y2="426.1"/>
<line class="st0" x1="300.5" y1="421.5" x2="300.5" y2="426.1"/>
<line class="st0" x1="311.4" y1="408.2" x2="301.1" y2="407"/>
<line class="st0" x1="300.5" y1="401.3" x2="301.1" y2="407"/>
<line class="st0" x1="316.6" y1="408.2" x2="316.7" y2="401.2"/>
<line class="st0" x1="321.7" y1="408.1" x2="316.6" y2="408.2"/>
</svg>
