<?xml version="1.0" encoding="utf-8"?>
<!-- Generator: Adobe Illustrator 22.0.1, SVG Export Plug-In . SVG Version: 6.00 Build 0)  -->
<svg version="1.0" id="Layer_1" xmlns="http://www.w3.org/2000/svg" xmlns:xlink="http://www.w3.org/1999/xlink" x="0px" y="0px"
	 viewBox="0 0 595.3 841.9" style="enable-background:new 0 0 595.3 841.9;" xml:space="preserve">
<style type="text/css">
	.st0{fill:none;stroke:#231F20;stroke-miterlimit:10;}
</style>
<line class="st0" x1="175.2" y1="143.5" x2="175.2" y2="149.3"/>
<line class="st0" x1="174.9" y1="156.8" x2="175.2" y2="149.3"/>
<line class="st0" x1="185.1" y1="150.3" x2="175.2" y2="149.3"/>
<line class="st0" x1="175.2" y1="143.5" x2="184.5" y2="143.2"/>
<line class="st0" x1="185.1" y1="150.3" x2="184.5" y2="143.2"/>
<line class="st0" x1="184.3" y1="156.2" x2="185.1" y2="150.3"/>
<line class="st0" x1="184.3" y1="161.5" x2="184.3" y2="156.2"/>
<line class="st0" x1="174.9" y1="156.8" x2="184.3" y2="156.2"/>
<line class="st0" x1="175.2" y1="143.5" x2="185.1" y2="150.3"/>
<line class="st0" x1="184.3" y1="161.5" x2="174.9" y2="156.8"/>
<line class="st0" x1="175" y1="163.3" x2="174.9" y2="156.8"/>
<line class="st0" x1="175" y1="169.2" x2="175" y2="163.3"/>
<line class="st0" x1="184.8" y1="167.3" x2="175" y2="163.3"/>
<line class="st0" x1="184.3" y1="161.5" x2="184.8" y2="167.3"/>
<line class="st0" x1="175" y1="163.3" x2="184.3" y2="161.5"/>
<line class="st0" x1="175" y1="169.2" x2="184.8" y2="167.3"/>
<line class="st0" x1="184.3" y1="175.4" x2="184.8" y2="167.3"/>
<line class="st0" x1="175.7" y1="175.5" x2="175" y2="169.2"/>
<line class="st0" x1="184.3" y1="175.4" x2="175.7" y2="175.5"/>
<line class="st0" x1="184.8" y1="167.3" x2="175.7" y2="175.5"/>
<line class="st0" x1="174.9" y1="156.8" x2="185.1" y2="150.3"/>
</svg>
