<?xml version="1.0" encoding="utf-8"?>
<!-- Generator: Adobe Illustrator 21.1.0, SVG Export Plug-In . SVG Version: 6.00 Build 0)  -->
<svg version="1.1" id="Layer_1" xmlns="http://www.w3.org/2000/svg" xmlns:xlink="http://www.w3.org/1999/xlink" x="0px" y="0px"
	 viewBox="0 0 595.3 841.9" style="enable-background:new 0 0 595.3 841.9;" xml:space="preserve">
<style type="text/css">
	.st0{fill:none;stroke:#231F20;stroke-miterlimit:10;}
</style>
<line class="st0" x1="283.9" y1="404.2" x2="284.2" y2="409.3"/>
<line class="st0" x1="292.4" y1="404.6" x2="283.9" y2="404.2"/>
<line class="st0" x1="292.3" y1="410.9" x2="292.4" y2="404.6"/>
<line class="st0" x1="291.8" y1="417.3" x2="292.3" y2="410.9"/>
<line class="st0" x1="296.9" y1="424.3" x2="291.8" y2="417.3"/>
<line class="st0" x1="291.7" y1="424.2" x2="291.8" y2="417.3"/>
<line class="st0" x1="292.3" y1="429.8" x2="291.7" y2="424.2"/>
<line class="st0" x1="292.3" y1="436.1" x2="292.3" y2="429.8"/>
<line class="st0" x1="283.8" y1="436.4" x2="292.3" y2="436.1"/>
<line class="st0" x1="284.1" y1="414.8" x2="284.2" y2="409.3"/>
<line class="st0" x1="284.1" y1="420.8" x2="284.1" y2="414.8"/>
<line class="st0" x1="283.5" y1="425.6" x2="284.1" y2="420.8"/>
<line class="st0" x1="283.7" y1="431.2" x2="283.5" y2="425.6"/>
<line class="st0" x1="283.8" y1="436.4" x2="283.7" y2="431.2"/>
<line class="st0" x1="292.3" y1="436.1" x2="283.7" y2="431.2"/>
<line class="st0" x1="292.3" y1="429.8" x2="283.7" y2="431.2"/>
<line class="st0" x1="283.5" y1="425.6" x2="291.7" y2="424.2"/>
<line class="st0" x1="284.1" y1="420.8" x2="291.8" y2="417.3"/>
<line class="st0" x1="284.1" y1="414.8" x2="292.3" y2="410.9"/>
<line class="st0" x1="284.2" y1="409.3" x2="292.3" y2="410.9"/>
<line class="st0" x1="298.2" y1="412" x2="292.4" y2="404.6"/>
<line class="st0" x1="291.8" y1="417.3" x2="298.2" y2="412"/>
<line class="st0" x1="300.6" y1="418.1" x2="298.2" y2="412"/>
<line class="st0" x1="304" y1="423.9" x2="300.6" y2="418.1"/>
<line class="st0" x1="304.1" y1="415.4" x2="304" y2="423.9"/>
<line class="st0" x1="303.1" y1="410.1" x2="304.1" y2="415.4"/>
<line class="st0" x1="302.7" y1="404.4" x2="303.1" y2="410.1"/>
<line class="st0" x1="311.3" y1="404" x2="302.7" y2="404.4"/>
<line class="st0" x1="311.6" y1="409.7" x2="311.3" y2="404"/>
<line class="st0" x1="311.1" y1="415.8" x2="311.6" y2="409.7"/>
<line class="st0" x1="311.8" y1="423.9" x2="311.1" y2="415.8"/>
<line class="st0" x1="312.1" y1="429.1" x2="311.8" y2="423.9"/>
<line class="st0" x1="311.9" y1="436.1" x2="312.1" y2="429.1"/>
<line class="st0" x1="306.1" y1="435.8" x2="311.9" y2="436.1"/>
<line class="st0" x1="300.6" y1="436" x2="306.1" y2="435.8"/>
<line class="st0" x1="298.6" y1="430.5" x2="300.6" y2="436"/>
<line class="st0" x1="296.9" y1="424.3" x2="298.6" y2="430.5"/>
<line class="st0" x1="304" y1="423.9" x2="298.6" y2="430.5"/>
<line class="st0" x1="296.9" y1="424.3" x2="300.6" y2="418.1"/>
<line class="st0" x1="306.1" y1="429.8" x2="300.6" y2="436"/>
<line class="st0" x1="304" y1="423.9" x2="306.1" y2="429.8"/>
<line class="st0" x1="311.9" y1="436.1" x2="306.1" y2="429.8"/>
<line class="st0" x1="304.1" y1="415.4" x2="311.1" y2="415.8"/>
<line class="st0" x1="303.1" y1="410.1" x2="311.6" y2="409.7"/>
<line class="st0" x1="304" y1="423.9" x2="311.8" y2="423.9"/>
<line class="st0" x1="312.1" y1="429.1" x2="306.1" y2="429.8"/>
</svg>
