<?xml version="1.0" encoding="utf-8"?>
<!-- Generator: Adobe Illustrator 21.1.0, SVG Export Plug-In . SVG Version: 6.00 Build 0)  -->
<svg version="1.1" id="Layer_1" xmlns="http://www.w3.org/2000/svg" xmlns:xlink="http://www.w3.org/1999/xlink" x="0px" y="0px"
	 viewBox="0 0 595.3 841.9" style="enable-background:new 0 0 595.3 841.9;" xml:space="preserve">
<style type="text/css">
	.st0{fill:none;stroke:#231F20;stroke-miterlimit:10;}
</style>
<line class="st0" x1="292.4" y1="410.1" x2="301.7" y2="410.2"/>
<line class="st0" x1="300.8" y1="418.6" x2="301.7" y2="410.2"/>
<line class="st0" x1="294.1" y1="417.9" x2="292.4" y2="410.1"/>
<line class="st0" x1="289.4" y1="421.6" x2="294.1" y2="417.9"/>
<line class="st0" x1="289.9" y1="427.6" x2="289.4" y2="421.6"/>
<line class="st0" x1="290.4" y1="433.4" x2="289.9" y2="427.6"/>
<line class="st0" x1="297.4" y1="436.4" x2="290.4" y2="433.4"/>
<line class="st0" x1="302.5" y1="431.5" x2="297.4" y2="436.4"/>
<line class="st0" x1="303.1" y1="425.3" x2="302.5" y2="431.5"/>
<line class="st0" x1="300.8" y1="418.6" x2="294.1" y2="417.9"/>
<line class="st0" x1="303.1" y1="425.3" x2="300.8" y2="418.6"/>
<line class="st0" x1="307.6" y1="414" x2="301.7" y2="410.2"/>
<line class="st0" x1="310.7" y1="419.8" x2="307.6" y2="414"/>
<line class="st0" x1="312.4" y1="428.4" x2="310.7" y2="419.8"/>
<line class="st0" x1="309.5" y1="436.6" x2="312.4" y2="428.4"/>
<line class="st0" x1="303.2" y1="441.9" x2="309.5" y2="436.6"/>
<line class="st0" x1="296" y1="443.5" x2="303.2" y2="441.9"/>
<line class="st0" x1="289.4" y1="442.7" x2="296" y2="443.5"/>
<line class="st0" x1="285.2" y1="439.3" x2="289.4" y2="442.7"/>
<line class="st0" x1="290.4" y1="433.4" x2="289.4" y2="442.7"/>
<line class="st0" x1="297.4" y1="436.4" x2="303.2" y2="441.9"/>
<line class="st0" x1="302.5" y1="431.5" x2="303.2" y2="441.9"/>
<line class="st0" x1="280.6" y1="427.3" x2="289.4" y2="421.6"/>
<line class="st0" x1="281" y1="418.3" x2="289.4" y2="421.6"/>
<line class="st0" x1="285.2" y1="413" x2="292.4" y2="410.1"/>
<line class="st0" x1="289.4" y1="421.6" x2="285.2" y2="413"/>
<line class="st0" x1="281" y1="418.3" x2="285.2" y2="413"/>
<line class="st0" x1="280.6" y1="427.3" x2="281" y2="418.3"/>
<line class="st0" x1="281.7" y1="434.4" x2="280.6" y2="427.3"/>
<line class="st0" x1="290.4" y1="433.4" x2="281.7" y2="434.4"/>
<line class="st0" x1="285.2" y1="439.3" x2="281.7" y2="434.4"/>
<line class="st0" x1="303.1" y1="425.3" x2="312.4" y2="428.4"/>
<line class="st0" x1="309.5" y1="436.6" x2="302.5" y2="431.5"/>
<line class="st0" x1="303.1" y1="425.3" x2="310.7" y2="419.8"/>
<line class="st0" x1="300.8" y1="418.6" x2="307.6" y2="414"/>
<line class="st0" x1="290.4" y1="433.4" x2="280.6" y2="427.3"/>
<line class="st0" x1="296" y1="443.5" x2="297.4" y2="436.4"/>
</svg>
