<?xml version="1.0" encoding="utf-8"?>
<!-- Generator: Adobe Illustrator 22.0.1, SVG Export Plug-In . SVG Version: 6.00 Build 0)  -->
<svg version="1.0" id="Layer_1" xmlns="http://www.w3.org/2000/svg" xmlns:xlink="http://www.w3.org/1999/xlink" x="0px" y="0px"
	 viewBox="0 0 595.3 841.9" style="enable-background:new 0 0 595.3 841.9;" xml:space="preserve">
<style type="text/css">
	.st0{fill:none;stroke:#231F20;stroke-miterlimit:10;}
</style>
<line class="st0" x1="284.6" y1="404.4" x2="294" y2="404.3"/>
<line class="st0" x1="294.5" y1="410.8" x2="294" y2="404.3"/>
<line class="st0" x1="300.9" y1="404.4" x2="294.5" y2="410.8"/>
<line class="st0" x1="294" y1="404.3" x2="300.9" y2="404.4"/>
<line class="st0" x1="306.8" y1="406.5" x2="300.9" y2="404.4"/>
<line class="st0" x1="302.3" y1="412.7" x2="306.8" y2="406.5"/>
<line class="st0" x1="294.5" y1="410.8" x2="302.3" y2="412.7"/>
<line class="st0" x1="311.1" y1="410.7" x2="306.8" y2="406.5"/>
<line class="st0" x1="302.3" y1="412.7" x2="311.1" y2="410.7"/>
<line class="st0" x1="311.3" y1="417.1" x2="311.1" y2="410.7"/>
<line class="st0" x1="302.3" y1="412.7" x2="311.3" y2="417.1"/>
<line class="st0" x1="307.1" y1="424" x2="311.3" y2="417.1"/>
<line class="st0" x1="302.6" y1="418" x2="307.1" y2="424"/>
<line class="st0" x1="302.3" y1="412.7" x2="302.6" y2="418"/>
<line class="st0" x1="311.3" y1="417.1" x2="302.6" y2="418"/>
<line class="st0" x1="294.2" y1="419.9" x2="298.7" y2="420.1"/>
<line class="st0" x1="302.6" y1="418" x2="298.7" y2="420.1"/>
<line class="st0" x1="299.3" y1="426.6" x2="298.7" y2="420.1"/>
<line class="st0" x1="294" y1="426.2" x2="294.2" y2="419.9"/>
<line class="st0" x1="299.3" y1="426.6" x2="294" y2="426.2"/>
<line class="st0" x1="307.1" y1="424" x2="299.3" y2="426.6"/>
<line class="st0" x1="293.3" y1="414.9" x2="294.5" y2="410.8"/>
<line class="st0" x1="294.2" y1="419.9" x2="293.3" y2="414.9"/>
<line class="st0" x1="284.6" y1="414.9" x2="293.3" y2="414.9"/>
<line class="st0" x1="284.6" y1="409.2" x2="284.6" y2="404.4"/>
<line class="st0" x1="294.5" y1="410.8" x2="284.6" y2="409.2"/>
<line class="st0" x1="294" y1="404.3" x2="284.6" y2="409.2"/>
<line class="st0" x1="284.6" y1="414.9" x2="284.6" y2="409.2"/>
<line class="st0" x1="284.6" y1="421" x2="284.6" y2="414.9"/>
<line class="st0" x1="294.2" y1="419.9" x2="284.6" y2="421"/>
<line class="st0" x1="294" y1="426.2" x2="284.6" y2="421"/>
<line class="st0" x1="284.9" y1="428.7" x2="294" y2="426.2"/>
<line class="st0" x1="284.6" y1="421" x2="284.9" y2="428.7"/>
<line class="st0" x1="284.7" y1="436.2" x2="284.9" y2="428.7"/>
<line class="st0" x1="294" y1="426.2" x2="293.9" y2="435.7"/>
<line class="st0" x1="284.7" y1="436.2" x2="293.9" y2="435.7"/>
<line class="st0" x1="284.9" y1="428.7" x2="293.9" y2="435.7"/>
</svg>
