<?xml version="1.0" encoding="utf-8"?>
<!-- Generator: Adobe Illustrator 22.0.1, SVG Export Plug-In . SVG Version: 6.00 Build 0)  -->
<svg version="1.0" id="Layer_1" xmlns="http://www.w3.org/2000/svg" xmlns:xlink="http://www.w3.org/1999/xlink" x="0px" y="0px"
	 viewBox="0 0 595.3 841.9" style="enable-background:new 0 0 595.3 841.9;" xml:space="preserve">
<style type="text/css">
	.st0{fill:none;stroke:#231F20;stroke-miterlimit:10;}
</style>
<line class="st0" x1="294.4" y1="388.3" x2="300.7" y2="388.3"/>
<line class="st0" x1="308.5" y1="387.7" x2="300.7" y2="388.3"/>
<line class="st0" x1="316.9" y1="390.3" x2="308.5" y2="387.7"/>
<line class="st0" x1="321" y1="396.2" x2="316.9" y2="390.3"/>
<line class="st0" x1="320.5" y1="402.5" x2="321" y2="396.2"/>
<line class="st0" x1="316.2" y1="407.5" x2="320.5" y2="402.5"/>
<line class="st0" x1="319.3" y1="413.2" x2="316.2" y2="407.5"/>
<line class="st0" x1="322.4" y1="419.3" x2="319.3" y2="413.2"/>
<line class="st0" x1="313.3" y1="419.8" x2="322.4" y2="419.3"/>
<line class="st0" x1="310.1" y1="414.3" x2="313.3" y2="419.8"/>
<line class="st0" x1="307.8" y1="408.8" x2="310.1" y2="414.3"/>
<line class="st0" x1="302.4" y1="409.4" x2="307.8" y2="408.8"/>
<line class="st0" x1="303.6" y1="415.1" x2="302.4" y2="409.4"/>
<line class="st0" x1="304" y1="421.4" x2="303.6" y2="415.1"/>
<line class="st0" x1="294.8" y1="421.9" x2="304" y2="421.4"/>
<line class="st0" x1="294.6" y1="417" x2="294.8" y2="421.9"/>
<line class="st0" x1="294.6" y1="405" x2="294.6" y2="412.3"/>
<line class="st0" x1="294.6" y1="396.2" x2="294.6" y2="405"/>
<line class="st0" x1="294.4" y1="388.3" x2="294.6" y2="396.2"/>
<line class="st0" x1="303" y1="395.2" x2="294.6" y2="396.2"/>
<line class="st0" x1="303" y1="402.1" x2="294.6" y2="405"/>
<line class="st0" x1="302.4" y1="409.4" x2="294.6" y2="412.3"/>
<line class="st0" x1="303" y1="402.1" x2="302.4" y2="409.4"/>
<line class="st0" x1="303" y1="395.2" x2="303" y2="402.1"/>
<line class="st0" x1="309.4" y1="394.3" x2="303" y2="395.2"/>
<line class="st0" x1="312.7" y1="400.6" x2="309.4" y2="394.3"/>
<line class="st0" x1="303" y1="402.1" x2="312.7" y2="400.6"/>
<line class="st0" x1="316.2" y1="407.5" x2="312.7" y2="400.6"/>
<line class="st0" x1="321" y1="396.2" x2="312.7" y2="400.6"/>
<line class="st0" x1="316.9" y1="390.3" x2="309.4" y2="394.3"/>
<line class="st0" x1="308.5" y1="387.7" x2="309.4" y2="394.3"/>
<line class="st0" x1="303" y1="395.2" x2="300.7" y2="388.3"/>
<line class="st0" x1="307.8" y1="408.8" x2="316.2" y2="407.5"/>
<line class="st0" x1="312.7" y1="400.6" x2="307.8" y2="408.8"/>
<line class="st0" x1="303" y1="402.1" x2="307.8" y2="408.8"/>
<line class="st0" x1="310.1" y1="414.3" x2="319.3" y2="413.2"/>
<line class="st0" x1="303.6" y1="415.1" x2="294.6" y2="417"/>
<line class="st0" x1="320.5" y1="402.5" x2="312.7" y2="400.6"/>
<line class="st0" x1="294.6" y1="417" x2="294.6" y2="412.3"/>
<line class="st0" x1="309.4" y1="394.3" x2="321" y2="396.2"/>
</svg>
