<?xml version="1.0" encoding="utf-8"?>
<!-- Generator: Adobe Illustrator 22.0.1, SVG Export Plug-In . SVG Version: 6.00 Build 0)  -->
<svg version="1.0" id="Layer_1" xmlns="http://www.w3.org/2000/svg" xmlns:xlink="http://www.w3.org/1999/xlink" x="0px" y="0px"
	 viewBox="0 0 595.3 841.9" style="enable-background:new 0 0 595.3 841.9;" xml:space="preserve">
<style type="text/css">
	.st0{fill:none;stroke:#231F20;stroke-miterlimit:10;}
</style>
<line class="st0" x1="237.5" y1="137.6" x2="241.1" y2="131.4"/>
<line class="st0" x1="228.7" y1="136.8" x2="237.5" y2="137.6"/>
<line class="st0" x1="233.3" y1="127.8" x2="228.7" y2="136.8"/>
<line class="st0" x1="238.4" y1="120.9" x2="233.3" y2="127.8"/>
<line class="st0" x1="234.5" y1="114.2" x2="238.4" y2="120.9"/>
<line class="st0" x1="229.8" y1="105.6" x2="234.5" y2="114.2"/>
<line class="st0" x1="238.9" y1="104.9" x2="229.8" y2="105.6"/>
<line class="st0" x1="241.6" y1="109.1" x2="238.9" y2="104.9"/>
<line class="st0" x1="244.3" y1="114.7" x2="241.6" y2="109.1"/>
<line class="st0" x1="248.6" y1="105.5" x2="244.3" y2="114.7"/>
<line class="st0" x1="258.1" y1="105.5" x2="248.6" y2="105.5"/>
<line class="st0" x1="252.3" y1="114.4" x2="258.1" y2="105.5"/>
<line class="st0" x1="249.2" y1="120.6" x2="252.3" y2="114.4"/>
<line class="st0" x1="244.3" y1="114.7" x2="252.3" y2="114.4"/>
<line class="st0" x1="254" y1="127.9" x2="249.2" y2="120.6"/>
<line class="st0" x1="243.8" y1="126.5" x2="249.2" y2="120.6"/>
<line class="st0" x1="241.1" y1="131.4" x2="243.8" y2="126.5"/>
<line class="st0" x1="238.4" y1="120.9" x2="243.8" y2="126.5"/>
<line class="st0" x1="233.3" y1="127.8" x2="241.1" y2="131.4"/>
<line class="st0" x1="238.4" y1="120.9" x2="244.3" y2="114.7"/>
<line class="st0" x1="254" y1="127.9" x2="258.1" y2="136.6"/>
<line class="st0" x1="249.1" y1="136.7" x2="258.1" y2="136.6"/>
<line class="st0" x1="246.9" y1="132.3" x2="249.1" y2="136.7"/>
<line class="st0" x1="254" y1="127.9" x2="246.9" y2="132.3"/>
<line class="st0" x1="243.8" y1="126.5" x2="246.9" y2="132.3"/>
<line class="st0" x1="244.3" y1="114.7" x2="249.2" y2="120.6"/>
<line class="st0" x1="234.5" y1="114.2" x2="241.6" y2="109.1"/>
<line class="st0" x1="244.3" y1="114.7" x2="234.5" y2="114.2"/>
<line class="st0" x1="248.6" y1="105.5" x2="252.3" y2="114.4"/>
<line class="st0" x1="238.4" y1="120.9" x2="249.2" y2="120.6"/>
<line class="st0" x1="254" y1="127.9" x2="243.8" y2="126.5"/>
<line class="st0" x1="233.3" y1="127.8" x2="243.8" y2="126.5"/>
<line class="st0" x1="228.7" y1="136.8" x2="241.1" y2="131.4"/>
<line class="st0" x1="258.1" y1="136.6" x2="246.9" y2="132.3"/>
</svg>
