<?xml version="1.0" encoding="utf-8"?>
<!-- Generator: Adobe Illustrator 21.1.0, SVG Export Plug-In . SVG Version: 6.00 Build 0)  -->
<svg version="1.1" id="Layer_1" xmlns="http://www.w3.org/2000/svg" xmlns:xlink="http://www.w3.org/1999/xlink" x="0px" y="0px"
	 viewBox="0 0 595.3 841.9" style="enable-background:new 0 0 595.3 841.9;" xml:space="preserve">
<style type="text/css">
	.st0{fill:none;stroke:#EB2227;stroke-width:0.75;stroke-miterlimit:10;}
</style>
<line class="st0" x1="245.9" y1="380" x2="251" y2="377.4"/>
<line class="st0" x1="254.6" y1="374" x2="251" y2="377.4"/>
<line class="st0" x1="253.3" y1="379.3" x2="254.6" y2="374"/>
<line class="st0" x1="248.6" y1="382" x2="253.3" y2="379.3"/>
<line class="st0" x1="245.9" y1="380" x2="248.6" y2="382"/>
<line class="st0" x1="258" y1="376.4" x2="254.6" y2="374"/>
<line class="st0" x1="261.9" y1="372.2" x2="258" y2="376.4"/>
<line class="st0" x1="254.6" y1="374" x2="261.9" y2="372.2"/>
<line class="st0" x1="264.1" y1="375.7" x2="261.9" y2="372.2"/>
<line class="st0" x1="270.2" y1="373.4" x2="264.1" y2="375.7"/>
<line class="st0" x1="261.9" y1="372.2" x2="270.2" y2="373.4"/>
<line class="st0" x1="278.7" y1="377.2" x2="270.2" y2="373.4"/>
<line class="st0" x1="263" y1="380.6" x2="264.1" y2="375.7"/>
<line class="st0" x1="262.2" y1="387.7" x2="263" y2="380.6"/>
<line class="st0" x1="268.6" y1="378.9" x2="263" y2="380.6"/>
<line class="st0" x1="270.2" y1="373.4" x2="268.6" y2="378.9"/>
<line class="st0" x1="264.1" y1="375.7" x2="268.6" y2="378.9"/>
<line class="st0" x1="278.7" y1="377.2" x2="268.6" y2="378.9"/>
<line class="st0" x1="257.3" y1="384.5" x2="248.6" y2="382"/>
<line class="st0" x1="262.2" y1="387.7" x2="257.3" y2="384.5"/>
<line class="st0" x1="259.3" y1="381.5" x2="257.3" y2="384.5"/>
<line class="st0" x1="263" y1="380.6" x2="259.3" y2="381.5"/>
<line class="st0" x1="258" y1="376.4" x2="259.3" y2="381.5"/>
<line class="st0" x1="253.3" y1="379.3" x2="259.3" y2="381.5"/>
<line class="st0" x1="270" y1="385.2" x2="268.6" y2="378.9"/>
<line class="st0" x1="262.2" y1="387.7" x2="270" y2="385.2"/>
<line class="st0" x1="275.1" y1="382.5" x2="270" y2="385.2"/>
<line class="st0" x1="278.7" y1="377.2" x2="275.1" y2="382.5"/>
<line class="st0" x1="268.6" y1="378.9" x2="275.1" y2="382.5"/>
<line class="st0" x1="268.7" y1="392.5" x2="262.2" y2="387.7"/>
<line class="st0" x1="272" y1="388.5" x2="268.7" y2="392.5"/>
<line class="st0" x1="270" y1="385.2" x2="272" y2="388.5"/>
<line class="st0" x1="275.1" y1="382.5" x2="272" y2="388.5"/>
<line class="st0" x1="272.9" y1="397.5" x2="272" y2="388.5"/>
<line class="st0" x1="280.4" y1="390.1" x2="272" y2="388.5"/>
<line class="st0" x1="283.6" y1="385.2" x2="280.4" y2="390.1"/>
<line class="st0" x1="275.1" y1="382.5" x2="280.4" y2="390.1"/>
<line class="st0" x1="283.6" y1="385.2" x2="275.1" y2="382.5"/>
<line class="st0" x1="278.7" y1="377.2" x2="283.6" y2="385.2"/>
<line class="st0" x1="282.4" y1="398" x2="280.4" y2="390.1"/>
<line class="st0" x1="272.9" y1="397.5" x2="282.4" y2="398"/>
<line class="st0" x1="282.7" y1="408.8" x2="282.4" y2="398"/>
<line class="st0" x1="278.9" y1="403.4" x2="282.4" y2="398"/>
<line class="st0" x1="282.7" y1="408.8" x2="278.9" y2="403.4"/>
<line class="st0" x1="272.9" y1="397.5" x2="278.9" y2="403.4"/>
<line class="st0" x1="280.4" y1="390.1" x2="272.9" y2="397.5"/>
<line class="st0" x1="286.9" y1="392.6" x2="289.5" y2="385.9"/>
<line class="st0" x1="282.4" y1="398" x2="286.9" y2="392.6"/>
<line class="st0" x1="280.4" y1="390.1" x2="286.9" y2="392.6"/>
<line class="st0" x1="283.6" y1="385.2" x2="286.9" y2="392.6"/>
<line class="st0" x1="289.9" y1="399.5" x2="286.9" y2="392.6"/>
<line class="st0" x1="286.6" y1="404" x2="289.9" y2="399.5"/>
<line class="st0" x1="282.4" y1="398" x2="286.6" y2="404"/>
<line class="st0" x1="269.1" y1="396" x2="268.7" y2="392.5"/>
<line class="st0" x1="270.5" y1="400.4" x2="269.1" y2="396"/>
<line class="st0" x1="265.7" y1="398.2" x2="269.1" y2="396"/>
<line class="st0" x1="263.4" y1="393.5" x2="265.7" y2="398.2"/>
<line class="st0" x1="262.2" y1="387.7" x2="263.4" y2="393.5"/>
<line class="st0" x1="268.7" y1="392.5" x2="263.4" y2="393.5"/>
<line class="st0" x1="270.5" y1="400.4" x2="265.7" y2="398.2"/>
<line class="st0" x1="293.8" y1="383" x2="289.5" y2="385.9"/>
<line class="st0" x1="285.6" y1="380.8" x2="293.8" y2="383"/>
<line class="st0" x1="283.6" y1="385.2" x2="285.6" y2="380.8"/>
<line class="st0" x1="278.7" y1="377.2" x2="285.6" y2="380.8"/>
<line class="st0" x1="291.6" y1="390.7" x2="289.5" y2="385.9"/>
<line class="st0" x1="294.4" y1="387.5" x2="291.6" y2="390.7"/>
<line class="st0" x1="293.8" y1="383" x2="294.4" y2="387.5"/>
<line class="st0" x1="289.5" y1="385.9" x2="285.6" y2="380.8"/>
<line class="st0" x1="294.4" y1="387.5" x2="289.7" y2="385.9"/>
<line class="st0" x1="297.9" y1="387.1" x2="293.8" y2="383"/>
<line class="st0" x1="294.4" y1="387.5" x2="297.9" y2="387.1"/>
<line class="st0" x1="289.5" y1="385.9" x2="283.6" y2="385.2"/>
<line class="st0" x1="291.6" y1="390.7" x2="286.9" y2="392.6"/>
<line class="st0" x1="293.2" y1="395.5" x2="291.6" y2="390.7"/>
<line class="st0" x1="294.5" y1="403.4" x2="293.2" y2="395.5"/>
<line class="st0" x1="289.9" y1="399.5" x2="294.5" y2="403.4"/>
<line class="st0" x1="293.2" y1="395.5" x2="289.9" y2="399.5"/>
<line class="st0" x1="286.9" y1="392.6" x2="293.2" y2="395.5"/>
<line class="st0" x1="294.1" y1="409.7" x2="294.5" y2="403.4"/>
<line class="st0" x1="292.6" y1="417.4" x2="294.1" y2="409.7"/>
<line class="st0" x1="287.9" y1="418.8" x2="292.6" y2="417.4"/>
<line class="st0" x1="290" y1="409.3" x2="287.9" y2="418.8"/>
<line class="st0" x1="289.9" y1="399.5" x2="290" y2="409.3"/>
<line class="st0" x1="294.5" y1="403.4" x2="290" y2="409.3"/>
<line class="st0" x1="294.1" y1="409.7" x2="290" y2="409.3"/>
<line class="st0" x1="279.2" y1="426.7" x2="282.4" y2="421.1"/>
<line class="st0" x1="278.5" y1="430.7" x2="279.2" y2="426.7"/>
<line class="st0" x1="271.4" y1="428.2" x2="278.5" y2="430.7"/>
<line class="st0" x1="275.1" y1="432.6" x2="278.5" y2="430.7"/>
<line class="st0" x1="271.4" y1="428.2" x2="275.1" y2="432.6"/>
<line class="st0" x1="266.5" y1="428.2" x2="271.4" y2="428.2"/>
<line class="st0" x1="266.5" y1="432.4" x2="271.4" y2="428.2"/>
<line class="st0" x1="266.5" y1="428.2" x2="266.5" y2="432.4"/>
<line class="st0" x1="262.4" y1="431.4" x2="266.5" y2="428.2"/>
<line class="st0" x1="266.5" y1="432.4" x2="262.4" y2="431.4"/>
<line class="st0" x1="271.4" y1="433.5" x2="275.1" y2="432.6"/>
<line class="st0" x1="271.4" y1="428.2" x2="271.4" y2="433.5"/>
<line class="st0" x1="266.5" y1="432.4" x2="271.4" y2="433.5"/>
<line class="st0" x1="275.7" y1="436.9" x2="275.1" y2="432.6"/>
<line class="st0" x1="271.4" y1="433.5" x2="275.7" y2="436.9"/>
<line class="st0" x1="278.6" y1="435.7" x2="278.5" y2="430.7"/>
<line class="st0" x1="275.7" y1="436.9" x2="278.6" y2="435.7"/>
<line class="st0" x1="279.2" y1="426.7" x2="283.5" y2="430.3"/>
<line class="st0" x1="282.2" y1="435.2" x2="283.5" y2="430.3"/>
<line class="st0" x1="278.5" y1="430.7" x2="282.2" y2="435.2"/>
<line class="st0" x1="278.6" y1="435.7" x2="282.2" y2="435.2"/>
<line class="st0" x1="283.1" y1="440" x2="282.2" y2="435.2"/>
<line class="st0" x1="278.6" y1="435.7" x2="278.2" y2="441"/>
<line class="st0" x1="282.6" y1="444.8" x2="283.1" y2="440"/>
<line class="st0" x1="278.2" y1="441" x2="280.6" y2="449.1"/>
<line class="st0" x1="282.6" y1="444.8" x2="280.6" y2="449.1"/>
<line class="st0" x1="278.2" y1="441" x2="282.6" y2="444.8"/>
<line class="st0" x1="283.1" y1="440" x2="278.2" y2="441"/>
<line class="st0" x1="289.3" y1="423.5" x2="283.5" y2="430.3"/>
<line class="st0" x1="292.6" y1="417.4" x2="289.3" y2="423.5"/>
<line class="st0" x1="290" y1="409.3" x2="292.6" y2="417.4"/>
<line class="st0" x1="286.6" y1="404" x2="290" y2="409.3"/>
<line class="st0" x1="285.7" y1="423.2" x2="287.9" y2="418.8"/>
<line class="st0" x1="282.4" y1="421.1" x2="286.2" y2="413.5"/>
<line class="st0" x1="287.9" y1="418.8" x2="282.4" y2="421.1"/>
<line class="st0" x1="279.2" y1="426.7" x2="285.7" y2="423.2"/>
<line class="st0" x1="283.5" y1="430.3" x2="285.7" y2="423.2"/>
<line class="st0" x1="289.3" y1="423.5" x2="285.7" y2="423.2"/>
<line class="st0" x1="282.7" y1="408.8" x2="286.6" y2="404"/>
<line class="st0" x1="289.9" y1="399.5" x2="282.4" y2="398"/>
<line class="st0" x1="268.7" y1="392.5" x2="272.9" y2="397.5"/>
<line class="st0" x1="282.4" y1="421.1" x2="282.7" y2="408.8"/>
<line class="st0" x1="286.2" y1="413.5" x2="282.7" y2="408.8"/>
<line class="st0" x1="290" y1="409.3" x2="286.2" y2="413.5"/>
</svg>
