<?xml version="1.0" encoding="utf-8"?>
<!-- Generator: Adobe Illustrator 21.1.0, SVG Export Plug-In . SVG Version: 6.00 Build 0)  -->
<svg version="1.1" id="Layer_1" xmlns="http://www.w3.org/2000/svg" xmlns:xlink="http://www.w3.org/1999/xlink" x="0px" y="0px"
	 viewBox="0 0 595.3 841.9" style="enable-background:new 0 0 595.3 841.9;" xml:space="preserve">
<style type="text/css">
	.st0{fill:none;stroke:#EB2227;stroke-width:0.75;stroke-miterlimit:10;}
	.st1{fill:none;stroke:#EB2227;stroke-miterlimit:10;}
</style>
<line class="st0" x1="310.5" y1="394.9" x2="314" y2="390.7"/>
<line class="st0" x1="324.5" y1="384.9" x2="314" y2="390.7"/>
<line class="st0" x1="323.4" y1="396.6" x2="324.5" y2="384.9"/>
<line class="st0" x1="333.9" y1="382.9" x2="323.4" y2="396.6"/>
<line class="st0" x1="331.4" y1="396.7" x2="333.9" y2="382.9"/>
<line class="st0" x1="323.4" y1="396.6" x2="331.4" y2="396.7"/>
<line class="st0" x1="325.8" y1="413.7" x2="331.4" y2="396.7"/>
<line class="st0" x1="323.4" y1="396.6" x2="325.8" y2="413.7"/>
<line class="st0" x1="313.5" y1="411.1" x2="323.4" y2="396.6"/>
<line class="st0" x1="306.4" y1="400.3" x2="313.5" y2="411.1"/>
<line class="st0" x1="310.5" y1="394.9" x2="306.4" y2="400.3"/>
<line class="st0" x1="323.4" y1="396.6" x2="306.4" y2="400.3"/>
<line class="st0" x1="314" y1="390.7" x2="323.4" y2="396.6"/>
<line class="st0" x1="333.9" y1="382.9" x2="324.5" y2="384.9"/>
<line class="st0" x1="297.6" y1="391.1" x2="306.4" y2="400.3"/>
<line class="st0" x1="306.4" y1="400.3" x2="297.6" y2="410.1"/>
<line class="st0" x1="306.3" y1="423.6" x2="297.6" y2="410.1"/>
<line class="st0" x1="304.4" y1="429.1" x2="306.3" y2="423.6"/>
<line class="st0" x1="309.9" y1="429.5" x2="313.2" y2="427.6"/>
<line class="st0" x1="315.7" y1="424.6" x2="311.6" y2="422"/>
<line class="st0" x1="304.4" y1="429.1" x2="309.9" y2="429.5"/>
<line class="st0" x1="315.7" y1="424.6" x2="313.2" y2="427.6"/>
<line class="st0" x1="311.6" y1="422" x2="306.3" y2="423.6"/>
<line class="st0" x1="315.7" y1="424.6" x2="331.9" y2="432.4"/>
<line class="st0" x1="325.8" y1="413.7" x2="331.9" y2="432.4"/>
<line class="st0" x1="313.5" y1="411.1" x2="325.8" y2="413.7"/>
<line class="st0" x1="331.9" y1="432.4" x2="313.5" y2="411.1"/>
<line class="st0" x1="307.6" y1="440.1" x2="304.4" y2="429.1"/>
<line class="st0" x1="301" y1="447.7" x2="307.6" y2="440.1"/>
<line class="st0" x1="304.3" y1="454.4" x2="312.3" y2="449.4"/>
<line class="st0" x1="307.6" y1="440.1" x2="312.3" y2="449.4"/>
<line class="st0" x1="309.9" y1="429.5" x2="317.1" y2="445.5"/>
<line class="st0" x1="307.6" y1="440.1" x2="317.1" y2="445.5"/>
<line class="st0" x1="312.3" y1="449.4" x2="317.1" y2="445.5"/>
<line class="st0" x1="331.9" y1="432.4" x2="317.1" y2="445.5"/>
<line class="st0" x1="313.5" y1="411.1" x2="297.6" y2="410.1"/>
<line class="st0" x1="306.3" y1="423.6" x2="297.6" y2="428.5"/>
<line class="st0" x1="304.4" y1="429.1" x2="297.6" y2="428.5"/>
<line class="st0" x1="307.6" y1="440.1" x2="297.6" y2="441.8"/>
<line class="st1" x1="297.6" y1="391.1" x2="310.5" y2="394.9"/>
<line class="st1" x1="304.3" y1="454.4" x2="297.6" y2="455.4"/>
<line class="st0" x1="284.7" y1="394.9" x2="281.2" y2="390.7"/>
<line class="st0" x1="270.7" y1="384.9" x2="281.2" y2="390.7"/>
<line class="st0" x1="271.8" y1="396.6" x2="270.7" y2="384.9"/>
<line class="st0" x1="261.3" y1="382.9" x2="271.8" y2="396.6"/>
<line class="st0" x1="263.8" y1="396.7" x2="261.3" y2="382.9"/>
<line class="st0" x1="271.8" y1="396.6" x2="263.8" y2="396.7"/>
<line class="st0" x1="269.3" y1="413.7" x2="263.8" y2="396.7"/>
<line class="st0" x1="271.8" y1="396.6" x2="269.3" y2="413.7"/>
<line class="st0" x1="281.7" y1="411.1" x2="271.8" y2="396.6"/>
<line class="st0" x1="288.8" y1="400.3" x2="281.7" y2="411.1"/>
<line class="st0" x1="284.7" y1="394.9" x2="288.8" y2="400.3"/>
<line class="st0" x1="271.8" y1="396.6" x2="288.8" y2="400.3"/>
<line class="st0" x1="281.2" y1="390.7" x2="271.8" y2="396.6"/>
<line class="st0" x1="261.3" y1="382.9" x2="270.7" y2="384.9"/>
<line class="st0" x1="297.6" y1="391.1" x2="288.8" y2="400.3"/>
<line class="st0" x1="288.8" y1="400.3" x2="297.6" y2="410.1"/>
<line class="st0" x1="288.8" y1="423.6" x2="297.6" y2="410.1"/>
<line class="st0" x1="290.8" y1="429.1" x2="288.8" y2="423.6"/>
<line class="st0" x1="285.3" y1="429.5" x2="282" y2="427.6"/>
<line class="st0" x1="279.5" y1="424.6" x2="283.6" y2="422"/>
<line class="st0" x1="290.8" y1="429.1" x2="285.3" y2="429.5"/>
<line class="st0" x1="279.5" y1="424.6" x2="282" y2="427.6"/>
<line class="st0" x1="283.6" y1="422" x2="288.8" y2="423.6"/>
<line class="st0" x1="279.5" y1="424.6" x2="263.3" y2="432.4"/>
<line class="st0" x1="269.3" y1="413.7" x2="263.3" y2="432.4"/>
<line class="st0" x1="281.7" y1="411.1" x2="269.3" y2="413.7"/>
<line class="st0" x1="263.3" y1="432.4" x2="281.7" y2="411.1"/>
<line class="st0" x1="287.6" y1="440.1" x2="290.8" y2="429.1"/>
<line class="st0" x1="294.2" y1="447.7" x2="287.6" y2="440.1"/>
<line class="st0" x1="290.9" y1="454.4" x2="282.9" y2="449.4"/>
<line class="st0" x1="287.6" y1="440.1" x2="282.9" y2="449.4"/>
<line class="st0" x1="285.3" y1="429.5" x2="278.1" y2="445.5"/>
<line class="st0" x1="287.6" y1="440.1" x2="278.1" y2="445.5"/>
<line class="st0" x1="282.9" y1="449.4" x2="278.1" y2="445.5"/>
<line class="st0" x1="263.3" y1="432.4" x2="278.1" y2="445.5"/>
<line class="st0" x1="281.7" y1="411.1" x2="297.6" y2="410.1"/>
<line class="st0" x1="288.8" y1="423.6" x2="297.6" y2="428.5"/>
<line class="st0" x1="290.8" y1="429.1" x2="297.6" y2="428.5"/>
<line class="st0" x1="287.6" y1="440.1" x2="297.6" y2="441.8"/>
<line class="st1" x1="297.6" y1="391.1" x2="284.7" y2="394.9"/>
<line class="st1" x1="290.9" y1="454.4" x2="297.6" y2="455.4"/>
<line class="st0" x1="294.2" y1="447.7" x2="301" y2="447.7"/>
<line class="st0" x1="304.3" y1="454.4" x2="301" y2="447.7"/>
<line class="st0" x1="290.9" y1="454.4" x2="294.2" y2="447.7"/>
</svg>
