<?xml version="1.0" encoding="utf-8"?>
<!-- Generator: Adobe Illustrator 21.1.0, SVG Export Plug-In . SVG Version: 6.00 Build 0)  -->
<svg version="1.1" id="Layer_1" xmlns="http://www.w3.org/2000/svg" xmlns:xlink="http://www.w3.org/1999/xlink" x="0px" y="0px"
	 viewBox="0 0 595.3 841.9" style="enable-background:new 0 0 595.3 841.9;" xml:space="preserve">
<style type="text/css">
	.st0{fill:none;stroke:#EB2227;stroke-width:0.5;stroke-miterlimit:10;}
</style>
<line class="st0" x1="310" y1="397.6" x2="318.4" y2="388.5"/>
<line class="st0" x1="328.6" y1="383.9" x2="318.4" y2="388.5"/>
<line class="st0" x1="332.2" y1="390.5" x2="328.6" y2="383.9"/>
<line class="st0" x1="319.2" y1="395.4" x2="328.6" y2="383.9"/>
<line class="st0" x1="318.6" y1="408" x2="319.2" y2="395.4"/>
<line class="st0" x1="310" y1="397.6" x2="318.6" y2="408"/>
<line class="st0" x1="330.4" y1="403.6" x2="332.2" y2="390.5"/>
<line class="st0" x1="325.5" y1="410.2" x2="330.4" y2="403.6"/>
<line class="st0" x1="318.6" y1="408" x2="325.5" y2="410.2"/>
<line class="st0" x1="322.4" y1="419.8" x2="318.6" y2="408"/>
<line class="st0" x1="321.7" y1="430.6" x2="330" y2="425"/>
<line class="st0" x1="326.7" y1="442.5" x2="330" y2="425"/>
<line class="st0" x1="322.4" y1="419.8" x2="321.7" y2="430.6"/>
<line class="st0" x1="326.7" y1="442.5" x2="321.7" y2="430.6"/>
<line class="st0" x1="318.5" y1="452.8" x2="326.7" y2="442.5"/>
<line class="st0" x1="314.5" y1="446.3" x2="318.5" y2="452.8"/>
<line class="st0" x1="312.8" y1="436.1" x2="321.7" y2="430.6"/>
<line class="st0" x1="326.7" y1="442.5" x2="312.8" y2="436.1"/>
<line class="st0" x1="314.5" y1="446.3" x2="312.8" y2="436.1"/>
<line class="st0" x1="307.7" y1="436.1" x2="312.8" y2="436.1"/>
<line class="st0" x1="306.7" y1="442" x2="307.7" y2="436.1"/>
<line class="st0" x1="307.4" y1="454.5" x2="314.5" y2="446.3"/>
<line class="st0" x1="318.5" y1="452.8" x2="307.4" y2="454.5"/>
<line class="st0" x1="303.5" y1="431.5" x2="307.7" y2="436.1"/>
<line class="st0" x1="296.8" y1="412.4" x2="310.7" y2="416.2"/>
<line class="st0" x1="310.7" y1="416.2" x2="322.4" y2="419.8"/>
<line class="st0" x1="322.4" y1="419.8" x2="310" y2="420.8"/>
<line class="st0" x1="307.9" y1="426" x2="310" y2="420.8"/>
<line class="st0" x1="303.5" y1="431.5" x2="307.9" y2="426"/>
<line class="st0" x1="303.2" y1="421.8" x2="303.5" y2="431.5"/>
<line class="st0" x1="310.7" y1="416.2" x2="303.2" y2="421.8"/>
<line class="st0" x1="307.9" y1="426" x2="312.8" y2="436.1"/>
<line class="st0" x1="314.8" y1="424.5" x2="307.9" y2="426"/>
<line class="st0" x1="322.4" y1="419.8" x2="314.8" y2="424.5"/>
<line class="st0" x1="307.1" y1="406.7" x2="299.3" y2="407.2"/>
<line class="st0" x1="301.7" y1="400" x2="299.3" y2="407.2"/>
<line class="st0" x1="310" y1="397.6" x2="307.1" y2="406.7"/>
<line class="st0" x1="318.6" y1="408" x2="307.1" y2="406.7"/>
<line class="st0" x1="310.7" y1="416.2" x2="307.1" y2="406.7"/>
<line class="st0" x1="296.8" y1="412.4" x2="299.3" y2="407.2"/>
<line class="st0" x1="310" y1="397.6" x2="301.7" y2="400"/>
<line class="st0" x1="299.8" y1="453" x2="307.4" y2="454.5"/>
<line class="st0" x1="299.8" y1="458.7" x2="307.4" y2="454.5"/>
<line class="st0" x1="306.7" y1="442" x2="301.8" y2="437.3"/>
<line class="st0" x1="300.9" y1="447.4" x2="306.7" y2="442"/>
<line class="st0" x1="300.3" y1="442.1" x2="300.9" y2="447.4"/>
<line class="st0" x1="306.7" y1="442" x2="300.3" y2="442.1"/>
<line class="st0" x1="301.7" y1="400" x2="296.8" y2="394.7"/>
<line class="st0" x1="325.5" y1="410.2" x2="322.4" y2="419.8"/>
<line class="st0" x1="330" y1="425" x2="322.4" y2="419.8"/>
<line class="st0" x1="327.5" y1="412.5" x2="330" y2="425"/>
<line class="st0" x1="330.4" y1="403.6" x2="327.5" y2="412.5"/>
<line class="st0" x1="326.7" y1="442.5" x2="314.5" y2="446.3"/>
<line class="st0" x1="283.7" y1="397.6" x2="275.3" y2="388.5"/>
<line class="st0" x1="265" y1="383.9" x2="275.3" y2="388.5"/>
<line class="st0" x1="261.4" y1="390.5" x2="265" y2="383.9"/>
<line class="st0" x1="274.5" y1="395.4" x2="265" y2="383.9"/>
<line class="st0" x1="275.1" y1="408" x2="274.5" y2="395.4"/>
<line class="st0" x1="283.7" y1="397.6" x2="275.1" y2="408"/>
<line class="st0" x1="263.2" y1="403.6" x2="261.4" y2="390.5"/>
<line class="st0" x1="268.2" y1="410.2" x2="263.2" y2="403.6"/>
<line class="st0" x1="275.1" y1="408" x2="268.2" y2="410.2"/>
<line class="st0" x1="271.3" y1="419.8" x2="275.1" y2="408"/>
<line class="st0" x1="271.9" y1="430.6" x2="263.7" y2="425"/>
<line class="st0" x1="267" y1="442.5" x2="263.7" y2="425"/>
<line class="st0" x1="271.3" y1="419.8" x2="271.9" y2="430.6"/>
<line class="st0" x1="267" y1="442.5" x2="271.9" y2="430.6"/>
<line class="st0" x1="275.2" y1="452.8" x2="267" y2="442.5"/>
<line class="st0" x1="279.2" y1="446.3" x2="275.2" y2="452.8"/>
<line class="st0" x1="280.8" y1="436.1" x2="271.9" y2="430.6"/>
<line class="st0" x1="267" y1="442.5" x2="280.8" y2="436.1"/>
<line class="st0" x1="279.2" y1="446.3" x2="280.8" y2="436.1"/>
<line class="st0" x1="286" y1="436.1" x2="280.8" y2="436.1"/>
<line class="st0" x1="286.9" y1="442" x2="286" y2="436.1"/>
<line class="st0" x1="286.2" y1="454.5" x2="279.2" y2="446.3"/>
<line class="st0" x1="275.2" y1="452.8" x2="286.2" y2="454.5"/>
<line class="st0" x1="290.2" y1="431.5" x2="286" y2="436.1"/>
<line class="st0" x1="296.8" y1="412.4" x2="283" y2="416.2"/>
<line class="st0" x1="283" y1="416.2" x2="271.3" y2="419.8"/>
<line class="st0" x1="282.7" y1="420.7" x2="290.4" y2="421.8"/>
<line class="st0" x1="271.3" y1="419.8" x2="282.7" y2="420.7"/>
<line class="st0" x1="285.8" y1="426" x2="282.7" y2="420.7"/>
<line class="st0" x1="290.2" y1="431.5" x2="285.8" y2="426"/>
<line class="st0" x1="290.4" y1="421.8" x2="290.2" y2="431.5"/>
<line class="st0" x1="283" y1="416.2" x2="290.4" y2="421.8"/>
<line class="st0" x1="285.8" y1="426" x2="280.8" y2="436.1"/>
<line class="st0" x1="278.8" y1="424.5" x2="285.8" y2="426"/>
<line class="st0" x1="271.3" y1="419.8" x2="278.8" y2="424.5"/>
<line class="st0" x1="286.6" y1="406.7" x2="294.4" y2="407.2"/>
<line class="st0" x1="292" y1="400" x2="294.4" y2="407.2"/>
<line class="st0" x1="283.7" y1="397.6" x2="286.6" y2="406.7"/>
<line class="st0" x1="275.1" y1="408" x2="286.6" y2="406.7"/>
<line class="st0" x1="283" y1="416.2" x2="286.6" y2="406.7"/>
<line class="st0" x1="296.8" y1="412.4" x2="294.4" y2="407.2"/>
<line class="st0" x1="283.7" y1="397.6" x2="292" y2="400"/>
<line class="st0" x1="293.8" y1="453" x2="286.2" y2="454.5"/>
<line class="st0" x1="293.8" y1="458.7" x2="286.2" y2="454.5"/>
<line class="st0" x1="286.9" y1="442" x2="291.8" y2="437.3"/>
<line class="st0" x1="292.8" y1="447.4" x2="286.9" y2="442"/>
<line class="st0" x1="293.4" y1="442.1" x2="292.8" y2="447.4"/>
<line class="st0" x1="286.9" y1="442" x2="293.4" y2="442.1"/>
<line class="st0" x1="292" y1="400" x2="296.8" y2="394.7"/>
<line class="st0" x1="268.2" y1="410.2" x2="271.3" y2="419.8"/>
<line class="st0" x1="263.7" y1="425" x2="271.3" y2="419.8"/>
<line class="st0" x1="266.2" y1="412.5" x2="263.7" y2="425"/>
<line class="st0" x1="263.2" y1="403.6" x2="266.2" y2="412.5"/>
<line class="st0" x1="267" y1="442.5" x2="279.2" y2="446.3"/>
<line class="st0" x1="291.8" y1="437.3" x2="301.8" y2="437.3"/>
<line class="st0" x1="293.8" y1="458.7" x2="299.8" y2="458.7"/>
<line class="st0" x1="299.8" y1="453" x2="300.9" y2="447.4"/>
<line class="st0" x1="293.8" y1="453" x2="292.8" y2="447.4"/>
<line class="st0" x1="293.8" y1="453" x2="299.8" y2="453"/>
<line class="st0" x1="303.2" y1="421.8" x2="310" y2="420.8"/>
<line class="st0" x1="292.8" y1="447.4" x2="300.9" y2="447.4"/>
<line class="st0" x1="283.7" y1="397.6" x2="296.8" y2="394.7"/>
<line class="st0" x1="310" y1="397.6" x2="296.8" y2="394.7"/>
</svg>
