<?xml version="1.0" encoding="utf-8"?>
<!-- Generator: Adobe Illustrator 21.1.0, SVG Export Plug-In . SVG Version: 6.00 Build 0)  -->
<svg version="1.1" id="Layer_1" xmlns="http://www.w3.org/2000/svg" xmlns:xlink="http://www.w3.org/1999/xlink" x="0px" y="0px"
	 viewBox="0 0 595.3 841.9" style="enable-background:new 0 0 595.3 841.9;" xml:space="preserve">
<style type="text/css">
	.st0{fill:none;stroke:#E9262A;stroke-width:0.5;stroke-miterlimit:10;}
</style>
<line class="st0" x1="93.1" y1="378.2" x2="90.1" y2="379.8"/>
<line class="st0" x1="95.1" y1="380.8" x2="93.1" y2="378.2"/>
<line class="st0" x1="95.4" y1="376.7" x2="93.1" y2="378.2"/>
<line class="st0" x1="97.4" y1="379.8" x2="95.4" y2="376.7"/>
<line class="st0" x1="95.1" y1="380.8" x2="97.4" y2="379.8"/>
<line class="st0" x1="98.5" y1="382" x2="97.4" y2="379.8"/>
<line class="st0" x1="90.4" y1="383.3" x2="90.1" y2="379.8"/>
<line class="st0" x1="93.8" y1="388.6" x2="90.1" y2="386.6"/>
<line class="st0" x1="92.4" y1="392.5" x2="90.1" y2="386.6"/>
<line class="st0" x1="86.1" y1="382.3" x2="90.1" y2="386.6"/>
<line class="st0" x1="93.8" y1="388.6" x2="94" y2="384.5"/>
<line class="st0" x1="96.7" y1="385" x2="93.8" y2="388.6"/>
<line class="st0" x1="98.5" y1="382" x2="96.7" y2="385"/>
<line class="st0" x1="94" y1="384.5" x2="95.1" y2="380.8"/>
<line class="st0" x1="90" y1="376.6" x2="90.1" y2="379.8"/>
<line class="st0" x1="86.1" y1="382.3" x2="90" y2="376.6"/>
<line class="st0" x1="90" y1="376.6" x2="91.6" y2="366.8"/>
<line class="st0" x1="87.8" y1="372.3" x2="86.1" y2="382.3"/>
<line class="st0" x1="87.8" y1="368.2" x2="87.8" y2="372.3"/>
<line class="st0" x1="93.9" y1="363.1" x2="88.7" y2="361.8"/>
<line class="st0" x1="90.7" y1="359" x2="88.7" y2="361.8"/>
<line class="st0" x1="93.9" y1="363.1" x2="90.7" y2="359"/>
<line class="st0" x1="91.6" y1="366.8" x2="93.9" y2="363.1"/>
<line class="st0" x1="87.8" y1="368.2" x2="91.6" y2="366.8"/>
<line class="st0" x1="88.7" y1="361.8" x2="87.8" y2="368.2"/>
<line class="st0" x1="95.1" y1="380.8" x2="90.4" y2="383.3"/>
<line class="st0" x1="90.1" y1="386.6" x2="90.4" y2="383.3"/>
<line class="st0" x1="94" y1="384.5" x2="90.4" y2="383.3"/>
<line class="st0" x1="96.7" y1="385" x2="94" y2="384.5"/>
<line class="st0" x1="99.4" y1="397.5" x2="92.4" y2="392.5"/>
<line class="st0" x1="94.5" y1="401.9" x2="92.4" y2="392.5"/>
<line class="st0" x1="88.2" y1="396.4" x2="86.9" y2="390.6"/>
<line class="st0" x1="86.1" y1="382.3" x2="86.9" y2="390.6"/>
<line class="st0" x1="92.4" y1="392.5" x2="88.2" y2="396.4"/>
<line class="st0" x1="90.1" y1="386.6" x2="88.2" y2="396.4"/>
<line class="st0" x1="86.9" y1="390.6" x2="90.1" y2="386.6"/>
<line class="st0" x1="90" y1="409.1" x2="94.5" y2="401.9"/>
<line class="st0" x1="97.4" y1="406.4" x2="94.5" y2="401.9"/>
<line class="st0" x1="99.4" y1="397.5" x2="97.4" y2="406.4"/>
<line class="st0" x1="94.5" y1="401.9" x2="99.4" y2="397.5"/>
<line class="st0" x1="88.2" y1="403.9" x2="94.5" y2="401.9"/>
<line class="st0" x1="88.2" y1="396.4" x2="94.5" y2="401.9"/>
<line class="st0" x1="88.2" y1="403.9" x2="88.2" y2="396.4"/>
<line class="st0" x1="90" y1="409.1" x2="88.2" y2="403.9"/>
<line class="st0" x1="87.4" y1="415.7" x2="90" y2="409.1"/>
<line class="st0" x1="94.2" y1="414.5" x2="97.4" y2="406.4"/>
<line class="st0" x1="90" y1="409.1" x2="97.4" y2="406.4"/>
<line class="st0" x1="94.2" y1="414.5" x2="90" y2="409.1"/>
<line class="st0" x1="87.4" y1="415.7" x2="94.2" y2="414.5"/>
<line class="st0" x1="90.4" y1="422.3" x2="94.2" y2="414.5"/>
<line class="st0" x1="87.4" y1="415.7" x2="90.4" y2="422.3"/>
<line class="st0" x1="93" y1="429.3" x2="97.1" y2="420.2"/>
<line class="st0" x1="94.2" y1="414.5" x2="97.1" y2="420.2"/>
<line class="st0" x1="90.4" y1="422.3" x2="93" y2="429.3"/>
<line class="st0" x1="84.7" y1="429.3" x2="90.4" y2="422.3"/>
<line class="st0" x1="84.2" y1="421.7" x2="84.7" y2="429.3"/>
<line class="st0" x1="87.4" y1="415.7" x2="84.2" y2="421.7"/>
<line class="st0" x1="90.4" y1="422.3" x2="84.2" y2="421.7"/>
<line class="st0" x1="99.5" y1="412.1" x2="94.2" y2="414.5"/>
<line class="st0" x1="97.4" y1="406.4" x2="99.5" y2="412.1"/>
<line class="st0" x1="103.3" y1="410.3" x2="99.5" y2="412.1"/>
<line class="st0" x1="104.1" y1="417.4" x2="103.3" y2="410.3"/>
<line class="st0" x1="97.1" y1="420.2" x2="104.1" y2="417.4"/>
<line class="st0" x1="99.5" y1="412.1" x2="104.1" y2="417.4"/>
<line class="st0" x1="100.6" y1="425.2" x2="104.1" y2="417.4"/>
<line class="st0" x1="97.1" y1="420.2" x2="100.6" y2="425.2"/>
<line class="st0" x1="101.8" y1="433.8" x2="100.6" y2="425.2"/>
<line class="st0" x1="93" y1="429.3" x2="100.6" y2="425.2"/>
<line class="st0" x1="101.8" y1="433.8" x2="93" y2="429.3"/>
<line class="st0" x1="94.8" y1="434.8" x2="93" y2="429.3"/>
<line class="st0" x1="86.1" y1="435.5" x2="93" y2="429.3"/>
<line class="st0" x1="84.7" y1="429.3" x2="93" y2="429.3"/>
<line class="st0" x1="82.4" y1="433.6" x2="84.7" y2="429.3"/>
<line class="st0" x1="86.1" y1="435.5" x2="82.4" y2="433.6"/>
<line class="st0" x1="94.8" y1="434.8" x2="86.1" y2="435.5"/>
<line class="st0" x1="101.8" y1="433.8" x2="94.8" y2="434.8"/>
<line class="st0" x1="107.5" y1="395.3" x2="105" y2="394.7"/>
<line class="st0" x1="103.8" y1="402.8" x2="105.1" y2="398.5"/>
<line class="st0" x1="101.6" y1="401.3" x2="103.8" y2="402.8"/>
<line class="st0" x1="100.1" y1="393.9" x2="101.6" y2="401.3"/>
<line class="st0" x1="105" y1="394.7" x2="100.1" y2="393.9"/>
<line class="st0" x1="103.8" y1="402.8" x2="103.3" y2="410.3"/>
<line class="st0" x1="103.3" y1="410.3" x2="105.6" y2="403.6"/>
<line class="st0" x1="107.5" y1="395.3" x2="105.6" y2="403.6"/>
<line class="st0" x1="105.1" y1="398.5" x2="100.1" y2="393.9"/>
<line class="st0" x1="100.1" y1="393.9" x2="93.8" y2="388.6"/>
<line class="st0" x1="105.1" y1="398.5" x2="105" y2="394.7"/>
<line class="st0" x1="90.4" y1="422.3" x2="97.1" y2="420.2"/>
<line class="st0" x1="90" y1="376.6" x2="87.8" y2="372.3"/>
</svg>
