<?xml version="1.0" encoding="utf-8"?>
<!-- Generator: Adobe Illustrator 21.1.0, SVG Export Plug-In . SVG Version: 6.00 Build 0)  -->
<svg version="1.1" id="Layer_1" xmlns="http://www.w3.org/2000/svg" xmlns:xlink="http://www.w3.org/1999/xlink" x="0px" y="0px"
	 viewBox="0 0 595.3 841.9" style="enable-background:new 0 0 595.3 841.9;" xml:space="preserve">
<style type="text/css">
	.st0{fill:none;stroke:#EB2227;stroke-width:0.5;stroke-miterlimit:10;}
</style>
<line class="st0" x1="300.6" y1="385.8" x2="297.3" y2="387.6"/>
<line class="st0" x1="302.8" y1="388.7" x2="300.6" y2="385.8"/>
<line class="st0" x1="303.1" y1="384.2" x2="300.6" y2="385.8"/>
<line class="st0" x1="305.3" y1="387.6" x2="303.1" y2="384.2"/>
<line class="st0" x1="302.8" y1="388.7" x2="305.3" y2="387.6"/>
<line class="st0" x1="307.1" y1="389" x2="305.3" y2="387.6"/>
<line class="st0" x1="297.7" y1="391.4" x2="297.3" y2="387.6"/>
<line class="st0" x1="301.4" y1="397.3" x2="297.5" y2="393.9"/>
<line class="st0" x1="299.8" y1="401.6" x2="297.5" y2="393.9"/>
<line class="st0" x1="292.9" y1="390.4" x2="297.5" y2="393.9"/>
<line class="st0" x1="301.4" y1="397.3" x2="302.3" y2="392.6"/>
<line class="st0" x1="304.6" y1="393.3" x2="301.4" y2="397.3"/>
<line class="st0" x1="307.1" y1="389" x2="304.6" y2="393.3"/>
<line class="st0" x1="302.3" y1="392.6" x2="302.8" y2="388.7"/>
<line class="st0" x1="297.2" y1="384.4" x2="297.3" y2="387.6"/>
<line class="st0" x1="292.9" y1="390.4" x2="297.2" y2="384.4"/>
<line class="st0" x1="294.6" y1="383" x2="298.9" y2="373.3"/>
<line class="st0" x1="297.2" y1="384.4" x2="298.9" y2="373.3"/>
<line class="st0" x1="294.6" y1="383" x2="292.9" y2="390.4"/>
<line class="st0" x1="294.8" y1="374.8" x2="294.6" y2="383"/>
<line class="st0" x1="295.7" y1="367.8" x2="298.9" y2="373.3"/>
<line class="st0" x1="301.4" y1="369.2" x2="295.7" y2="367.8"/>
<line class="st0" x1="297.9" y1="364.8" x2="295.7" y2="367.8"/>
<line class="st0" x1="301.4" y1="369.2" x2="297.9" y2="364.8"/>
<line class="st0" x1="298.9" y1="373.3" x2="301.4" y2="369.2"/>
<line class="st0" x1="294.8" y1="374.8" x2="298.9" y2="373.3"/>
<line class="st0" x1="295.7" y1="367.8" x2="294.8" y2="374.8"/>
<line class="st0" x1="302.8" y1="388.7" x2="297.7" y2="391.4"/>
<line class="st0" x1="297.5" y1="393.9" x2="297.7" y2="391.4"/>
<line class="st0" x1="302.3" y1="392.6" x2="297.7" y2="391.4"/>
<line class="st0" x1="304.6" y1="393.3" x2="302.3" y2="392.6"/>
<line class="st0" x1="304.1" y1="399.2" x2="301.4" y2="397.3"/>
<line class="st0" x1="305.6" y1="402.6" x2="304.1" y2="399.2"/>
<line class="st0" x1="307.5" y1="407" x2="299.8" y2="401.6"/>
<line class="st0" x1="302.1" y1="411.9" x2="299.8" y2="401.6"/>
<line class="st0" x1="295.2" y1="405.8" x2="293.8" y2="399.4"/>
<line class="st0" x1="292.9" y1="390.4" x2="293.8" y2="399.4"/>
<line class="st0" x1="299.8" y1="401.6" x2="295.2" y2="405.8"/>
<line class="st0" x1="297.5" y1="393.9" x2="295.2" y2="405.8"/>
<line class="st0" x1="293.8" y1="399.4" x2="297.5" y2="393.9"/>
<line class="st0" x1="297.2" y1="419.9" x2="302.1" y2="411.9"/>
<line class="st0" x1="305.3" y1="416.8" x2="302.1" y2="411.9"/>
<line class="st0" x1="307.5" y1="407" x2="305.3" y2="416.8"/>
<line class="st0" x1="302.1" y1="411.9" x2="307.5" y2="407"/>
<line class="st0" x1="295.2" y1="414.1" x2="302.1" y2="411.9"/>
<line class="st0" x1="295.2" y1="405.8" x2="302.1" y2="411.9"/>
<line class="st0" x1="295.2" y1="414.1" x2="295.2" y2="405.8"/>
<line class="st0" x1="297.2" y1="419.9" x2="295.2" y2="414.1"/>
<line class="st0" x1="294.3" y1="427.1" x2="297.2" y2="419.9"/>
<line class="st0" x1="301.8" y1="425.8" x2="305.3" y2="416.8"/>
<line class="st0" x1="297.2" y1="419.9" x2="305.3" y2="416.8"/>
<line class="st0" x1="301.8" y1="425.8" x2="297.2" y2="419.9"/>
<line class="st0" x1="294.3" y1="427.1" x2="301.8" y2="425.8"/>
<line class="st0" x1="297.6" y1="434.4" x2="301.8" y2="425.8"/>
<line class="st0" x1="294.3" y1="427.1" x2="297.6" y2="434.4"/>
<line class="st0" x1="300.5" y1="442" x2="305" y2="432.1"/>
<line class="st0" x1="301.8" y1="425.8" x2="305" y2="432.1"/>
<line class="st0" x1="297.6" y1="434.4" x2="300.5" y2="442"/>
<line class="st0" x1="291.3" y1="442" x2="297.6" y2="434.4"/>
<line class="st0" x1="290.8" y1="433.7" x2="291.3" y2="442"/>
<line class="st0" x1="294.3" y1="427.1" x2="290.8" y2="433.7"/>
<line class="st0" x1="297.6" y1="434.4" x2="290.8" y2="433.7"/>
<line class="st0" x1="307.6" y1="423.1" x2="301.8" y2="425.8"/>
<line class="st0" x1="305.3" y1="416.8" x2="307.6" y2="423.1"/>
<line class="st0" x1="311.8" y1="421.1" x2="307.6" y2="423.1"/>
<line class="st0" x1="312.7" y1="428.9" x2="311.8" y2="421.1"/>
<line class="st0" x1="305" y1="432.1" x2="312.7" y2="428.9"/>
<line class="st0" x1="307.6" y1="423.1" x2="312.7" y2="428.9"/>
<line class="st0" x1="308.8" y1="437.5" x2="312.7" y2="428.9"/>
<line class="st0" x1="305" y1="432.1" x2="308.8" y2="437.5"/>
<line class="st0" x1="310.1" y1="447" x2="308.8" y2="437.5"/>
<line class="st0" x1="300.5" y1="442" x2="308.8" y2="437.5"/>
<line class="st0" x1="310.1" y1="447" x2="300.5" y2="442"/>
<line class="st0" x1="302.4" y1="448" x2="300.5" y2="442"/>
<line class="st0" x1="292.9" y1="448.9" x2="300.5" y2="442"/>
<line class="st0" x1="291.3" y1="442" x2="300.5" y2="442"/>
<line class="st0" x1="288.8" y1="446.8" x2="291.3" y2="442"/>
<line class="st0" x1="292.9" y1="448.9" x2="288.8" y2="446.8"/>
<line class="st0" x1="302.4" y1="448" x2="292.9" y2="448.9"/>
<line class="st0" x1="310.1" y1="447" x2="302.4" y2="448"/>
<line class="st0" x1="316.4" y1="404.6" x2="314.9" y2="404.1"/>
<line class="st0" x1="312.4" y1="412.9" x2="313.7" y2="408.2"/>
<line class="st0" x1="309.9" y1="411.3" x2="312.4" y2="412.9"/>
<line class="st0" x1="308.3" y1="403.1" x2="309.9" y2="411.3"/>
<line class="st0" x1="314.9" y1="404.1" x2="308.3" y2="403.1"/>
<line class="st0" x1="312.4" y1="412.9" x2="311.8" y2="421.1"/>
<line class="st0" x1="311.8" y1="421.1" x2="314.3" y2="413.8"/>
<line class="st0" x1="316.4" y1="404.6" x2="314.3" y2="413.8"/>
<line class="st0" x1="313.7" y1="408.2" x2="308.3" y2="403.1"/>
<line class="st0" x1="308.3" y1="403.1" x2="305.6" y2="402.6"/>
<line class="st0" x1="313.8" y1="408.1" x2="314.9" y2="404.1"/>
<line class="st0" x1="297.6" y1="434.4" x2="305" y2="432.1"/>
</svg>
