<?xml version="1.0" encoding="utf-8"?>
<!-- Generator: Adobe Illustrator 21.1.0, SVG Export Plug-In . SVG Version: 6.00 Build 0)  -->
<svg version="1.1" id="Layer_1" xmlns="http://www.w3.org/2000/svg" xmlns:xlink="http://www.w3.org/1999/xlink" x="0px" y="0px"
	 viewBox="0 0 595.3 841.9" style="enable-background:new 0 0 595.3 841.9;" xml:space="preserve">
<style type="text/css">
	.st0{fill:none;stroke:#EB2227;stroke-width:0.25;stroke-miterlimit:10;}
</style>
<line class="st0" x1="179.8" y1="385.5" x2="183.9" y2="385.5"/>
<line class="st0" x1="175.4" y1="392.3" x2="179.8" y2="385.5"/>
<line class="st0" x1="179.9" y1="392.8" x2="183.9" y2="385.5"/>
<line class="st0" x1="181.1" y1="400.2" x2="179.9" y2="392.8"/>
<line class="st0" x1="175.4" y1="392.3" x2="181.1" y2="400.2"/>
<line class="st0" x1="179.9" y1="392.8" x2="175.4" y2="392.3"/>
<line class="st0" x1="187.4" y1="393.5" x2="183.9" y2="385.5"/>
<line class="st0" x1="179.9" y1="392.8" x2="187.4" y2="393.5"/>
<line class="st0" x1="192.9" y1="391.9" x2="183.9" y2="385.5"/>
<line class="st0" x1="199.5" y1="391.3" x2="192.9" y2="391.9"/>
<line class="st0" x1="204.7" y1="395" x2="199.5" y2="391.3"/>
<line class="st0" x1="212.1" y1="404.3" x2="204.7" y2="395"/>
<line class="st0" x1="199" y1="401.7" x2="204.7" y2="395"/>
<line class="st0" x1="194.2" y1="399.5" x2="204.7" y2="395"/>
<line class="st0" x1="192.9" y1="391.9" x2="194.2" y2="399.5"/>
<line class="st0" x1="187.4" y1="393.5" x2="194.2" y2="399.5"/>
<line class="st0" x1="195.2" y1="408.1" x2="194.2" y2="399.5"/>
<line class="st0" x1="199" y1="401.7" x2="194.2" y2="399.5"/>
<line class="st0" x1="195.1" y1="416.7" x2="199" y2="401.7"/>
<line class="st0" x1="203.6" y1="406.4" x2="204.7" y2="395"/>
<line class="st0" x1="206.5" y1="410.9" x2="203.6" y2="406.4"/>
<line class="st0" x1="203.6" y1="406.4" x2="199.4" y2="421"/>
<line class="st0" x1="213.7" y1="420.5" x2="212.1" y2="404.3"/>
<line class="st0" x1="206.5" y1="410.9" x2="213.7" y2="420.5"/>
<line class="st0" x1="203.3" y1="421.5" x2="213.7" y2="420.5"/>
<line class="st0" x1="209" y1="426" x2="213.7" y2="420.5"/>
<line class="st0" x1="203.3" y1="421.5" x2="209" y2="426"/>
<line class="st0" x1="199.4" y1="421" x2="203.3" y2="421.5"/>
<line class="st0" x1="186.1" y1="428.1" x2="199.4" y2="421"/>
<line class="st0" x1="209" y1="426" x2="186.1" y2="428.1"/>
<line class="st0" x1="213.4" y1="430.5" x2="213.7" y2="420.5"/>
<line class="st0" x1="209" y1="426" x2="210.2" y2="432.9"/>
<line class="st0" x1="214.4" y1="436.4" x2="221.8" y2="434.4"/>
<line class="st0" x1="200.1" y1="433.6" x2="210.2" y2="432.9"/>
<line class="st0" x1="202.5" y1="436.8" x2="200.1" y2="433.6"/>
<line class="st0" x1="214.4" y1="436.4" x2="202.5" y2="436.8"/>
<line class="st0" x1="221.8" y1="434.4" x2="225.2" y2="449"/>
<line class="st0" x1="214.7" y1="463.4" x2="200.9" y2="460.7"/>
<line class="st0" x1="214.7" y1="463.4" x2="229.5" y2="459.5"/>
<line class="st0" x1="225.2" y1="449" x2="229.5" y2="459.5"/>
<line class="st0" x1="180.5" y1="407.4" x2="185.1" y2="422.1"/>
<line class="st0" x1="185.5" y1="406.4" x2="180.5" y2="407.4"/>
<line class="st0" x1="191.1" y1="417.9" x2="185.1" y2="422.1"/>
<line class="st0" x1="185.5" y1="406.4" x2="191.1" y2="417.9"/>
<line class="st0" x1="191.3" y1="413.2" x2="191.1" y2="417.9"/>
<line class="st0" x1="188.1" y1="401.8" x2="187.4" y2="393.5"/>
<line class="st0" x1="181.1" y1="400.2" x2="187.4" y2="393.5"/>
<line class="st0" x1="185.4" y1="400" x2="181.1" y2="400.2"/>
<line class="st0" x1="188.1" y1="401.8" x2="185.4" y2="400"/>
<line class="st0" x1="185.5" y1="406.4" x2="188.1" y2="401.8"/>
<line class="st0" x1="181.1" y1="400.2" x2="185.5" y2="406.4"/>
<line class="st0" x1="180.5" y1="407.4" x2="181.1" y2="400.2"/>
<line class="st0" x1="191.3" y1="413.2" x2="195.1" y2="416.7"/>
<line class="st0" x1="192" y1="408.5" x2="191.3" y2="413.2"/>
<line class="st0" x1="188.1" y1="401.8" x2="192" y2="408.5"/>
<line class="st0" x1="192" y1="408.5" x2="195.2" y2="408.1"/>
<line class="st0" x1="188.1" y1="401.8" x2="194.2" y2="399.5"/>
<line class="st0" x1="182.5" y1="432.4" x2="186.1" y2="428.1"/>
<line class="st0" x1="186.1" y1="428.1" x2="183" y2="424.8"/>
<line class="st0" x1="174.2" y1="429.1" x2="190" y2="451"/>
<line class="st0" x1="187.1" y1="462.6" x2="190" y2="451"/>
<line class="st0" x1="194.9" y1="466.2" x2="191.3" y2="457.4"/>
<line class="st0" x1="190" y1="451" x2="191.3" y2="457.4"/>
<line class="st0" x1="187.1" y1="462.6" x2="194.9" y2="466.2"/>
<line class="st0" x1="212" y1="468.5" x2="194.9" y2="466.2"/>
<line class="st0" x1="214.7" y1="463.4" x2="212" y2="468.5"/>
<line class="st0" x1="229.5" y1="459.5" x2="231.4" y2="464.7"/>
<line class="st0" x1="200.9" y1="460.7" x2="202.7" y2="450.3"/>
<line class="st0" x1="199.3" y1="450.6" x2="202.7" y2="450.3"/>
<line class="st0" x1="190.7" y1="441.5" x2="182.5" y2="432.4"/>
<line class="st0" x1="196" y1="449.8" x2="190.7" y2="441.5"/>
<line class="st0" x1="199.3" y1="450.6" x2="190.7" y2="441.5"/>
<line class="st0" x1="194.6" y1="458.3" x2="200.9" y2="460.7"/>
<line class="st0" x1="199.3" y1="450.6" x2="194.6" y2="458.3"/>
<line class="st0" x1="196" y1="449.8" x2="194.6" y2="458.3"/>
<line class="st0" x1="191.3" y1="457.4" x2="196" y2="449.8"/>
<line class="st0" x1="196.1" y1="436.1" x2="186.1" y2="428.1"/>
<line class="st0" x1="200.1" y1="433.6" x2="196.1" y2="436.1"/>
<line class="st0" x1="202.7" y1="450.3" x2="196.1" y2="436.1"/>
<line class="st0" x1="185.1" y1="422.1" x2="181.5" y2="421.5"/>
<line class="st0" x1="174.2" y1="429.1" x2="181.5" y2="421.5"/>
<line class="st0" x1="180" y1="427.9" x2="183" y2="424.8"/>
<line class="st0" x1="185.1" y1="422.1" x2="183" y2="424.8"/>
<line class="st0" x1="180" y1="427.9" x2="174.2" y2="429.1"/>
<line class="st0" x1="182.5" y1="432.4" x2="180" y2="427.9"/>
<line class="st0" x1="221.8" y1="434.4" x2="213.4" y2="430.5"/>
<line class="st0" x1="210.2" y1="432.9" x2="213.4" y2="430.5"/>
<line class="st0" x1="212" y1="468.5" x2="231.4" y2="464.7"/>
</svg>
