<?xml version="1.0" encoding="utf-8"?>
<!-- Generator: Adobe Illustrator 21.1.0, SVG Export Plug-In . SVG Version: 6.00 Build 0)  -->
<svg version="1.1" id="Layer_1" xmlns="http://www.w3.org/2000/svg" xmlns:xlink="http://www.w3.org/1999/xlink" x="0px" y="0px"
	 viewBox="0 0 595.3 841.9" style="enable-background:new 0 0 595.3 841.9;" xml:space="preserve">
<style type="text/css">
	.st0{fill:none;stroke:#EB2227;stroke-width:0.5;stroke-miterlimit:10;}
</style>
<line class="st0" x1="331.6" y1="315.2" x2="329.7" y2="308.1"/>
<line class="st0" x1="323" y1="320" x2="329.7" y2="308.1"/>
<line class="st0" x1="338" y1="312" x2="331.6" y2="315.2"/>
<line class="st0" x1="330.7" y1="321.2" x2="338" y2="312"/>
<line class="st0" x1="323" y1="320" x2="330.7" y2="321.2"/>
<line class="st0" x1="336" y1="326.3" x2="330.7" y2="321.2"/>
<line class="st0" x1="338.9" y1="332.9" x2="336" y2="326.3"/>
<line class="st0" x1="338.1" y1="341.3" x2="338.9" y2="332.9"/>
<line class="st0" x1="329.3" y1="341.3" x2="338.1" y2="341.3"/>
<line class="st0" x1="324.6" y1="337.1" x2="329.3" y2="341.3"/>
<line class="st0" x1="331.9" y1="332.9" x2="329.3" y2="341.3"/>
<line class="st0" x1="338.1" y1="341.3" x2="331.9" y2="332.9"/>
<line class="st0" x1="336" y1="326.3" x2="331.9" y2="332.9"/>
<line class="st0" x1="338.9" y1="332.9" x2="331.9" y2="332.9"/>
<line class="st0" x1="325.8" y1="327.1" x2="330.7" y2="321.2"/>
<line class="st0" x1="336" y1="326.3" x2="325.8" y2="327.1"/>
<line class="st0" x1="331.9" y1="332.9" x2="325.8" y2="327.1"/>
<line class="st0" x1="317.8" y1="324.5" x2="324.6" y2="337.1"/>
<line class="st0" x1="323" y1="320" x2="317.8" y2="324.5"/>
<line class="st0" x1="325.8" y1="327.1" x2="317.8" y2="324.5"/>
<line class="st0" x1="324.6" y1="337.1" x2="325.8" y2="327.1"/>
<line class="st0" x1="331.6" y1="315.2" x2="323" y2="320"/>
<line class="st0" x1="302" y1="326.3" x2="308.2" y2="318.7"/>
<line class="st0" x1="317.8" y1="324.5" x2="308.2" y2="318.7"/>
<line class="st0" x1="294.4" y1="319.8" x2="308.2" y2="318.7"/>
<line class="st0" x1="286.5" y1="330.8" x2="294.4" y2="319.8"/>
<line class="st0" x1="298.5" y1="335.7" x2="307.1" y2="334.4"/>
<line class="st0" x1="317.8" y1="324.5" x2="307.1" y2="334.4"/>
<line class="st0" x1="286.5" y1="330.8" x2="298.5" y2="335.7"/>
<line class="st0" x1="275.2" y1="310.1" x2="270.6" y2="299.1"/>
<line class="st0" x1="280.7" y1="302.7" x2="270.6" y2="299.1"/>
<line class="st0" x1="284.7" y1="316.8" x2="280.7" y2="302.7"/>
<line class="st0" x1="286.5" y1="330.8" x2="284.7" y2="316.8"/>
<line class="st0" x1="271.6" y1="331.4" x2="284.7" y2="316.8"/>
<line class="st0" x1="265.2" y1="322.5" x2="275.2" y2="310.1"/>
<line class="st0" x1="284.7" y1="316.8" x2="275.2" y2="310.1"/>
<line class="st0" x1="259.3" y1="299.3" x2="270.6" y2="299.1"/>
<line class="st0" x1="247.5" y1="305.6" x2="259.3" y2="299.3"/>
<line class="st0" x1="251.3" y1="315.5" x2="247.5" y2="305.6"/>
<line class="st0" x1="265.2" y1="322.5" x2="251.3" y2="315.5"/>
<line class="st0" x1="259.3" y1="299.3" x2="265.2" y2="322.5"/>
<line class="st0" x1="264.4" y1="335.8" x2="265.2" y2="322.5"/>
<line class="st0" x1="271.6" y1="347.1" x2="264.4" y2="335.8"/>
<line class="st0" x1="271.6" y1="331.4" x2="271.6" y2="347.1"/>
<line class="st0" x1="265.2" y1="322.5" x2="271.6" y2="331.4"/>
<line class="st0" x1="282.7" y1="344.7" x2="286.5" y2="330.8"/>
<line class="st0" x1="285.2" y1="352.8" x2="271.6" y2="347.1"/>
<line class="st0" x1="271.6" y1="331.4" x2="282.7" y2="344.7"/>
<line class="st0" x1="285.2" y1="352.8" x2="282.7" y2="344.7"/>
<line class="st0" x1="298.5" y1="335.7" x2="282.7" y2="344.7"/>
<line class="st0" x1="289.4" y1="358.9" x2="285.2" y2="352.8"/>
<line class="st0" x1="298" y1="352.1" x2="289.4" y2="358.9"/>
<line class="st0" x1="298.5" y1="335.7" x2="298" y2="352.1"/>
<line class="st0" x1="295.7" y1="362.2" x2="298" y2="352.1"/>
<line class="st0" x1="315.9" y1="361.5" x2="295.7" y2="362.2"/>
<line class="st0" x1="315.2" y1="356.7" x2="315.9" y2="361.5"/>
<line class="st0" x1="305.1" y1="356.6" x2="315.2" y2="356.7"/>
<line class="st0" x1="310.9" y1="349.5" x2="305.1" y2="356.6"/>
<line class="st0" x1="320.4" y1="354.1" x2="310.9" y2="349.5"/>
<line class="st0" x1="335" y1="348.7" x2="320.4" y2="354.1"/>
<line class="st0" x1="321.2" y1="345.7" x2="330.6" y2="345.8"/>
<line class="st0" x1="335" y1="348.7" x2="330.6" y2="345.8"/>
<line class="st0" x1="324.6" y1="337.1" x2="321.2" y2="345.7"/>
<line class="st0" x1="305.8" y1="342.7" x2="310.9" y2="349.5"/>
<line class="st0" x1="298" y1="352.1" x2="305.8" y2="342.7"/>
<line class="st0" x1="307.1" y1="334.4" x2="305.8" y2="342.7"/>
<line class="st0" x1="321.2" y1="345.7" x2="314.2" y2="339.7"/>
<line class="st0" x1="305.8" y1="342.7" x2="314.2" y2="339.7"/>
<line class="st0" x1="307.1" y1="334.4" x2="302" y2="326.3"/>
<line class="st0" x1="298.5" y1="335.7" x2="302" y2="326.3"/>
<line class="st0" x1="294.4" y1="319.8" x2="302" y2="326.3"/>
<line class="st0" x1="320.4" y1="354.1" x2="321.2" y2="345.7"/>
<line class="st0" x1="295.7" y1="362.2" x2="305.1" y2="356.6"/>
</svg>
