<?xml version="1.0" encoding="utf-8"?>
<!-- Generator: Adobe Illustrator 21.1.0, SVG Export Plug-In . SVG Version: 6.00 Build 0)  -->
<svg version="1.1" id="Layer_1" xmlns="http://www.w3.org/2000/svg" xmlns:xlink="http://www.w3.org/1999/xlink" x="0px" y="0px"
	 viewBox="0 0 595.3 841.9" style="enable-background:new 0 0 595.3 841.9;" xml:space="preserve">
<style type="text/css">
	.st0{fill:none;stroke:#BE202E;stroke-miterlimit:10;}
</style>
<line class="st0" x1="322.4" y1="351.8" x2="329.8" y2="364.5"/>
<line class="st0" x1="322.4" y1="377.1" x2="329.8" y2="364.5"/>
<line class="st0" x1="329.5" y1="389.4" x2="322.4" y2="377.1"/>
<line class="st0" x1="336.8" y1="376.6" x2="329.5" y2="389.4"/>
<line class="st0" x1="329.8" y1="364.5" x2="336.8" y2="376.6"/>
<line class="st0" x1="336.8" y1="391.4" x2="336.8" y2="376.6"/>
<line class="st0" x1="329.5" y1="403.6" x2="336.8" y2="391.4"/>
<line class="st0" x1="329.5" y1="389.4" x2="329.5" y2="403.6"/>
<line class="st0" x1="315.4" y1="403.6" x2="329.5" y2="403.6"/>
<line class="st0" x1="315.4" y1="389.4" x2="329.5" y2="389.4"/>
<line class="st0" x1="308" y1="376.6" x2="315.4" y2="389.4"/>
<line class="st0" x1="322.4" y1="377.1" x2="308" y2="376.6"/>
<line class="st0" x1="310" y1="369.3" x2="322.4" y2="377.1"/>
<line class="st0" x1="317.3" y1="357" x2="329.8" y2="364.5"/>
<line class="st0" x1="309.8" y1="344.8" x2="317.3" y2="357"/>
<line class="st0" x1="322.4" y1="351.8" x2="309.8" y2="344.8"/>
<line class="st0" x1="295.5" y1="344.6" x2="309.8" y2="344.8"/>
<line class="st0" x1="302.6" y1="357.3" x2="295.5" y2="344.6"/>
<line class="st0" x1="317.3" y1="357" x2="302.6" y2="357.3"/>
<line class="st0" x1="295.5" y1="370.1" x2="302.6" y2="357.3"/>
<line class="st0" x1="317.3" y1="357" x2="310" y2="369.3"/>
<line class="st0" x1="295.5" y1="370.1" x2="310" y2="369.3"/>
<line class="st0" x1="308" y1="376.6" x2="295.5" y2="370.1"/>
<line class="st0" x1="308.1" y1="391.4" x2="308" y2="376.6"/>
<line class="st0" x1="315.4" y1="403.6" x2="315.4" y2="389.4"/>
<line class="st0" x1="308.1" y1="391.4" x2="315.4" y2="403.6"/>
<line class="st0" x1="308.1" y1="416.3" x2="315.4" y2="403.6"/>
<line class="st0" x1="322.4" y1="416.5" x2="329.5" y2="403.6"/>
<line class="st0" x1="309.9" y1="423.5" x2="322.4" y2="416.5"/>
<line class="st0" x1="308.1" y1="416.3" x2="322.4" y2="416.5"/>
<line class="st0" x1="295.5" y1="423.4" x2="308.1" y2="416.3"/>
<line class="st0" x1="309.9" y1="423.5" x2="295.5" y2="423.4"/>
<line class="st0" x1="300.8" y1="403.6" x2="308.1" y2="391.4"/>
<line class="st0" x1="308.1" y1="416.3" x2="300.8" y2="403.6"/>
<line class="st0" x1="288.6" y1="411" x2="300.8" y2="403.6"/>
<line class="st0" x1="295.5" y1="398.2" x2="308.1" y2="391.4"/>
<line class="st0" x1="288.6" y1="411" x2="295.5" y2="398.2"/>
<line class="st0" x1="281.2" y1="398.3" x2="295.5" y2="398.2"/>
<line class="st0" x1="274.4" y1="411" x2="281.2" y2="398.3"/>
<line class="st0" x1="288.6" y1="411" x2="274.4" y2="411"/>
<line class="st0" x1="281.5" y1="423.4" x2="274.4" y2="411"/>
<line class="st0" x1="288.6" y1="411" x2="295.5" y2="423.4"/>
<line class="st0" x1="281.5" y1="423.4" x2="295.5" y2="423.4"/>
<line class="st0" x1="283.3" y1="376.9" x2="290.3" y2="364.4"/>
<line class="st0" x1="302.6" y1="357.3" x2="290.3" y2="364.4"/>
<line class="st0" x1="283.3" y1="376.9" x2="295.5" y2="370.1"/>
<line class="st0" x1="283.3" y1="390.8" x2="283.3" y2="376.9"/>
<line class="st0" x1="295.5" y1="398.2" x2="283.3" y2="390.8"/>
<line class="st0" x1="268.8" y1="391.4" x2="283.3" y2="390.8"/>
<line class="st0" x1="281.2" y1="398.3" x2="268.8" y2="391.4"/>
<line class="st0" x1="261.7" y1="378.6" x2="276" y2="378.6"/>
<line class="st0" x1="276" y1="364.2" x2="276" y2="378.6"/>
<line class="st0" x1="283.3" y1="376.9" x2="276" y2="364.2"/>
<line class="st0" x1="283.3" y1="351.7" x2="276" y2="364.2"/>
<line class="st0" x1="290.3" y1="364.4" x2="283.3" y2="351.7"/>
<line class="st0" x1="281.1" y1="344.6" x2="295.5" y2="344.6"/>
<line class="st0" x1="268.7" y1="351.6" x2="281.1" y2="344.6"/>
<line class="st0" x1="283.3" y1="351.7" x2="295.5" y2="344.6"/>
<line class="st0" x1="261.4" y1="364.6" x2="268.7" y2="351.6"/>
<line class="st0" x1="276" y1="364.2" x2="261.4" y2="364.6"/>
<line class="st0" x1="283.3" y1="351.7" x2="268.7" y2="351.6"/>
<line class="st0" x1="261.4" y1="364.6" x2="261.7" y2="378.6"/>
<line class="st0" x1="254.4" y1="390.8" x2="261.7" y2="378.6"/>
<line class="st0" x1="268.8" y1="391.4" x2="261.7" y2="378.6"/>
<line class="st0" x1="276" y1="378.6" x2="283.3" y2="390.8"/>
<line class="st0" x1="261.6" y1="403.6" x2="268.8" y2="391.4"/>
<line class="st0" x1="254.4" y1="390.8" x2="261.6" y2="403.6"/>
<line class="st0" x1="254.2" y1="376.9" x2="261.4" y2="364.6"/>
<line class="st0" x1="254.4" y1="390.8" x2="254.2" y2="376.9"/>
<line class="st0" x1="274.4" y1="411" x2="261.6" y2="403.6"/>
<line class="st0" x1="268.6" y1="416.4" x2="261.6" y2="403.6"/>
<line class="st0" x1="281.5" y1="423.4" x2="268.6" y2="416.4"/>
</svg>
