<?xml version="1.0" encoding="utf-8"?>
<!-- Generator: Adobe Illustrator 21.1.0, SVG Export Plug-In . SVG Version: 6.00 Build 0)  -->
<svg version="1.1" id="Layer_1" xmlns="http://www.w3.org/2000/svg" xmlns:xlink="http://www.w3.org/1999/xlink" x="0px" y="0px"
	 viewBox="0 0 595.3 841.9" style="enable-background:new 0 0 595.3 841.9;" xml:space="preserve">
<style type="text/css">
	.st0{fill:none;stroke:#EB2227;stroke-width:0.25;stroke-miterlimit:10;}
</style>
<line class="st0" x1="308.6" y1="358.5" x2="312.1" y2="354.3"/>
<line class="st0" x1="322.5" y1="348.5" x2="312.1" y2="354.3"/>
<line class="st0" x1="321.4" y1="360.2" x2="322.5" y2="348.5"/>
<line class="st0" x1="331.9" y1="346.5" x2="321.4" y2="360.2"/>
<line class="st0" x1="329.4" y1="360.3" x2="331.9" y2="346.5"/>
<line class="st0" x1="321.4" y1="360.2" x2="329.4" y2="360.3"/>
<line class="st0" x1="323.9" y1="377.3" x2="329.4" y2="360.3"/>
<line class="st0" x1="321.4" y1="360.2" x2="323.9" y2="377.3"/>
<line class="st0" x1="311.6" y1="374.6" x2="321.4" y2="360.2"/>
<line class="st0" x1="304.4" y1="363.9" x2="311.6" y2="374.6"/>
<line class="st0" x1="308.6" y1="358.5" x2="304.4" y2="363.9"/>
<line class="st0" x1="321.4" y1="360.2" x2="304.4" y2="363.9"/>
<line class="st0" x1="312.1" y1="354.3" x2="321.4" y2="360.2"/>
<line class="st0" x1="331.9" y1="346.5" x2="322.5" y2="348.5"/>
<line class="st0" x1="295.6" y1="354.7" x2="304.4" y2="363.9"/>
<line class="st0" x1="311.6" y1="374.6" x2="304.4" y2="388.2"/>
<line class="st0" x1="304.4" y1="363.9" x2="295.6" y2="373.9"/>
<line class="st0" x1="304.4" y1="388.2" x2="295.6" y2="373.9"/>
<line class="st0" x1="302.4" y1="392.7" x2="304.4" y2="388.2"/>
<line class="st0" x1="308" y1="393" x2="311.3" y2="391.2"/>
<line class="st0" x1="313.7" y1="388.2" x2="308.7" y2="386.7"/>
<line class="st0" x1="302.4" y1="392.7" x2="308" y2="393"/>
<line class="st0" x1="313.7" y1="388.2" x2="311.3" y2="391.2"/>
<line class="st0" x1="308.7" y1="386.7" x2="304.4" y2="388.2"/>
<line class="st0" x1="313.7" y1="388.2" x2="329.9" y2="395.9"/>
<line class="st0" x1="323.9" y1="377.3" x2="329.9" y2="395.9"/>
<line class="st0" x1="311.6" y1="374.6" x2="323.9" y2="377.3"/>
<line class="st0" x1="329.9" y1="395.9" x2="311.6" y2="374.6"/>
<line class="st0" x1="305.7" y1="403.7" x2="302.4" y2="392.7"/>
<line class="st0" x1="299" y1="411.3" x2="305.7" y2="403.7"/>
<line class="st0" x1="308" y1="393" x2="305.7" y2="403.7"/>
<line class="st0" x1="302.4" y1="418" x2="310.3" y2="413"/>
<line class="st0" x1="305.7" y1="403.7" x2="310.3" y2="413"/>
<line class="st0" x1="301.1" y1="414.1" x2="299" y2="411.3"/>
<line class="st0" x1="302.4" y1="418" x2="301.1" y2="414.1"/>
<line class="st0" x1="315.1" y1="409.1" x2="311.3" y2="391.2"/>
<line class="st0" x1="308" y1="393" x2="315.1" y2="409.1"/>
<line class="st0" x1="305.7" y1="403.7" x2="315.1" y2="409.1"/>
<line class="st0" x1="310.3" y1="413" x2="315.1" y2="409.1"/>
<line class="st0" x1="329.9" y1="395.9" x2="315.1" y2="409.1"/>
<line class="st0" x1="311.3" y1="391.2" x2="329.9" y2="395.9"/>
<line class="st0" x1="311.6" y1="374.6" x2="295.6" y2="373.9"/>
<line class="st0" x1="308.7" y1="386.7" x2="311.6" y2="374.6"/>
<line class="st0" x1="304.4" y1="388.2" x2="295.6" y2="392.1"/>
<line class="st0" x1="302.4" y1="392.7" x2="295.6" y2="392.1"/>
<line class="st0" x1="305.7" y1="403.7" x2="295.6" y2="405.4"/>
<line class="st0" x1="299" y1="411.3" x2="295.6" y2="410.6"/>
<line class="st0" x1="295.6" y1="354.7" x2="308.6" y2="358.5"/>
<line class="st0" x1="302.4" y1="418" x2="295.6" y2="420.9"/>
<line class="st0" x1="301.1" y1="414.1" x2="295.6" y2="417.7"/>
<line class="st0" x1="282.7" y1="358.5" x2="279.2" y2="354.3"/>
<line class="st0" x1="268.7" y1="348.5" x2="279.2" y2="354.3"/>
<line class="st0" x1="269.8" y1="360.2" x2="268.7" y2="348.5"/>
<line class="st0" x1="259.3" y1="346.5" x2="269.8" y2="360.2"/>
<line class="st0" x1="261.8" y1="360.3" x2="259.3" y2="346.5"/>
<line class="st0" x1="269.8" y1="360.2" x2="261.8" y2="360.3"/>
<line class="st0" x1="267.4" y1="377.3" x2="261.8" y2="360.3"/>
<line class="st0" x1="269.8" y1="360.2" x2="267.4" y2="377.3"/>
<line class="st0" x1="279.7" y1="374.6" x2="269.8" y2="360.2"/>
<line class="st0" x1="286.8" y1="363.9" x2="279.7" y2="374.6"/>
<line class="st0" x1="282.7" y1="358.5" x2="286.8" y2="363.9"/>
<line class="st0" x1="269.8" y1="360.2" x2="286.8" y2="363.9"/>
<line class="st0" x1="279.2" y1="354.3" x2="269.8" y2="360.2"/>
<line class="st0" x1="259.3" y1="346.5" x2="268.7" y2="348.5"/>
<line class="st0" x1="295.6" y1="354.7" x2="286.8" y2="363.9"/>
<line class="st0" x1="279.7" y1="374.6" x2="286.9" y2="388.2"/>
<line class="st0" x1="286.8" y1="363.9" x2="295.6" y2="373.9"/>
<line class="st0" x1="286.9" y1="388.2" x2="295.6" y2="373.9"/>
<line class="st0" x1="288.8" y1="392.7" x2="286.9" y2="388.2"/>
<line class="st0" x1="283.3" y1="393" x2="280" y2="391.2"/>
<line class="st0" x1="277.5" y1="388.2" x2="282.6" y2="386.7"/>
<line class="st0" x1="288.8" y1="392.7" x2="283.3" y2="393"/>
<line class="st0" x1="277.5" y1="388.2" x2="280" y2="391.2"/>
<line class="st0" x1="282.6" y1="386.7" x2="286.9" y2="388.2"/>
<line class="st0" x1="277.5" y1="388.2" x2="261.3" y2="395.9"/>
<line class="st0" x1="267.4" y1="377.3" x2="261.3" y2="395.9"/>
<line class="st0" x1="279.7" y1="374.6" x2="267.4" y2="377.3"/>
<line class="st0" x1="261.3" y1="395.9" x2="279.7" y2="374.6"/>
<line class="st0" x1="285.6" y1="403.7" x2="288.8" y2="392.7"/>
<line class="st0" x1="292.2" y1="411.3" x2="285.6" y2="403.7"/>
<line class="st0" x1="283.3" y1="393" x2="285.6" y2="403.7"/>
<line class="st0" x1="288.9" y1="418" x2="280.9" y2="413"/>
<line class="st0" x1="285.6" y1="403.7" x2="280.9" y2="413"/>
<line class="st0" x1="290.2" y1="414.1" x2="292.2" y2="411.3"/>
<line class="st0" x1="288.9" y1="418" x2="290.2" y2="414.1"/>
<line class="st0" x1="276.1" y1="409.1" x2="280" y2="391.2"/>
<line class="st0" x1="283.3" y1="393" x2="276.1" y2="409.1"/>
<line class="st0" x1="285.6" y1="403.7" x2="276.1" y2="409.1"/>
<line class="st0" x1="280.9" y1="413" x2="276.1" y2="409.1"/>
<line class="st0" x1="261.3" y1="395.9" x2="276.1" y2="409.1"/>
<line class="st0" x1="280" y1="391.2" x2="261.3" y2="395.9"/>
<line class="st0" x1="279.7" y1="374.6" x2="295.6" y2="373.9"/>
<line class="st0" x1="282.6" y1="386.7" x2="279.7" y2="374.6"/>
<line class="st0" x1="286.9" y1="388.2" x2="295.6" y2="392.1"/>
<line class="st0" x1="288.8" y1="392.7" x2="295.6" y2="392.1"/>
<line class="st0" x1="285.6" y1="403.7" x2="295.6" y2="405.4"/>
<line class="st0" x1="292.2" y1="411.3" x2="295.6" y2="410.6"/>
<line class="st0" x1="295.6" y1="354.7" x2="282.7" y2="358.5"/>
<line class="st0" x1="288.9" y1="418" x2="295.6" y2="420.9"/>
<line class="st0" x1="290.2" y1="414.1" x2="295.6" y2="417.7"/>
</svg>
