<?xml version="1.0" encoding="utf-8"?>
<!-- Generator: Adobe Illustrator 21.1.0, SVG Export Plug-In . SVG Version: 6.00 Build 0)  -->
<svg version="1.1" id="Layer_1" xmlns="http://www.w3.org/2000/svg" xmlns:xlink="http://www.w3.org/1999/xlink" x="0px" y="0px"
	 viewBox="0 0 595.3 841.9" style="enable-background:new 0 0 595.3 841.9;" xml:space="preserve">
<style type="text/css">
	.st0{fill:none;stroke:#010101;stroke-miterlimit:10;}
</style>
<g>
	<line class="st0" x1="333.1" y1="338.1" x2="343.8" y2="355.4"/>
	<line class="st0" x1="337.7" y1="368.9" x2="343.8" y2="355.4"/>
	<line class="st0" x1="322.5" y1="378.4" x2="337.7" y2="368.9"/>
	<line class="st0" x1="327.4" y1="360.3" x2="337.7" y2="368.9"/>
	<line class="st0" x1="333.1" y1="338.1" x2="333.1" y2="348.5"/>
	<line class="st0" x1="327.4" y1="360.3" x2="333.1" y2="348.5"/>
	<line class="st0" x1="343.8" y1="355.4" x2="333.1" y2="348.5"/>
	<line class="st0" x1="327.4" y1="360.3" x2="343.8" y2="355.4"/>
	<line class="st0" x1="318.1" y1="366.9" x2="327.4" y2="360.3"/>
	<line class="st0" x1="322.5" y1="378.4" x2="318.1" y2="366.9"/>
	<line class="st0" x1="333.1" y1="377.9" x2="322.5" y2="378.4"/>
	<line class="st0" x1="317.8" y1="388.5" x2="322.5" y2="378.4"/>
	<line class="st0" x1="304.3" y1="391.1" x2="317.8" y2="388.5"/>
	<line class="st0" x1="295.4" y1="383.3" x2="318.1" y2="366.9"/>
	<line class="st0" x1="304.3" y1="391.1" x2="295.4" y2="383.3"/>
	<line class="st0" x1="317" y1="402.9" x2="317.8" y2="388.5"/>
	<line class="st0" x1="303.2" y1="407.5" x2="317" y2="402.9"/>
	<line class="st0" x1="304.3" y1="391.1" x2="303.2" y2="407.5"/>
	<line class="st0" x1="317" y1="402.9" x2="304.3" y2="391.1"/>
	<line class="st0" x1="295.4" y1="368.1" x2="302" y2="365.2"/>
	<line class="st0" x1="307.8" y1="356.3" x2="302" y2="365.2"/>
	<line class="st0" x1="300.3" y1="353.9" x2="295.4" y2="368.1"/>
	<line class="st0" x1="302" y1="365.2" x2="318.1" y2="366.9"/>
	<line class="st0" x1="307.8" y1="356.3" x2="318.1" y2="366.9"/>
	<line class="st0" x1="300.3" y1="353.9" x2="307.8" y2="356.3"/>
	<line class="st0" x1="295.4" y1="408.7" x2="303.2" y2="407.5"/>
	<line class="st0" x1="295.4" y1="430" x2="301.1" y2="421.7"/>
	<line class="st0" x1="304.6" y1="412.1" x2="301.1" y2="421.7"/>
	<line class="st0" x1="303.2" y1="407.5" x2="304.6" y2="412.1"/>
	<line class="st0" x1="295.4" y1="430" x2="306.3" y2="421.9"/>
	<line class="st0" x1="304.6" y1="412.1" x2="306.3" y2="421.9"/>
	<line class="st0" x1="317" y1="402.9" x2="306.3" y2="421.9"/>
	<line class="st0" x1="317.8" y1="388.5" x2="331.1" y2="388.5"/>
	<line class="st0" x1="336.6" y1="381" x2="331.1" y2="388.5"/>
	<line class="st0" x1="325" y1="383.3" x2="336.6" y2="381"/>
	<line class="st0" x1="331.1" y1="388.5" x2="325" y2="383.3"/>
	<line class="st0" x1="317.8" y1="388.5" x2="325" y2="383.3"/>
	<line class="st0" x1="333.1" y1="377.9" x2="336.6" y2="381"/>
	<line class="st0" x1="325" y1="383.3" x2="333.1" y2="377.9"/>
	<line class="st0" x1="304.3" y1="391.1" x2="322.5" y2="378.4"/>
	<line class="st0" x1="318.1" y1="366.9" x2="337.7" y2="368.9"/>
	<line class="st0" x1="295.4" y1="422.5" x2="300.8" y2="421.7"/>
	<line class="st0" x1="257.6" y1="338.1" x2="247" y2="355.4"/>
	<line class="st0" x1="253" y1="368.9" x2="247" y2="355.4"/>
	<line class="st0" x1="268.3" y1="378.4" x2="253" y2="368.9"/>
	<line class="st0" x1="263.4" y1="360.3" x2="253" y2="368.9"/>
	<line class="st0" x1="257.6" y1="338.1" x2="257.6" y2="348.5"/>
	<line class="st0" x1="263.4" y1="360.3" x2="257.6" y2="348.5"/>
	<line class="st0" x1="247" y1="355.4" x2="257.6" y2="348.5"/>
	<line class="st0" x1="263.4" y1="360.3" x2="247" y2="355.4"/>
	<line class="st0" x1="272.6" y1="366.9" x2="263.4" y2="360.3"/>
	<line class="st0" x1="268.3" y1="378.4" x2="272.6" y2="366.9"/>
	<line class="st0" x1="257.6" y1="377.9" x2="268.3" y2="378.4"/>
	<line class="st0" x1="272.9" y1="388.5" x2="268.3" y2="378.4"/>
	<line class="st0" x1="286.4" y1="391.1" x2="272.9" y2="388.5"/>
	<line class="st0" x1="295.4" y1="383.3" x2="272.6" y2="366.9"/>
	<line class="st0" x1="286.4" y1="391.1" x2="295.4" y2="383.3"/>
	<line class="st0" x1="273.8" y1="402.9" x2="272.9" y2="388.5"/>
	<line class="st0" x1="287.6" y1="407.5" x2="273.8" y2="402.9"/>
	<line class="st0" x1="286.4" y1="391.1" x2="287.6" y2="407.5"/>
	<line class="st0" x1="273.8" y1="402.9" x2="286.4" y2="391.1"/>
	<line class="st0" x1="295.4" y1="368.1" x2="288.7" y2="365.2"/>
	<line class="st0" x1="283" y1="356.3" x2="288.7" y2="365.2"/>
	<line class="st0" x1="290.5" y1="353.9" x2="295.4" y2="368.1"/>
	<line class="st0" x1="288.7" y1="365.2" x2="272.6" y2="366.9"/>
	<line class="st0" x1="283" y1="356.3" x2="272.6" y2="366.9"/>
	<line class="st0" x1="290.5" y1="353.9" x2="283" y2="356.3"/>
	<line class="st0" x1="295.4" y1="408.7" x2="287.6" y2="407.5"/>
	<line class="st0" x1="295.4" y1="430" x2="289.6" y2="421.7"/>
	<line class="st0" x1="286.2" y1="412.1" x2="289.6" y2="421.7"/>
	<line class="st0" x1="287.6" y1="407.5" x2="286.2" y2="412.1"/>
	<line class="st0" x1="295.4" y1="430" x2="284.4" y2="421.9"/>
	<line class="st0" x1="286.2" y1="412.1" x2="284.4" y2="421.9"/>
	<line class="st0" x1="273.8" y1="402.9" x2="284.4" y2="421.9"/>
	<line class="st0" x1="272.9" y1="388.5" x2="259.6" y2="388.5"/>
	<line class="st0" x1="254.2" y1="381" x2="259.6" y2="388.5"/>
	<line class="st0" x1="265.7" y1="383.3" x2="254.2" y2="381"/>
	<line class="st0" x1="259.6" y1="388.5" x2="265.7" y2="383.3"/>
	<line class="st0" x1="272.9" y1="388.5" x2="265.7" y2="383.3"/>
	<line class="st0" x1="257.6" y1="377.9" x2="254.2" y2="381"/>
	<line class="st0" x1="265.7" y1="383.3" x2="257.6" y2="377.9"/>
	<line class="st0" x1="286.4" y1="391.1" x2="268.3" y2="378.4"/>
	<line class="st0" x1="272.6" y1="366.9" x2="253" y2="368.9"/>
	<line class="st0" x1="295.4" y1="422.5" x2="289.9" y2="421.7"/>
</g>
</svg>
