<?xml version="1.0" encoding="utf-8"?>
<!-- Generator: Adobe Illustrator 21.1.0, SVG Export Plug-In . SVG Version: 6.00 Build 0)  -->
<svg version="1.1" id="Layer_1" xmlns="http://www.w3.org/2000/svg" xmlns:xlink="http://www.w3.org/1999/xlink" x="0px" y="0px"
	 viewBox="0 0 595.3 841.9" style="enable-background:new 0 0 595.3 841.9;" xml:space="preserve">
<style type="text/css">
	.st0{fill:none;stroke:#ED1C24;stroke-width:0.75;stroke-miterlimit:10;}
</style>
<line class="st0" x1="269.5" y1="387" x2="275" y2="384.2"/>
<line class="st0" x1="278.9" y1="380.5" x2="275" y2="384.2"/>
<line class="st0" x1="277.5" y1="386.2" x2="278.9" y2="380.5"/>
<line class="st0" x1="275" y1="384.2" x2="277.5" y2="386.2"/>
<line class="st0" x1="272.5" y1="389.2" x2="277.5" y2="386.2"/>
<line class="st0" x1="269.5" y1="387" x2="272.5" y2="389.2"/>
<line class="st0" x1="282.6" y1="383.1" x2="278.9" y2="380.5"/>
<line class="st0" x1="286.9" y1="378.6" x2="282.6" y2="383.1"/>
<line class="st0" x1="278.9" y1="380.5" x2="286.9" y2="378.6"/>
<line class="st0" x1="289.2" y1="382.4" x2="286.9" y2="378.6"/>
<line class="st0" x1="295.8" y1="379.9" x2="289.2" y2="382.4"/>
<line class="st0" x1="286.9" y1="378.6" x2="295.8" y2="379.9"/>
<line class="st0" x1="305" y1="384" x2="295.8" y2="379.9"/>
<line class="st0" x1="288" y1="387.7" x2="289.2" y2="382.4"/>
<line class="st0" x1="287.1" y1="395.4" x2="288" y2="387.7"/>
<line class="st0" x1="294.1" y1="385.9" x2="288" y2="387.7"/>
<line class="st0" x1="295.8" y1="379.9" x2="294.1" y2="385.9"/>
<line class="st0" x1="289.2" y1="382.4" x2="294.1" y2="385.9"/>
<line class="st0" x1="305" y1="384" x2="294.1" y2="385.9"/>
<line class="st0" x1="281.9" y1="391.8" x2="272.5" y2="389.2"/>
<line class="st0" x1="287.1" y1="395.4" x2="281.9" y2="391.8"/>
<line class="st0" x1="284" y1="388.7" x2="281.9" y2="391.8"/>
<line class="st0" x1="288" y1="387.7" x2="284" y2="388.7"/>
<line class="st0" x1="282.6" y1="383.1" x2="284" y2="388.7"/>
<line class="st0" x1="277.5" y1="386.2" x2="284" y2="388.7"/>
<line class="st0" x1="295.6" y1="392.6" x2="294.1" y2="385.9"/>
<line class="st0" x1="287.1" y1="395.4" x2="295.6" y2="392.6"/>
<line class="st0" x1="301.1" y1="389.7" x2="295.6" y2="392.6"/>
<line class="st0" x1="305" y1="384" x2="301.1" y2="389.7"/>
<line class="st0" x1="294.1" y1="385.9" x2="301.1" y2="389.7"/>
<line class="st0" x1="294.2" y1="400.5" x2="287.1" y2="395.4"/>
<line class="st0" x1="297.8" y1="396.3" x2="294.2" y2="400.5"/>
<line class="st0" x1="295.6" y1="392.6" x2="297.8" y2="396.3"/>
<line class="st0" x1="301.1" y1="389.7" x2="297.8" y2="396.3"/>
<line class="st0" x1="298.7" y1="405.9" x2="297.8" y2="396.3"/>
<line class="st0" x1="306.8" y1="397.9" x2="297.8" y2="396.3"/>
<line class="st0" x1="310.3" y1="392.6" x2="306.8" y2="397.9"/>
<line class="st0" x1="301.1" y1="389.7" x2="306.8" y2="397.9"/>
<line class="st0" x1="310.3" y1="392.6" x2="301.1" y2="389.7"/>
<line class="st0" x1="305" y1="384" x2="310.3" y2="392.6"/>
<line class="st0" x1="309" y1="406.5" x2="306.8" y2="397.9"/>
<line class="st0" x1="298.7" y1="405.9" x2="309" y2="406.5"/>
<line class="st0" x1="309.3" y1="418.1" x2="309" y2="406.5"/>
<line class="st0" x1="305.2" y1="412.3" x2="309" y2="406.5"/>
<line class="st0" x1="309.3" y1="418.1" x2="305.2" y2="412.3"/>
<line class="st0" x1="298.7" y1="405.9" x2="305.2" y2="412.3"/>
<line class="st0" x1="306.8" y1="397.9" x2="298.7" y2="405.9"/>
<line class="st0" x1="313.9" y1="400.6" x2="316.7" y2="393.4"/>
<line class="st0" x1="309" y1="406.5" x2="313.9" y2="400.6"/>
<line class="st0" x1="306.8" y1="397.9" x2="313.9" y2="400.6"/>
<line class="st0" x1="310.3" y1="392.6" x2="313.9" y2="400.6"/>
<line class="st0" x1="317.1" y1="408.1" x2="313.9" y2="400.6"/>
<line class="st0" x1="313.5" y1="413" x2="317.1" y2="408.1"/>
<line class="st0" x1="309" y1="406.5" x2="313.5" y2="413"/>
<line class="st0" x1="294.6" y1="404.3" x2="294.2" y2="400.5"/>
<line class="st0" x1="296.2" y1="409.1" x2="294.6" y2="404.3"/>
<line class="st0" x1="291" y1="406.7" x2="294.6" y2="404.3"/>
<line class="st0" x1="288.4" y1="401.7" x2="291" y2="406.7"/>
<line class="st0" x1="287.1" y1="395.4" x2="288.4" y2="401.7"/>
<line class="st0" x1="294.2" y1="400.5" x2="288.4" y2="401.7"/>
<line class="st0" x1="296.2" y1="409.1" x2="291" y2="406.7"/>
<line class="st0" x1="321.3" y1="390.3" x2="316.7" y2="393.4"/>
<line class="st0" x1="312.5" y1="387.9" x2="321.3" y2="390.3"/>
<line class="st0" x1="310.3" y1="392.6" x2="312.5" y2="387.9"/>
<line class="st0" x1="305" y1="384" x2="312.5" y2="387.9"/>
<line class="st0" x1="319" y1="398.6" x2="316.7" y2="393.4"/>
<line class="st0" x1="321.9" y1="395.1" x2="319" y2="398.6"/>
<line class="st0" x1="321.3" y1="390.3" x2="321.9" y2="395.1"/>
<line class="st0" x1="316.7" y1="393.4" x2="312.5" y2="387.9"/>
<line class="st0" x1="321.9" y1="395.1" x2="316.9" y2="393.4"/>
<line class="st0" x1="325.8" y1="394.7" x2="321.3" y2="390.3"/>
<line class="st0" x1="321.9" y1="395.1" x2="325.8" y2="394.7"/>
<line class="st0" x1="316.7" y1="393.4" x2="310.3" y2="392.6"/>
<line class="st0" x1="319" y1="398.6" x2="313.9" y2="400.6"/>
<line class="st0" x1="320.6" y1="403.8" x2="319" y2="398.6"/>
<line class="st0" x1="322.1" y1="412.3" x2="320.6" y2="403.8"/>
<line class="st0" x1="317.1" y1="408.1" x2="322.1" y2="412.3"/>
<line class="st0" x1="320.6" y1="403.8" x2="317.1" y2="408.1"/>
<line class="st0" x1="313.9" y1="400.6" x2="320.6" y2="403.8"/>
<line class="st0" x1="321.6" y1="419.1" x2="322.1" y2="412.3"/>
<line class="st0" x1="320" y1="427.4" x2="321.6" y2="419.1"/>
<line class="st0" x1="316.7" y1="427.8" x2="320" y2="427.4"/>
<line class="st0" x1="317.3" y1="418.7" x2="316.7" y2="427.8"/>
<line class="st0" x1="317.1" y1="408.1" x2="317.3" y2="418.7"/>
<line class="st0" x1="322.1" y1="412.3" x2="317.3" y2="418.7"/>
<line class="st0" x1="321.6" y1="419.1" x2="317.3" y2="418.7"/>
<line class="st0" x1="314" y1="424.7" x2="313.5" y2="413"/>
<line class="st0" x1="309.3" y1="418.1" x2="314" y2="424.7"/>
<line class="st0" x1="309.3" y1="425.5" x2="314" y2="424.7"/>
<line class="st0" x1="309.3" y1="418.1" x2="309.3" y2="425.5"/>
<line class="st0" x1="309" y1="431.4" x2="309.3" y2="425.5"/>
<line class="st0" x1="306.8" y1="438.3" x2="309" y2="431.4"/>
<line class="st0" x1="304.8" y1="441.8" x2="306.8" y2="438.3"/>
<line class="st0" x1="297.1" y1="439.1" x2="304.8" y2="441.8"/>
<line class="st0" x1="301.1" y1="443.8" x2="304.8" y2="441.8"/>
<line class="st0" x1="297.1" y1="439.1" x2="301.1" y2="443.8"/>
<line class="st0" x1="291.8" y1="439.1" x2="297.1" y2="439.1"/>
<line class="st0" x1="291.8" y1="443.6" x2="297.1" y2="439.1"/>
<line class="st0" x1="291.8" y1="439.1" x2="291.8" y2="443.6"/>
<line class="st0" x1="287.4" y1="442.6" x2="291.8" y2="439.1"/>
<line class="st0" x1="291.8" y1="443.6" x2="287.4" y2="442.6"/>
<line class="st0" x1="297.1" y1="444.8" x2="301.1" y2="443.8"/>
<line class="st0" x1="297.1" y1="439.1" x2="297.1" y2="444.8"/>
<line class="st0" x1="291.8" y1="443.6" x2="297.1" y2="444.8"/>
<line class="st0" x1="301.8" y1="448.5" x2="301.1" y2="443.8"/>
<line class="st0" x1="297.1" y1="444.8" x2="301.8" y2="448.5"/>
<line class="st0" x1="304.9" y1="447.2" x2="304.8" y2="441.8"/>
<line class="st0" x1="301.8" y1="448.5" x2="304.9" y2="447.2"/>
<line class="st0" x1="310.2" y1="441.3" x2="304.8" y2="441.8"/>
<line class="st0" x1="306.8" y1="438.3" x2="310.2" y2="441.3"/>
<line class="st0" x1="308.8" y1="446.7" x2="310.2" y2="441.3"/>
<line class="st0" x1="304.8" y1="441.8" x2="308.8" y2="446.7"/>
<line class="st0" x1="304.9" y1="447.2" x2="308.8" y2="446.7"/>
<line class="st0" x1="309.8" y1="451.9" x2="308.8" y2="446.7"/>
<line class="st0" x1="304.9" y1="447.2" x2="304.4" y2="452.9"/>
<line class="st0" x1="309.2" y1="457" x2="309.8" y2="451.9"/>
<line class="st0" x1="304.4" y1="452.9" x2="307" y2="461.8"/>
<line class="st0" x1="309.2" y1="457" x2="307" y2="461.8"/>
<line class="st0" x1="304.4" y1="452.9" x2="309.2" y2="457"/>
<line class="st0" x1="309.8" y1="451.9" x2="304.4" y2="452.9"/>
<line class="st0" x1="316.5" y1="434" x2="310.2" y2="441.3"/>
<line class="st0" x1="320" y1="427.4" x2="316.5" y2="434"/>
<line class="st0" x1="317.3" y1="418.7" x2="320" y2="427.4"/>
<line class="st0" x1="313.5" y1="413" x2="317.3" y2="418.7"/>
<line class="st0" x1="314" y1="424.7" x2="317.3" y2="418.7"/>
<line class="st0" x1="312.6" y1="433.7" x2="316.7" y2="427.8"/>
<line class="st0" x1="314" y1="424.7" x2="316.7" y2="427.8"/>
<line class="st0" x1="309" y1="431.4" x2="314" y2="424.7"/>
<line class="st0" x1="312.6" y1="433.7" x2="309" y2="431.4"/>
<line class="st0" x1="306.8" y1="438.3" x2="312.6" y2="433.7"/>
<line class="st0" x1="310.2" y1="441.3" x2="312.6" y2="433.7"/>
<line class="st0" x1="316.5" y1="434" x2="312.6" y2="433.7"/>
<line class="st0" x1="309.3" y1="418.1" x2="313.5" y2="413"/>
<line class="st0" x1="317.1" y1="408.1" x2="309" y2="406.5"/>
<line class="st0" x1="294.2" y1="400.5" x2="298.7" y2="405.9"/>
</svg>
