<?xml version="1.0" encoding="utf-8"?>
<!-- Generator: Adobe Illustrator 21.1.0, SVG Export Plug-In . SVG Version: 6.00 Build 0)  -->
<svg version="1.1" id="Layer_1" xmlns="http://www.w3.org/2000/svg" xmlns:xlink="http://www.w3.org/1999/xlink" x="0px" y="0px"
	 viewBox="0 0 595.3 841.9" style="enable-background:new 0 0 595.3 841.9;" xml:space="preserve">
<style type="text/css">
	.st0{fill:none;stroke:#EB2227;stroke-width:0.5;stroke-miterlimit:10;}
</style>
<line class="st0" x1="314.3" y1="374.6" x2="324.6" y2="379.5"/>
<line class="st0" x1="325.6" y1="381.8" x2="324.6" y2="379.5"/>
<line class="st0" x1="316.5" y1="377.9" x2="325.6" y2="381.8"/>
<line class="st0" x1="316.5" y1="377.9" x2="314.3" y2="374.6"/>
<line class="st0" x1="314.3" y1="378" x2="316.5" y2="377.9"/>
<line class="st0" x1="319" y1="381.5" x2="314.3" y2="378"/>
<line class="st0" x1="317.1" y1="388.3" x2="319" y2="381.5"/>
<line class="st0" x1="320.1" y1="387.6" x2="319" y2="381.5"/>
<line class="st0" x1="317.1" y1="388.3" x2="314.3" y2="378"/>
<line class="st0" x1="309.6" y1="377.4" x2="314.3" y2="378"/>
<line class="st0" x1="308.4" y1="381.4" x2="309.6" y2="377.4"/>
<line class="st0" x1="309.3" y1="389.8" x2="308.4" y2="381.4"/>
<line class="st0" x1="317.1" y1="388.3" x2="309.3" y2="389.8"/>
<line class="st0" x1="308.4" y1="381.4" x2="317.1" y2="388.3"/>
<line class="st0" x1="303.1" y1="379.2" x2="308.4" y2="381.4"/>
<line class="st0" x1="303.5" y1="370.6" x2="303.1" y2="379.2"/>
<line class="st0" x1="308.4" y1="381.4" x2="303.5" y2="370.6"/>
<line class="st0" x1="309.6" y1="377.4" x2="303.5" y2="370.6"/>
<line class="st0" x1="314.3" y1="374.6" x2="306.5" y2="371.8"/>
<line class="st0" x1="308.3" y1="370.5" x2="306.5" y2="371.8"/>
<line class="st0" x1="302" y1="364" x2="308.3" y2="370.5"/>
<line class="st0" x1="300.5" y1="364.5" x2="302" y2="364"/>
<line class="st0" x1="303.5" y1="370.6" x2="300.5" y2="364.5"/>
<line class="st0" x1="308.8" y1="392.5" x2="309.3" y2="389.8"/>
<line class="st0" x1="309.6" y1="394.5" x2="308.8" y2="392.5"/>
<line class="st0" x1="308.7" y1="401.8" x2="309.6" y2="394.5"/>
<line class="st0" x1="311.5" y1="396.8" x2="309.6" y2="394.5"/>
<line class="st0" x1="307" y1="399.4" x2="306.4" y2="394.1"/>
<line class="st0" x1="309.3" y1="389.8" x2="306.4" y2="394.1"/>
<line class="st0" x1="301.6" y1="396" x2="304" y2="391.4"/>
<line class="st0" x1="304.1" y1="388.7" x2="304" y2="391.4"/>
<line class="st0" x1="309.3" y1="389.8" x2="304.1" y2="388.7"/>
<line class="st0" x1="299.8" y1="393.2" x2="304.1" y2="388.7"/>
<line class="st0" x1="301.6" y1="396" x2="299.8" y2="393.2"/>
<line class="st0" x1="303.4" y1="400" x2="301.6" y2="396"/>
<line class="st0" x1="306.4" y1="394.1" x2="301.6" y2="396"/>
<line class="st0" x1="304.6" y1="398.8" x2="306.4" y2="394.1"/>
<line class="st0" x1="306.1" y1="400.8" x2="307" y2="399.4"/>
<line class="st0" x1="304.6" y1="398.8" x2="306.1" y2="400.8"/>
<line class="st0" x1="303.4" y1="400" x2="304.6" y2="398.8"/>
<line class="st0" x1="307" y1="399.4" x2="308.7" y2="401.8"/>
<line class="st0" x1="310.6" y1="399" x2="308.7" y2="401.8"/>
<line class="st0" x1="310.6" y1="399" x2="311.5" y2="396.8"/>
<line class="st0" x1="315.4" y1="401.5" x2="310.6" y2="399"/>
<line class="st0" x1="319.2" y1="399.9" x2="311.5" y2="396.8"/>
<line class="st0" x1="299.6" y1="382.4" x2="308.4" y2="381.4"/>
<line class="st0" x1="304.1" y1="388.7" x2="299.6" y2="382.4"/>
<line class="st0" x1="292.6" y1="392" x2="299.6" y2="382.4"/>
<line class="st0" x1="304.1" y1="388.7" x2="292.6" y2="392"/>
<line class="st0" x1="289" y1="385.1" x2="299.6" y2="382.4"/>
<line class="st0" x1="292.6" y1="392" x2="289" y2="385.1"/>
<line class="st0" x1="284.7" y1="390.7" x2="289" y2="385.1"/>
<line class="st0" x1="292.6" y1="392" x2="284.7" y2="390.7"/>
<line class="st0" x1="292.1" y1="380.3" x2="289" y2="385.1"/>
<line class="st0" x1="299.6" y1="382.4" x2="292.1" y2="380.3"/>
<line class="st0" x1="293.3" y1="376.6" x2="303.1" y2="379.2"/>
<line class="st0" x1="301.3" y1="374.2" x2="293.3" y2="376.6"/>
<line class="st0" x1="296.8" y1="370" x2="301.3" y2="374.2"/>
<line class="st0" x1="303.5" y1="370.6" x2="296.8" y2="370"/>
<line class="st0" x1="306.5" y1="371.8" x2="303.5" y2="370.6"/>
<line class="st0" x1="325.6" y1="381.8" x2="319" y2="381.5"/>
<line class="st0" x1="323.4" y1="384.4" x2="319" y2="381.5"/>
<line class="st0" x1="324.7" y1="386.6" x2="323.4" y2="384.4"/>
<line class="st0" x1="320.1" y1="387.6" x2="324.7" y2="386.6"/>
<line class="st0" x1="317.1" y1="388.3" x2="320.1" y2="387.6"/>
<line class="st0" x1="327.5" y1="384.9" x2="323.4" y2="384.4"/>
<line class="st0" x1="325.6" y1="381.8" x2="327.5" y2="384.9"/>
<line class="st0" x1="329.2" y1="386.7" x2="327.5" y2="384.9"/>
<line class="st0" x1="329.5" y1="384.2" x2="329.2" y2="386.7"/>
<line class="st0" x1="328.2" y1="381.7" x2="329.5" y2="384.2"/>
<line class="st0" x1="324.6" y1="379.5" x2="328.2" y2="381.7"/>
<line class="st0" x1="308.3" y1="370.5" x2="312.3" y2="368.4"/>
<line class="st0" x1="315.4" y1="369.3" x2="314.3" y2="374.6"/>
<line class="st0" x1="320.5" y1="361.2" x2="315.4" y2="369.3"/>
<line class="st0" x1="312.3" y1="368.4" x2="320.5" y2="361.2"/>
<line class="st0" x1="321.4" y1="355.8" x2="320.5" y2="361.2"/>
<line class="st0" x1="318.9" y1="359.3" x2="321.4" y2="355.8"/>
<line class="st0" x1="312.3" y1="368.4" x2="313.2" y2="365.1"/>
<line class="st0" x1="314.2" y1="362" x2="313.2" y2="365.1"/>
<line class="st0" x1="315.6" y1="357.6" x2="314.2" y2="362"/>
<line class="st0" x1="318.9" y1="359.3" x2="312.3" y2="368.4"/>
<line class="st0" x1="317.6" y1="352.1" x2="318.9" y2="359.3"/>
<line class="st0" x1="321.4" y1="355.8" x2="317.6" y2="352.1"/>
<line class="st0" x1="315.6" y1="357.6" x2="317.6" y2="352.1"/>
<line class="st0" x1="299.9" y1="361.9" x2="302" y2="364"/>
<line class="st0" x1="299.2" y1="358.2" x2="299.9" y2="361.9"/>
<line class="st0" x1="302.8" y1="358.9" x2="299.2" y2="358.2"/>
<line class="st0" x1="312.3" y1="368.4" x2="302.8" y2="358.9"/>
<line class="st0" x1="313.2" y1="365.1" x2="302.8" y2="358.9"/>
<line class="st0" x1="301" y1="352.9" x2="313.2" y2="365.1"/>
<line class="st0" x1="297.5" y1="351.6" x2="301" y2="352.9"/>
<line class="st0" x1="298.5" y1="355.7" x2="297.5" y2="351.6"/>
<line class="st0" x1="302.8" y1="358.9" x2="298.5" y2="355.7"/>
<line class="st0" x1="295.5" y1="342.2" x2="296.8" y2="349"/>
<line class="st0" x1="301" y1="352.9" x2="296.8" y2="349"/>
<line class="st0" x1="301.2" y1="347.2" x2="295.5" y2="342.2"/>
<line class="st0" x1="296.5" y1="339.5" x2="301.2" y2="347.2"/>
<line class="st0" x1="296.1" y1="332.6" x2="298.3" y2="336.9"/>
<line class="st0" x1="296.5" y1="339.5" x2="296.1" y2="332.6"/>
<line class="st0" x1="301" y1="330.2" x2="300.9" y2="335"/>
<line class="st0" x1="305.2" y1="345.1" x2="300.9" y2="335"/>
<line class="st0" x1="298.3" y1="336.9" x2="305.2" y2="345.1"/>
<line class="st0" x1="301.2" y1="347.2" x2="314.2" y2="362"/>
<line class="st0" x1="315.6" y1="357.6" x2="305.2" y2="345.1"/>
<line class="st0" x1="309.4" y1="342.7" x2="301" y2="330.2"/>
<line class="st0" x1="317.6" y1="352.1" x2="309.4" y2="342.7"/>
<line class="st0" x1="305.2" y1="345.1" x2="317.6" y2="352.1"/>
<line class="st0" x1="295.4" y1="363.6" x2="296.8" y2="370"/>
<line class="st0" x1="282" y1="353.9" x2="290" y2="358.2"/>
<line class="st0" x1="295.4" y1="363.6" x2="303.5" y2="370.6"/>
<line class="st0" x1="290" y1="358.2" x2="295.4" y2="363.6"/>
<line class="st0" x1="253.5" y1="343.3" x2="256.1" y2="348.6"/>
<line class="st0" x1="282" y1="353.9" x2="253.5" y2="343.3"/>
<line class="st0" x1="266.6" y1="353.9" x2="256.1" y2="348.6"/>
<line class="st0" x1="288.6" y1="360.9" x2="266.6" y2="353.9"/>
<line class="st0" x1="282" y1="353.9" x2="288.6" y2="360.9"/>
<line class="st0" x1="260.9" y1="356.4" x2="257.4" y2="351.3"/>
<line class="st0" x1="266.6" y1="353.9" x2="257.4" y2="351.3"/>
<line class="st0" x1="260.9" y1="356.4" x2="268.4" y2="360.4"/>
<line class="st0" x1="261.1" y1="358.5" x2="268.4" y2="360.4"/>
<line class="st0" x1="264.7" y1="364.2" x2="261.1" y2="358.5"/>
<line class="st0" x1="275.9" y1="368.4" x2="264.7" y2="364.2"/>
<line class="st0" x1="268.4" y1="360.4" x2="283.8" y2="364.8"/>
<line class="st0" x1="288.9" y1="365.3" x2="266.6" y2="353.9"/>
<line class="st0" x1="292.7" y1="365.8" x2="288.6" y2="360.9"/>
<line class="st0" x1="288.9" y1="365.3" x2="292.7" y2="365.8"/>
<line class="st0" x1="283.8" y1="364.8" x2="288.9" y2="365.3"/>
<line class="st0" x1="283.1" y1="369.9" x2="275.9" y2="368.4"/>
<line class="st0" x1="288.4" y1="369.8" x2="283.1" y2="369.9"/>
<line class="st0" x1="268.4" y1="360.4" x2="288.4" y2="369.8"/>
<line class="st0" x1="292.7" y1="365.8" x2="296.8" y2="370"/>
<line class="st0" x1="288.4" y1="369.8" x2="296.8" y2="370"/>
<line class="st0" x1="276.2" y1="374.8" x2="283.5" y2="374.6"/>
<line class="st0" x1="293.3" y1="376.6" x2="283.5" y2="374.6"/>
<line class="st0" x1="293.5" y1="374.3" x2="283.5" y2="374.6"/>
<line class="st0" x1="301.3" y1="374.2" x2="293.5" y2="374.3"/>
<line class="st0" x1="283.1" y1="369.9" x2="293.5" y2="374.3"/>
<line class="st0" x1="278.5" y1="377.9" x2="276.2" y2="374.8"/>
<line class="st0" x1="287.4" y1="380.5" x2="278.5" y2="377.9"/>
<line class="st0" x1="292.1" y1="380.3" x2="287.4" y2="380.5"/>
<line class="st0" x1="270.8" y1="370.9" x2="277.2" y2="373.4"/>
<line class="st0" x1="283.5" y1="374.6" x2="277.2" y2="373.4"/>
<line class="st0" x1="267.6" y1="367.2" x2="270.8" y2="370.9"/>
<line class="st0" x1="275.9" y1="368.4" x2="267.6" y2="367.2"/>
<line class="st0" x1="292" y1="399.9" x2="292" y2="396"/>
<line class="st0" x1="292.6" y1="392" x2="292" y2="396"/>
<line class="st0" x1="294.1" y1="398" x2="292" y2="399.9"/>
<line class="st0" x1="294.1" y1="401.7" x2="294.1" y2="398"/>
<line class="st0" x1="296.2" y1="400.4" x2="294.1" y2="401.7"/>
<line class="st0" x1="299.8" y1="393.2" x2="296.2" y2="400.4"/>
<line class="st0" x1="298.4" y1="402.1" x2="296.4" y2="403.4"/>
<line class="st0" x1="296.2" y1="400.4" x2="296.4" y2="403.4"/>
<line class="st0" x1="302" y1="406.8" x2="298.4" y2="402.1"/>
<line class="st0" x1="301.6" y1="396" x2="301.5" y2="401.6"/>
<line class="st0" x1="303.6" y1="405.1" x2="301.5" y2="401.6"/>
<line class="st0" x1="299.9" y1="408.6" x2="302" y2="406.8"/>
<line class="st0" x1="299.6" y1="411.6" x2="299.9" y2="408.6"/>
<line class="st0" x1="303.4" y1="408.9" x2="299.6" y2="411.6"/>
<line class="st0" x1="306.7" y1="412.3" x2="303.4" y2="408.9"/>
<line class="st0" x1="305.2" y1="414.7" x2="306.7" y2="412.3"/>
<line class="st0" x1="308" y1="413.2" x2="305.2" y2="414.7"/>
<line class="st0" x1="306.7" y1="409.5" x2="308" y2="413.2"/>
<line class="st0" x1="304.4" y1="406.5" x2="306.7" y2="409.5"/>
<line class="st0" x1="307.4" y1="405.9" x2="304.4" y2="406.5"/>
<line class="st0" x1="302" y1="406.8" x2="304.4" y2="406.5"/>
<line class="st0" x1="303.6" y1="405.1" x2="307.4" y2="405.9"/>
<line class="st0" x1="311.7" y1="407.5" x2="307.4" y2="405.9"/>
<line class="st0" x1="311.5" y1="411.3" x2="311.7" y2="407.5"/>
<line class="st0" x1="310.4" y1="408.9" x2="311.5" y2="411.3"/>
<line class="st0" x1="307.8" y1="407.9" x2="310.4" y2="408.9"/>
<line class="st0" x1="309.6" y1="409.9" x2="307.8" y2="407.9"/>
<line class="st0" x1="310.5" y1="412.4" x2="309.6" y2="409.9"/>
<line class="st0" x1="308.7" y1="414.4" x2="310.5" y2="412.4"/>
<line class="st0" x1="308.9" y1="411.1" x2="308.7" y2="414.4"/>
<line class="st0" x1="306.7" y1="409.5" x2="308.9" y2="411.1"/>
<line class="st0" x1="298.4" y1="402.1" x2="299.8" y2="393.2"/>
<line class="st0" x1="319.5" y1="390.1" x2="317.1" y2="388.3"/>
<line class="st0" x1="322.9" y1="390.3" x2="319.5" y2="390.1"/>
<line class="st0" x1="324.7" y1="386.6" x2="322.9" y2="390.3"/>
<line class="st0" x1="325.5" y1="392.3" x2="322.9" y2="390.3"/>
<line class="st0" x1="328.4" y1="392.6" x2="325.5" y2="392.3"/>
<line class="st0" x1="327.1" y1="390.6" x2="328.4" y2="392.6"/>
<line class="st0" x1="322.9" y1="390.3" x2="327.1" y2="390.6"/>
<line class="st0" x1="329.3" y1="389.9" x2="329.3" y2="392"/>
<line class="st0" x1="331.6" y1="389.2" x2="329.3" y2="392"/>
<line class="st0" x1="330.8" y1="387.6" x2="331.6" y2="389.2"/>
<line class="st0" x1="329.2" y1="386.7" x2="330.8" y2="387.6"/>
<line class="st0" x1="326.9" y1="387.3" x2="329.2" y2="386.7"/>
<line class="st0" x1="329.3" y1="389.9" x2="326.9" y2="387.3"/>
<line class="st0" x1="324.7" y1="386.6" x2="326.9" y2="387.3"/>
<line class="st0" x1="266.6" y1="397.3" x2="284.7" y2="390.7"/>
<line class="st0" x1="268.1" y1="403.5" x2="284.7" y2="390.7"/>
<line class="st0" x1="273" y1="405.2" x2="284.7" y2="390.7"/>
<line class="st0" x1="282.2" y1="397.1" x2="284.7" y2="390.7"/>
<line class="st0" x1="286.3" y1="395.1" x2="284.7" y2="390.7"/>
<line class="st0" x1="282.2" y1="397.1" x2="286.3" y2="395.1"/>
<line class="st0" x1="273" y1="405.2" x2="282.2" y2="397.1"/>
<line class="st0" x1="276.2" y1="407.3" x2="282.2" y2="397.1"/>
<line class="st0" x1="271.7" y1="410.6" x2="274.3" y2="409.8"/>
<line class="st0" x1="273" y1="405.2" x2="270.8" y2="409.4"/>
<line class="st0" x1="271.7" y1="410.6" x2="270.8" y2="409.4"/>
<line class="st0" x1="267.1" y1="408" x2="269.7" y2="408"/>
<line class="st0" x1="273" y1="405.2" x2="269.7" y2="408"/>
<line class="st0" x1="266.8" y1="405.4" x2="267.1" y2="408"/>
<line class="st0" x1="268.1" y1="403.5" x2="266.8" y2="405.4"/>
<line class="st0" x1="276.2" y1="407.3" x2="274.3" y2="409.8"/>
<line class="st0" x1="276" y1="411.1" x2="276.2" y2="407.3"/>
<line class="st0" x1="280.6" y1="410.1" x2="276" y2="411.1"/>
<line class="st0" x1="281.7" y1="408.1" x2="280.6" y2="410.1"/>
<line class="st0" x1="284.5" y1="408.7" x2="281.7" y2="408.1"/>
<line class="st0" x1="286.1" y1="407.1" x2="284.5" y2="408.7"/>
<line class="st0" x1="289.1" y1="398" x2="286.1" y2="407.1"/>
<line class="st0" x1="285.5" y1="400.5" x2="289.1" y2="398"/>
<line class="st0" x1="292" y1="396" x2="289.1" y2="398"/>
<line class="st0" x1="281.7" y1="408.1" x2="285.5" y2="400.5"/>
<line class="st0" x1="287.1" y1="396.9" x2="285.5" y2="400.5"/>
<line class="st0" x1="283.9" y1="399.6" x2="287.1" y2="396.9"/>
<line class="st0" x1="276" y1="411.1" x2="283.9" y2="399.6"/>
<line class="st0" x1="286.3" y1="395.1" x2="292.6" y2="392"/>
<line class="st0" x1="287.1" y1="396.9" x2="292.6" y2="392"/>
<line class="st0" x1="264.9" y1="399.6" x2="266.7" y2="397.2"/>
<line class="st0" x1="265.1" y1="401.9" x2="264.9" y2="399.6"/>
<line class="st0" x1="268.1" y1="403.5" x2="265.1" y2="401.9"/>
<line class="st0" x1="326.9" y1="387.3" x2="327.1" y2="390.6"/>
<line class="st0" x1="314.4" y1="403.5" x2="315.4" y2="401.5"/>
<line class="st0" x1="315.2" y1="405.9" x2="314.4" y2="403.5"/>
<line class="st0" x1="317.7" y1="406.5" x2="315.2" y2="405.9"/>
<line class="st0" x1="315.9" y1="404.3" x2="317.7" y2="406.5"/>
<line class="st0" x1="316.5" y1="402.6" x2="315.9" y2="404.3"/>
<line class="st0" x1="318.6" y1="404.4" x2="316.5" y2="402.6"/>
<line class="st0" x1="319.3" y1="406.3" x2="318.6" y2="404.4"/>
<line class="st0" x1="318.7" y1="408.5" x2="319.3" y2="406.3"/>
<line class="st0" x1="320.7" y1="406.6" x2="318.7" y2="408.5"/>
<line class="st0" x1="319.4" y1="402.9" x2="320.7" y2="406.6"/>
<line class="st0" x1="321.6" y1="404.6" x2="319.4" y2="402.9"/>
<line class="st0" x1="321.8" y1="407" x2="321.6" y2="404.6"/>
<line class="st0" x1="322.7" y1="403.9" x2="321.8" y2="407"/>
<line class="st0" x1="320.5" y1="401.6" x2="322.7" y2="403.9"/>
<line class="st0" x1="319.2" y1="399.9" x2="323.8" y2="401.2"/>
<line class="st0" x1="324.1" y1="404.2" x2="323.8" y2="401.2"/>
<line class="st0" x1="322.7" y1="402.2" x2="324.1" y2="404.2"/>
<line class="st0" x1="320.5" y1="401.6" x2="322.7" y2="402.2"/>
<line class="st0" x1="316.5" y1="402.6" x2="317.2" y2="400.5"/>
<line class="st0" x1="319.4" y1="402.9" x2="317.2" y2="400.5"/>
<line class="st0" x1="320.5" y1="401.6" x2="317.2" y2="400.5"/>
<line class="st0" x1="319.2" y1="399.9" x2="317.2" y2="400.5"/>
<line class="st0" x1="318.6" y1="404.4" x2="319.4" y2="402.9"/>
<line class="st0" x1="317.2" y1="400.5" x2="315.4" y2="401.5"/>
</svg>
