<?xml version="1.0" encoding="utf-8"?>
<!-- Generator: Adobe Illustrator 21.1.0, SVG Export Plug-In . SVG Version: 6.00 Build 0)  -->
<svg version="1.1" id="Layer_1" xmlns="http://www.w3.org/2000/svg" xmlns:xlink="http://www.w3.org/1999/xlink" x="0px" y="0px"
	 viewBox="0 0 595.3 841.9" style="enable-background:new 0 0 595.3 841.9;" xml:space="preserve">
<style type="text/css">
	.st0{fill:none;stroke:#EB2227;stroke-width:0.5;stroke-miterlimit:10;}
</style>
<line class="st0" x1="397.7" y1="387.9" x2="396.7" y2="378.5"/>
<line class="st0" x1="399.8" y1="396.2" x2="397.7" y2="387.9"/>
<line class="st0" x1="398.8" y1="404.7" x2="399.8" y2="396.2"/>
<line class="st0" x1="402.5" y1="402.3" x2="399.8" y2="396.2"/>
<line class="st0" x1="401.6" y1="413.7" x2="398.8" y2="404.7"/>
<line class="st0" x1="404.3" y1="408.4" x2="402.5" y2="402.3"/>
<line class="st0" x1="401.6" y1="413.7" x2="404.3" y2="408.4"/>
<line class="st0" x1="406.3" y1="418" x2="404.3" y2="408.4"/>
<line class="st0" x1="410.1" y1="408.1" x2="404.3" y2="408.4"/>
<line class="st0" x1="405.8" y1="403.7" x2="404.3" y2="408.4"/>
<line class="st0" x1="412.2" y1="403.1" x2="405.8" y2="403.7"/>
<line class="st0" x1="410.1" y1="408.1" x2="412.2" y2="403.1"/>
<line class="st0" x1="418.2" y1="404" x2="412.2" y2="403.1"/>
<line class="st0" x1="411.6" y1="396.3" x2="418.2" y2="404"/>
<line class="st0" x1="419.7" y1="412.7" x2="418.2" y2="404"/>
<line class="st0" x1="416.2" y1="425.3" x2="419.7" y2="412.7"/>
<line class="st0" x1="418.2" y1="404" x2="423.9" y2="410.9"/>
<line class="st0" x1="412.2" y1="433.3" x2="416.2" y2="425.3"/>
<line class="st0" x1="410.5" y1="423" x2="416.2" y2="425.3"/>
<line class="st0" x1="406.3" y1="418" x2="410.5" y2="423"/>
<line class="st0" x1="402.7" y1="424" x2="401.6" y2="413.7"/>
<line class="st0" x1="406.3" y1="418" x2="401.6" y2="413.7"/>
<line class="st0" x1="403.8" y1="430.4" x2="402.7" y2="424"/>
<line class="st0" x1="394.2" y1="425.4" x2="402.7" y2="424"/>
<line class="st0" x1="403.2" y1="441.8" x2="407.6" y2="437.6"/>
<line class="st0" x1="410.8" y1="443.6" x2="407.6" y2="437.6"/>
<line class="st0" x1="412.2" y1="433.3" x2="410.8" y2="443.6"/>
<line class="st0" x1="420.6" y1="436.1" x2="416.2" y2="425.3"/>
<line class="st0" x1="412.2" y1="433.3" x2="420.6" y2="436.1"/>
<line class="st0" x1="414.6" y1="446.9" x2="420.6" y2="436.1"/>
<line class="st0" x1="405.6" y1="453.3" x2="414.6" y2="446.9"/>
<line class="st0" x1="399.2" y1="451.1" x2="410.8" y2="443.6"/>
<line class="st0" x1="399.3" y1="439.3" x2="399.2" y2="451.1"/>
<line class="st0" x1="403.2" y1="441.8" x2="399.3" y2="439.3"/>
<line class="st0" x1="405.6" y1="453.3" x2="399.2" y2="451.1"/>
<line class="st0" x1="397.1" y1="459.7" x2="405.6" y2="453.3"/>
<line class="st0" x1="394.2" y1="442.2" x2="399.3" y2="439.3"/>
<line class="st0" x1="399.3" y1="439.3" x2="396.7" y2="436.7"/>
<line class="st0" x1="403.8" y1="430.4" x2="407.6" y2="437.6"/>
<line class="st0" x1="411.6" y1="396.3" x2="415.6" y2="394.2"/>
<line class="st0" x1="419.4" y1="391.6" x2="415.6" y2="394.2"/>
<line class="st0" x1="428.1" y1="400.8" x2="419.4" y2="391.6"/>
<line class="st0" x1="423.9" y1="410.9" x2="428.1" y2="400.8"/>
<line class="st0" x1="435.3" y1="416.1" x2="428.1" y2="400.8"/>
<line class="st0" x1="429.4" y1="421.3" x2="428.1" y2="400.8"/>
<line class="st0" x1="423.9" y1="410.9" x2="429.4" y2="421.3"/>
<line class="st0" x1="420.6" y1="436.1" x2="429.4" y2="421.3"/>
<line class="st0" x1="435.3" y1="416.1" x2="431" y2="436.5"/>
<line class="st0" x1="414.6" y1="446.9" x2="431" y2="436.5"/>
<line class="st0" x1="423.7" y1="387.3" x2="428.1" y2="400.8"/>
<line class="st0" x1="419.4" y1="391.6" x2="423.7" y2="387.3"/>
<line class="st0" x1="427.6" y1="382.5" x2="423.7" y2="387.3"/>
<line class="st0" x1="414.7" y1="380.9" x2="422.3" y2="374.9"/>
<line class="st0" x1="427.6" y1="382.5" x2="422.3" y2="374.9"/>
<line class="st0" x1="414.9" y1="390.2" x2="414.7" y2="380.9"/>
<line class="st0" x1="409.8" y1="388.5" x2="414.7" y2="380.9"/>
<line class="st0" x1="419.4" y1="391.6" x2="414.9" y2="390.2"/>
<line class="st0" x1="409.8" y1="388.5" x2="411.6" y2="396.3"/>
<line class="st0" x1="414.9" y1="390.2" x2="409.8" y2="388.5"/>
<line class="st0" x1="397.7" y1="387.9" x2="411.6" y2="396.3"/>
<line class="st0" x1="396.7" y1="378.5" x2="406.4" y2="379.5"/>
<line class="st0" x1="409.8" y1="388.5" x2="406.4" y2="379.5"/>
<line class="st0" x1="419.1" y1="371" x2="406.4" y2="379.5"/>
<line class="st0" x1="425.9" y1="371" x2="419.1" y2="371"/>
<line class="st0" x1="427.6" y1="382.5" x2="425.9" y2="371"/>
<line class="st0" x1="390.7" y1="387.9" x2="391.7" y2="378.5"/>
<line class="st0" x1="388.7" y1="396.2" x2="390.7" y2="387.9"/>
<line class="st0" x1="389.7" y1="404.7" x2="388.7" y2="396.2"/>
<line class="st0" x1="385.9" y1="402.3" x2="388.7" y2="396.2"/>
<line class="st0" x1="386.8" y1="413.7" x2="389.7" y2="404.7"/>
<line class="st0" x1="384.2" y1="408.4" x2="385.9" y2="402.3"/>
<line class="st0" x1="386.8" y1="413.7" x2="384.2" y2="408.4"/>
<line class="st0" x1="382.2" y1="418" x2="384.2" y2="408.4"/>
<line class="st0" x1="378.3" y1="408.1" x2="384.2" y2="408.4"/>
<line class="st0" x1="382.6" y1="403.7" x2="384.2" y2="408.4"/>
<line class="st0" x1="376.3" y1="403.1" x2="382.6" y2="403.7"/>
<line class="st0" x1="378.3" y1="408.1" x2="376.3" y2="403.1"/>
<line class="st0" x1="370.2" y1="404" x2="376.3" y2="403.1"/>
<line class="st0" x1="376.8" y1="396.3" x2="370.2" y2="404"/>
<line class="st0" x1="368.8" y1="412.7" x2="370.2" y2="404"/>
<line class="st0" x1="372.2" y1="425.3" x2="368.8" y2="412.7"/>
<line class="st0" x1="370.2" y1="404" x2="364.5" y2="410.9"/>
<line class="st0" x1="376.2" y1="433.3" x2="372.2" y2="425.3"/>
<line class="st0" x1="377.9" y1="423" x2="372.2" y2="425.3"/>
<line class="st0" x1="382.2" y1="418" x2="377.9" y2="423"/>
<line class="st0" x1="385.7" y1="424" x2="386.8" y2="413.7"/>
<line class="st0" x1="382.2" y1="418" x2="386.8" y2="413.7"/>
<line class="st0" x1="384.7" y1="430.4" x2="385.7" y2="424"/>
<line class="st0" x1="394.2" y1="425.4" x2="385.7" y2="424"/>
<line class="st0" x1="385.3" y1="441.8" x2="380.8" y2="437.6"/>
<line class="st0" x1="377.6" y1="443.6" x2="380.8" y2="437.6"/>
<line class="st0" x1="376.2" y1="433.3" x2="377.6" y2="443.6"/>
<line class="st0" x1="367.8" y1="436.1" x2="372.2" y2="425.3"/>
<line class="st0" x1="376.2" y1="433.3" x2="367.8" y2="436.1"/>
<line class="st0" x1="373.8" y1="446.9" x2="367.8" y2="436.1"/>
<line class="st0" x1="382.8" y1="453.3" x2="373.8" y2="446.9"/>
<line class="st0" x1="389.2" y1="451.1" x2="377.6" y2="443.6"/>
<line class="st0" x1="389.1" y1="439.3" x2="389.2" y2="451.1"/>
<line class="st0" x1="385.3" y1="441.8" x2="389.1" y2="439.3"/>
<line class="st0" x1="382.8" y1="453.3" x2="389.2" y2="451.1"/>
<line class="st0" x1="391.3" y1="459.7" x2="382.8" y2="453.3"/>
<line class="st0" x1="394.2" y1="442.2" x2="389.1" y2="439.3"/>
<line class="st0" x1="389.1" y1="439.3" x2="391.7" y2="436.7"/>
<line class="st0" x1="384.7" y1="430.4" x2="380.8" y2="437.6"/>
<line class="st0" x1="376.8" y1="396.3" x2="372.8" y2="394.2"/>
<line class="st0" x1="369.1" y1="391.6" x2="372.8" y2="394.2"/>
<line class="st0" x1="360.3" y1="400.8" x2="369.1" y2="391.6"/>
<line class="st0" x1="364.5" y1="410.9" x2="360.3" y2="400.8"/>
<line class="st0" x1="353.2" y1="416.1" x2="360.3" y2="400.8"/>
<line class="st0" x1="359" y1="421.3" x2="360.3" y2="400.8"/>
<line class="st0" x1="364.5" y1="410.9" x2="359" y2="421.3"/>
<line class="st0" x1="367.8" y1="436.1" x2="359" y2="421.3"/>
<line class="st0" x1="353.2" y1="416.1" x2="357.5" y2="436.5"/>
<line class="st0" x1="373.8" y1="446.9" x2="357.5" y2="436.5"/>
<line class="st0" x1="364.8" y1="387.3" x2="360.3" y2="400.8"/>
<line class="st0" x1="369.1" y1="391.6" x2="364.8" y2="387.3"/>
<line class="st0" x1="360.8" y1="382.5" x2="364.8" y2="387.3"/>
<line class="st0" x1="373.7" y1="380.9" x2="366.2" y2="374.9"/>
<line class="st0" x1="360.8" y1="382.5" x2="366.2" y2="374.9"/>
<line class="st0" x1="373.5" y1="390.2" x2="373.7" y2="380.9"/>
<line class="st0" x1="378.6" y1="388.5" x2="373.7" y2="380.9"/>
<line class="st0" x1="369.1" y1="391.6" x2="373.5" y2="390.2"/>
<line class="st0" x1="378.6" y1="388.5" x2="376.8" y2="396.3"/>
<line class="st0" x1="373.5" y1="390.2" x2="378.6" y2="388.5"/>
<line class="st0" x1="390.7" y1="387.9" x2="376.8" y2="396.3"/>
<line class="st0" x1="391.7" y1="378.5" x2="382" y2="379.5"/>
<line class="st0" x1="378.6" y1="388.5" x2="382" y2="379.5"/>
<line class="st0" x1="369.3" y1="371" x2="382" y2="379.5"/>
<line class="st0" x1="362.6" y1="371" x2="369.3" y2="371"/>
<line class="st0" x1="360.8" y1="382.5" x2="362.6" y2="371"/>
<line class="st0" x1="391.7" y1="436.7" x2="396.7" y2="436.7"/>
<line class="st0" x1="391.3" y1="459.7" x2="397.1" y2="459.7"/>
<line class="st0" x1="389.2" y1="451.1" x2="399.2" y2="451.1"/>
<line class="st0" x1="391.7" y1="378.5" x2="396.7" y2="378.5"/>
<line class="st0" x1="403.8" y1="430.4" x2="410.5" y2="423"/>
<line class="st0" x1="384.7" y1="430.4" x2="377.9" y2="423"/>
</svg>
