ply
format ascii 1.0
element vertex 12
property float32 x
property float32 y
property float32 z
element face 20
property list uint8 int32 vertex_indices
end_header
0 0 1.17557 
1.05146 0 0.525731 
0.32492 1 0.525731 
-0.850651 0.618034 0.525731 
-0.850651 -0.618034 0.525731 
0.32492 -1 0.525731 
0.850651 0.618034 -0.525731 
0.850651 -0.618034 -0.525731 
-0.32492 1 -0.525731 
-1.05146 0 -0.525731 
-0.32492 -1 -0.525731 
0 0 -1.17557 
3 0 1 2 
3 0 2 3 
3 0 3 4 
3 0 4 5 
3 0 5 1 
3 1 5 7 
3 1 7 6 
3 1 6 2 
3 2 6 8 
3 2 8 3 
3 3 8 9 
3 3 9 4 
3 4 9 10 
3 4 10 5 
3 5 10 7 
3 6 7 11 
3 6 11 8 
3 7 10 11 
3 8 11 9 
3 9 11 10 
