<?xml version="1.0" encoding="utf-8"?>
<!-- Generator: Adobe Illustrator 21.1.0, SVG Export Plug-In . SVG Version: 6.00 Build 0)  -->
<svg version="1.1" id="Layer_1" xmlns="http://www.w3.org/2000/svg" xmlns:xlink="http://www.w3.org/1999/xlink" x="0px" y="0px"
	 viewBox="0 0 595.3 841.9" style="enable-background:new 0 0 595.3 841.9;" xml:space="preserve">
<style type="text/css">
	.st0{fill:none;stroke:#EB2227;stroke-width:0.5;stroke-miterlimit:10;}
	.st1{fill:none;stroke:#231F20;stroke-width:0.5;stroke-miterlimit:10;}
</style>
<line class="st0" x1="369.1" y1="388.8" x2="378.1" y2="378.9"/>
<line class="st0" x1="389.3" y1="373.9" x2="378.1" y2="378.9"/>
<line class="st0" x1="393.1" y1="381" x2="389.3" y2="373.9"/>
<line class="st0" x1="379" y1="386.4" x2="389.3" y2="373.9"/>
<line class="st0" x1="380.5" y1="403.3" x2="379" y2="386.4"/>
<line class="st0" x1="369.1" y1="388.8" x2="380.5" y2="403.3"/>
<line class="st0" x1="391.2" y1="395.3" x2="393.1" y2="381"/>
<line class="st0" x1="385.9" y1="402.4" x2="391.2" y2="395.3"/>
<line class="st0" x1="380.5" y1="403.3" x2="385.9" y2="402.4"/>
<line class="st0" x1="382.5" y1="412.7" x2="380.5" y2="403.3"/>
<line class="st1" x1="381.8" y1="424.4" x2="390.7" y2="418.3"/>
<line class="st1" x1="388.2" y1="437.3" x2="390.7" y2="418.3"/>
<line class="st1" x1="382.5" y1="412.7" x2="381.8" y2="424.4"/>
<line class="st1" x1="388.2" y1="437.3" x2="381.8" y2="424.4"/>
<line class="st1" x1="378.3" y1="448.4" x2="388.2" y2="437.3"/>
<line class="st1" x1="373.9" y1="441.3" x2="378.3" y2="448.4"/>
<line class="st1" x1="370.7" y1="430.3" x2="381.8" y2="424.4"/>
<line class="st1" x1="388.2" y1="437.3" x2="370.7" y2="430.3"/>
<line class="st1" x1="373.9" y1="441.3" x2="370.7" y2="430.3"/>
<line class="st1" x1="366.6" y1="430.4" x2="370.7" y2="430.3"/>
<line class="st1" x1="365.6" y1="436.7" x2="366.6" y2="430.4"/>
<line class="st1" x1="366.3" y1="450.3" x2="373.9" y2="441.3"/>
<line class="st1" x1="378.3" y1="448.4" x2="366.3" y2="450.3"/>
<line class="st1" x1="362.1" y1="425.3" x2="366.6" y2="430.4"/>
<line class="st1" x1="354.9" y1="404.8" x2="369.8" y2="408.9"/>
<line class="st1" x1="369.8" y1="408.9" x2="382.5" y2="412.7"/>
<line class="st1" x1="366.5" y1="414" x2="362.7" y2="414.9"/>
<line class="st1" x1="382.5" y1="412.7" x2="366.5" y2="414"/>
<line class="st1" x1="365" y1="419.3" x2="366.5" y2="414"/>
<line class="st1" x1="362.1" y1="425.3" x2="365" y2="419.3"/>
<line class="st1" x1="362.7" y1="414.9" x2="362.1" y2="425.3"/>
<line class="st1" x1="369.8" y1="408.9" x2="362.7" y2="414.9"/>
<line class="st1" x1="365" y1="419.3" x2="370.7" y2="430.3"/>
<line class="st1" x1="371.4" y1="418" x2="365" y2="419.3"/>
<line class="st1" x1="382.5" y1="412.7" x2="371.4" y2="418"/>
<line class="st1" x1="365.9" y1="398.5" x2="357.5" y2="401.8"/>
<line class="st1" x1="360.2" y1="391.3" x2="357.5" y2="401.8"/>
<line class="st1" x1="369.1" y1="388.8" x2="365.9" y2="398.5"/>
<line class="st1" x1="380.5" y1="403.3" x2="365.9" y2="398.5"/>
<line class="st1" x1="369.8" y1="408.9" x2="365.9" y2="398.5"/>
<line class="st1" x1="354.9" y1="404.8" x2="357.5" y2="401.8"/>
<line class="st1" x1="360.4" y1="385.6" x2="360.2" y2="391.3"/>
<line class="st1" x1="369.1" y1="388.8" x2="360.2" y2="391.3"/>
<line class="st1" x1="360.4" y1="385.6" x2="369.1" y2="388.8"/>
<line class="st1" x1="356.6" y1="446.5" x2="366.3" y2="450.3"/>
<line class="st1" x1="358.1" y1="454.8" x2="366.3" y2="450.3"/>
<line class="st1" x1="356.6" y1="443.4" x2="356.6" y2="446.5"/>
<line class="st1" x1="365.6" y1="436.7" x2="361.3" y2="434.9"/>
<line class="st1" x1="359.3" y1="442.6" x2="365.6" y2="436.7"/>
<line class="st1" x1="358.6" y1="438.5" x2="359.3" y2="442.6"/>
<line class="st1" x1="365.6" y1="436.7" x2="358.6" y2="438.5"/>
<line class="st1" x1="356.6" y1="443.4" x2="359.3" y2="442.6"/>
<line class="st1" x1="356.6" y1="440.5" x2="359.3" y2="442.6"/>
<line class="st1" x1="360.2" y1="391.3" x2="354.9" y2="385.6"/>
<line class="st0" x1="385.9" y1="402.4" x2="382.5" y2="412.7"/>
<line class="st0" x1="390.7" y1="418.3" x2="382.5" y2="412.7"/>
<line class="st0" x1="388" y1="404.8" x2="390.7" y2="418.3"/>
<line class="st0" x1="391.2" y1="395.3" x2="388" y2="404.8"/>
<line class="st0" x1="388.2" y1="437.3" x2="373.9" y2="441.3"/>
<line class="st0" x1="340.6" y1="388.8" x2="331.6" y2="378.9"/>
<line class="st0" x1="320.5" y1="373.9" x2="331.6" y2="378.9"/>
<line class="st0" x1="316.6" y1="381" x2="320.5" y2="373.9"/>
<line class="st0" x1="330.8" y1="386.4" x2="320.5" y2="373.9"/>
<line class="st0" x1="329.3" y1="403.3" x2="330.8" y2="386.4"/>
<line class="st0" x1="340.6" y1="388.8" x2="329.3" y2="403.3"/>
<line class="st0" x1="318.6" y1="395.3" x2="316.6" y2="381"/>
<line class="st0" x1="323.9" y1="402.4" x2="318.6" y2="395.3"/>
<line class="st0" x1="329.3" y1="403.3" x2="323.9" y2="402.4"/>
<line class="st0" x1="327.2" y1="412.7" x2="329.3" y2="403.3"/>
<line class="st1" x1="328" y1="424.4" x2="319.1" y2="418.3"/>
<line class="st1" x1="321.5" y1="437.3" x2="319.1" y2="418.3"/>
<line class="st1" x1="327.2" y1="412.7" x2="328" y2="424.4"/>
<line class="st1" x1="321.5" y1="437.3" x2="328" y2="424.4"/>
<line class="st1" x1="331.5" y1="448.4" x2="321.5" y2="437.3"/>
<line class="st1" x1="335.8" y1="441.3" x2="331.5" y2="448.4"/>
<line class="st1" x1="339" y1="430.3" x2="328" y2="424.4"/>
<line class="st1" x1="321.5" y1="437.3" x2="339" y2="430.3"/>
<line class="st1" x1="335.8" y1="441.3" x2="339" y2="430.3"/>
<line class="st1" x1="343.2" y1="430.4" x2="339" y2="430.3"/>
<line class="st1" x1="344.2" y1="436.7" x2="343.2" y2="430.4"/>
<line class="st1" x1="343.4" y1="450.3" x2="335.8" y2="441.3"/>
<line class="st1" x1="331.5" y1="448.4" x2="343.4" y2="450.3"/>
<line class="st1" x1="347.7" y1="425.3" x2="343.2" y2="430.4"/>
<line class="st1" x1="354.9" y1="404.8" x2="339.9" y2="408.9"/>
<line class="st1" x1="339.9" y1="408.9" x2="327.2" y2="412.7"/>
<line class="st1" x1="343.3" y1="414" x2="347" y2="414.9"/>
<line class="st1" x1="327.2" y1="412.7" x2="343.3" y2="414"/>
<line class="st1" x1="344.8" y1="419.3" x2="343.3" y2="414"/>
<line class="st1" x1="347.7" y1="425.3" x2="344.8" y2="419.3"/>
<line class="st1" x1="347" y1="414.9" x2="347.7" y2="425.3"/>
<line class="st1" x1="339.9" y1="408.9" x2="347" y2="414.9"/>
<line class="st1" x1="344.8" y1="419.3" x2="339" y2="430.3"/>
<line class="st1" x1="338.4" y1="418" x2="344.8" y2="419.3"/>
<line class="st1" x1="327.2" y1="412.7" x2="338.4" y2="418"/>
<line class="st1" x1="343.8" y1="398.5" x2="352.2" y2="401.8"/>
<line class="st1" x1="349.6" y1="391.3" x2="352.2" y2="401.8"/>
<line class="st1" x1="340.6" y1="388.8" x2="343.8" y2="398.5"/>
<line class="st1" x1="329.3" y1="403.3" x2="343.8" y2="398.5"/>
<line class="st1" x1="339.9" y1="408.9" x2="343.8" y2="398.5"/>
<line class="st1" x1="354.9" y1="404.8" x2="352.2" y2="401.8"/>
<line class="st1" x1="349.3" y1="385.6" x2="349.6" y2="391.3"/>
<line class="st1" x1="340.6" y1="388.8" x2="349.6" y2="391.3"/>
<line class="st1" x1="349.3" y1="385.6" x2="340.6" y2="388.8"/>
<line class="st1" x1="353.1" y1="446.5" x2="343.4" y2="450.3"/>
<line class="st1" x1="351.6" y1="454.8" x2="343.4" y2="450.3"/>
<line class="st1" x1="353.1" y1="443.4" x2="353.1" y2="446.5"/>
<line class="st1" x1="344.2" y1="436.7" x2="348.5" y2="434.9"/>
<line class="st1" x1="350.5" y1="442.6" x2="344.2" y2="436.7"/>
<line class="st1" x1="351.2" y1="438.5" x2="350.5" y2="442.6"/>
<line class="st1" x1="344.2" y1="436.7" x2="351.2" y2="438.5"/>
<line class="st1" x1="353.1" y1="443.4" x2="350.5" y2="442.6"/>
<line class="st1" x1="353.1" y1="440.5" x2="350.5" y2="442.6"/>
<line class="st1" x1="349.6" y1="391.3" x2="354.9" y2="385.6"/>
<line class="st0" x1="323.9" y1="402.4" x2="327.2" y2="412.7"/>
<line class="st0" x1="319.1" y1="418.3" x2="327.2" y2="412.7"/>
<line class="st0" x1="321.8" y1="404.8" x2="319.1" y2="418.3"/>
<line class="st0" x1="318.6" y1="395.3" x2="321.8" y2="404.8"/>
<line class="st0" x1="321.5" y1="437.3" x2="335.8" y2="441.3"/>
<line class="st1" x1="348.5" y1="434.9" x2="361.3" y2="434.9"/>
<line class="st1" x1="353.1" y1="440.5" x2="356.6" y2="440.5"/>
<line class="st1" x1="351.6" y1="454.8" x2="358.1" y2="454.8"/>
<line class="st1" x1="349.3" y1="385.6" x2="354.9" y2="385.6"/>
<line class="st1" x1="360.4" y1="385.6" x2="354.9" y2="385.6"/>
</svg>
