ply
format ascii 1.0
element vertex 15
property float32 x
property float32 y
property float32 z
element face 14
property list uint8 int32 vertex_indices
end_header
-0.836652 0.050764 0.288421 
-0.686658 0.016522 -0.560338 
-0.587106 -0.771319 0.365687 
-0.571616 0.871513 0.302147 
-0.437112 -0.805561 -0.483073 
-0.421621 0.837272 -0.546612 
-0.212729 -0.16003 0.84551 
0.052308 0.660719 0.859236 
0.08726 -0.228514 -0.852008 
0.186811 -1.01636 0.074016 
0.352296 0.592236 -0.838282 
0.561189 -0.405066 0.55384 
0.711183 -0.439308 -0.294919 
0.826226 0.415684 0.567566 
0.97622 0.381442 -0.281193 
3 4 9 2 
3 9 12 11 
3 2 6 0 
3 4 1 8 
4 0 3 5 1 
4 1 5 10 8 
4 8 10 14 12 
4 12 14 13 11 
4 11 13 7 6 
4 6 7 3 0 
4 9 4 8 12 
4 2 9 11 6 
4 4 2 0 1 
6 14 10 5 3 7 13 
