ply
format ascii 1.0
element vertex 20
property float32 x
property float32 y
property float32 z
element face 18
property list uint8 int32 vertex_indices
end_header
-0.889715 0.115789 -0.35951 
-0.792371 -0.231368 0.270291 
-0.791598 0.494102 0.251959 
-0.522446 -0.406626 -0.70424 
-0.521352 0.619343 -0.730164 
-0.425102 -0.753782 -0.074439 
-0.423235 0.997655 -0.118694 
-0.286344 -0.218767 0.790309 
-0.28557 0.506702 0.771978 
-0.154083 0.096928 -1.07489 
0.080926 -0.741182 0.44558 
0.082793 1.01026 0.401324 
0.095069 -0.767118 -0.580291 
0.331944 0.146209 0.895926 
0.463432 -0.263565 -0.950945 
0.601096 -0.754518 -0.060273 
0.699213 -0.376205 0.551197 
0.700307 0.649763 0.525272 
0.969459 -0.250964 -0.430927 
1.06758 0.127349 0.180543 
3 10 15 16 
3 7 13 8 
3 1 2 0 
3 5 3 12 
4 2 6 4 0 
4 0 4 9 3 
4 3 9 14 12 
4 12 14 18 15 
4 15 18 19 16 
4 16 19 17 13 
4 13 17 11 8 
4 8 11 6 2 
4 5 10 7 1 
4 10 5 12 15 
4 7 10 16 13 
4 1 7 8 2 
4 5 1 0 3 
8 18 14 9 4 6 11 17 19 
