ply
format ascii 1.0
element vertex 15
property float32 x
property float32 y
property float32 z
element face 20
property list uint8 int32 vertex_indices
end_header
-0.846878 0.066004 0.311423 
-0.766106 0.678635 -0.329908 
-0.708152 -0.186985 -0.531132 
-0.64897 -0.782761 0.128183 
-0.452751 0.845109 0.48694 
-0.21247 0.406919 -0.972407 
-0.165405 0.101357 0.883692 
0.032503 -0.747408 0.700451 
0.112048 -0.404621 -0.801418 
0.17123 -1.0004 -0.142104 
0.41424 0.739868 0.66129 
0.654521 0.301678 -0.798058 
0.654794 -0.116279 0.613406 
0.793521 -0.369268 -0.229149 
0.967876 0.468152 0.018791 
3 0 1 2 
3 2 1 5 
3 2 5 8 
3 8 5 11 
3 8 11 13 
3 13 11 14 
3 3 9 7 
3 9 8 13 
3 7 12 6 
3 3 0 2 
3 13 14 12 
3 12 14 10 
3 12 10 6 
3 6 10 4 
3 6 4 0 
3 0 4 1 
4 9 3 2 8 
4 7 9 13 12 
4 3 7 6 0 
6 11 5 1 4 10 14 
