ply
format ascii 1.0
element vertex 9
property float32 x
property float32 y
property float32 z
element face 8
property list uint8 int32 vertex_indices
end_header
-0.909743 0.523083 0.242386 
-0.747863 0.22787 -0.740794 
-0.678803 -0.467344 0.028562 
-0.11453 0.564337 0.910169 
0.11641 -0.426091 0.696344 
0.209231 -0.02609 -1.05619 
0.278291 -0.721304 -0.286836 
0.842564 0.310377 0.594771 
1.00444 0.015163 -0.38841 
3 2 6 4 
3 6 5 8 
3 4 7 3 
3 2 0 1 
4 6 2 1 5 
4 4 6 8 7 
4 2 4 3 0 
6 0 3 7 8 5 1 
