ply
format ascii 1.0
element vertex 12
property float32 x
property float32 y
property float32 z
element face 10
property list uint8 int32 vertex_indices
end_header
-0.600135 0.398265 -0.852158 
-0.585543 -0.441941 -0.840701 
-0.584691 0.40999 -0.011971 
-0.570099 -0.430216 -0.000514 
-0.18266 1.00543 -0.447988 
-0.147431 -1.02301 -0.420329 
0.0203 0.428447 0.571068 
0.034892 -0.411759 0.582525 
0.422331 1.02389 0.135052 
0.457559 -1.00455 0.162711 
0.860442 0.442825 0.555424 
0.875034 -0.397381 0.566881 
3 3 1 5 
3 7 9 11 
3 6 10 8 
3 2 4 0 
4 2 3 7 6 
4 3 2 0 1 
4 7 3 5 9 
4 6 7 11 10 
4 2 6 8 4 
8 4 8 10 11 9 5 1 0 
