ply
format ascii 1.0
element vertex 15
property float32 x
property float32 y
property float32 z
element face 12
property list uint8 int32 vertex_indices
end_header
-0.973114 0.120196 -0.57615 
-0.844191 -0.563656 -0.512814 
-0.711039 0.75783 -0.46202 
-0.594483 0.244733 -0.002202 
-0.46556 -0.439119 0.061133 
-0.373515 -1.03252 -0.296206 
-0.15807 1.10569 -0.21402 
-0.041514 0.592595 0.245798 
0.167087 -0.513901 0.348277 
0.259132 -1.1073 -0.009062 
0.429162 0.123733 0.462406 
0.474577 1.03091 0.073124 
0.812101 -0.759438 0.238938 
0.945253 0.562048 0.289732 
1.07418 -0.121804 0.353067 
3 4 1 5 
3 8 9 12 
3 10 14 13 
3 7 11 6 
3 3 2 0 
4 4 3 0 1 
4 8 4 5 9 
4 10 8 12 14 
4 7 10 13 11 
4 3 7 6 2 
5 3 4 8 10 7 
10 2 6 11 13 14 12 9 5 1 0 
