ply
format ascii 1.0
element vertex 100
property float32 x
property float32 y
property float32 z
element face 156
property list uint8 int32 vertex_indices
end_header
0	0	0
1	0	0
1	0.5	0
0.5	0.5	0
0.5	1	0
0	1	0
1.198E-13	0.08783414	0
-2.0039E-12	0.178802798	0
1.721E-13	0.268662535	0
-2.0169E-12	0.360880727	0
2.077E-13	0.450743653	0
-2.0333E-12	0.543003516	0
2.085E-13	0.633890484	0
-1.9538E-12	0.725987391	0
1.549E-13	0.816734372	0
-1.7639E-12	0.908061828	0
0.082258562	1	0
0.091419961	-1.5267E-12	0
0.121390705	0.088683951	0
0.084530736	0.176585408	0
0.118841137	0.265782781	0
0.084101082	0.356241007	0
0.113798425	0.447442986	0
0.083878553	0.540297615	0
0.11368609	0.632099875	0
0.085582253	0.723182918	0
0.116538281	0.811417305	0
0.092218777	0.901332486	0
0.164548776	1	0
0.193108334	-1.6177E-12	0
0.237372158	0.090412974	0
0.187824481	0.178435353	0
0.235174921	0.268067952	0
0.184192318	0.355290438	0
0.223486449	0.446289698	0
0.181994612	0.539414037	0
0.222871708	0.631831485	0
0.188751394	0.721095523	0
0.227211643	0.809242698	0
0.192214228	0.900678905	0
0.250305248	1	0
0.298070531	-1.5787E-12	0
0.349503972	0.093421157	0
0.296798196	0.180729848	0
0.348265095	0.271136329	0
0.291926013	0.359547961	0
0.331922502	0.453523936	0
0.286040978	0.536491744	0
0.32340546	0.623943155	0
0.301266701	0.71960164	0
0.327021427	0.81602009	0
0.295589344	0.905784424	0
0.339727755	1	0
0.402625437	-1.5177E-12	0
0.456569343	0.096230465	0
0.407695704	0.188469361	0
0.464173836	0.285582973	0
0.400845837	0.359603083	0
0.425523136	0.450034571	0
0.400076675	0.552425213	0
0.408244792	0.666086175	0
0.40839431	0.770929697	0
0.5	0.812273307	0
0.403189509	0.890319744	0
0.419601888	1	0
0.505545421	-1.4152E-12	0
0.559979431	0.09890264	0
0.513672811	0.194668842	0
0.569503617	0.297141704	0
0.514782137	0.390105764	0
0.589287034	0.5	0
0.5	0.603171507	0
0.5	0.70856205	0
0.5	0.906880053	0
0.606477007	-1.2906E-12	0
0.660156747	0.101723445	0
0.61557679	0.200727478	0
0.675489818	0.300378221	0
0.618694897	0.399129697	0
0.684905593	0.5	0
0.705269356	-1.3187E-12	0
0.758664604	0.09889874	0
0.716731404	0.20280277	0
0.786303877	0.295771483	0
0.721177661	0.396517588	0
0.782706338	0.5	0
0.804422158	-1.7677E-12	0
0.861676251	0.08460318	0
0.815055813	0.18879901	0
0.896460169	0.245377321	0
0.816409574	0.401698299	0
0.884582063	0.5	0
0.909754946	-1.23E-12	0
1	0.091494696	0
0.918457428	0.14714828	0
1	0.295875018	0
0.894595734	0.332334038	0
0.918333881	0.423937998	0
1	0.199170392	0
1.000000001	0.392297705	0
3	14	27	15
3	23	12	11
3	23	22	35
3	27	28	16
3	5	15	16
3	16	15	27
3	26	27	14
3	14	25	26
3	13	25	14
3	12	25	13
3	98	95	89
3	83	89	96
3	96	95	99
3	96	89	95
3	20	8	19
3	19	31	20
3	10	23	11
3	22	23	10
3	21	8	20
3	21	9	8
3	22	10	21
3	21	10	9
3	24	25	12
3	12	23	24
3	24	23	35
3	35	22	34
3	20	31	32
3	27	26	39
3	40	28	39
3	39	28	27
3	97	96	99
3	99	2	97
3	97	2	91
3	90	97	91
3	83	96	90
3	96	97	90
3	79	70	78
3	66	75	76
3	41	30	29
3	7	19	8
3	0	17	6
3	19	7	6
3	46	34	45
3	45	57	46
3	22	21	33
3	33	34	22
3	33	21	20
3	20	32	33
3	45	34	33
3	33	32	45
3	45	32	44
3	44	57	45
3	44	55	56
3	56	57	44
3	64	52	63
3	63	62	73
3	4	64	73
3	73	64	63
3	51	52	40
3	40	39	51
3	63	52	51
3	60	48	59
3	25	24	37
3	37	26	25
3	85	90	91
3	59	46	58
3	58	46	57
3	72	60	71
3	71	60	59
3	79	78	84
3	84	85	79
3	90	85	84
3	78	77	84
3	83	90	84
3	84	77	83
3	93	92	1
3	74	66	65
3	75	66	74
3	88	89	83
3	67	66	76
3	56	55	67
3	18	6	17
3	19	6	18
3	17	29	18
3	18	29	30
3	31	19	18
3	18	30	31
3	42	30	41
3	41	53	42
3	59	48	47
3	47	46	59
3	35	34	47
3	34	46	47
3	72	62	61
3	61	60	72
3	61	62	63
3	36	24	35
3	36	37	24
3	35	47	36
3	36	47	48
3	38	39	26
3	26	37	38
3	38	51	39
3	59	58	3
3	3	71	59
3	76	77	68
3	56	67	68
3	68	67	76
3	68	77	78
3	75	74	80
3	76	75	82
3	82	77	76
3	83	77	82
3	82	88	83
3	81	80	86
3	75	80	81
3	81	82	75
3	88	82	81
3	92	93	87
3	88	81	87
3	86	92	87
3	87	81	86
3	54	53	65
3	54	42	53
3	65	66	54
3	55	42	54
3	54	67	55
3	66	67	54
3	31	30	43
3	30	42	43
3	43	32	31
3	43	44	32
3	55	44	43
3	43	42	55
3	51	38	50
3	63	51	50
3	50	61	63
3	69	68	78
3	69	3	58
3	56	68	69
3	69	78	70
3	70	3	69
3	69	57	56
3	69	58	57
3	89	88	94
3	88	87	94
3	98	89	94
3	94	93	98
3	94	87	93
3	61	50	49
3	48	60	49
3	60	61	49
3	49	36	48
3	37	36	49
3	49	38	37
3	49	50	38
			
			
			
			
			
			
			
			
			
			
			
			
			
			
			
			
			
			
			
			
			
			
			
			
			
			
			
			
			
			
			
			
			
			
			
			
			
			
			
			
			
			
			
			
			
			
			
			
			
			
			
			
			
			
			
			
			
			
			
			
			
			
			
			
			
			
			
			
			
			
			
			
			
			
			
			
			
			
			
			
			
			
			
			
			
			
			
			
			
			
			
			
			
			
			
			
			
			
			
			
			
			
			
			
			
			
			
			
			
			
			
			
			
			
			
			
			
			
			
			
			
			
			
			
			
			
			
			
			
			
			
			
			
			
			
			
			
			
			
			
			
			
			
			
			
			
			
			
			
			
			
			
			
			
			
			
			
			
			
			
			
			
			
			
			
			
			
			
			
			
			
			
			
			
			
			
			
			
			
			
			
			
			
			
			
			
			
			
			
			
			
			
			
			
			
			
			
			
			
			
			
			
			
			
			
			
			
			
			
			
			
			
			
			
			
			
			
			
			
			
			
			
			
			
			
			
			
			
			
